<svg width="36.000000" height="36.000000" viewBox="0 0 36 36" fill="none" xmlns="http://www.w3.org/2000/svg" xmlns:xlink="http://www.w3.org/1999/xlink">
	<desc>
			Created with Pixso.
	</desc>
	<defs/>
	<rect id="Frame 36" rx="0.000000" width="35.000000" height="35.000000" transform="translate(0.500000 0.500000)" fill="#FFFFFF" fill-opacity="0"/>
	<path id="Vector" d="M20.12 5.75L20.34 5.75C20.67 5.75 21 5.47 21 5.09L21 4.65C21 4.32 20.67 4 20.34 4L0.65 4C0.27 4 0 4.32 0 4.65L0 5.09C0 5.47 0.27 5.75 0.65 5.75L0.87 5.75C0.87 10.78 3.28 16.35 7.92 18C3.22 19.69 0.87 25.27 0.87 30.25L0.65 30.25C0.27 30.25 0 30.57 0 30.9L0 31.34C0 31.72 0.27 32 0.65 32L20.34 32C20.67 32 21 31.72 21 31.34L21 30.9C21 30.57 20.67 30.25 20.34 30.25L20.12 30.25C20.12 25.27 17.66 19.69 13.01 18C17.71 16.35 20.12 10.78 20.12 5.75ZM2.62 5.75L18.37 5.75C18.37 11.82 14.82 16.68 10.5 16.68C6.12 16.68 2.62 11.82 2.62 5.75ZM18.37 30.25L2.62 30.25C2.62 24.23 6.12 19.31 10.5 19.31C14.82 19.31 18.37 24.23 18.37 30.25ZM14.71 12.03C15.03 11.65 14.71 11 14.16 11L6.78 11C6.23 11 5.9 11.65 6.23 12.03C6.34 12.2 6.45 12.36 6.61 12.53C6.72 12.69 6.89 12.75 7.1 12.75L13.83 12.75C14.05 12.75 14.21 12.69 14.32 12.53C14.49 12.36 14.6 12.2 14.71 12.03ZM5.35 26.75C5.03 26.75 4.81 26.96 4.7 27.24C4.7 27.4 4.64 27.57 4.59 27.73C4.53 28.11 4.81 28.5 5.25 28.5L15.69 28.5C16.13 28.5 16.4 28.11 16.35 27.73C16.29 27.57 16.24 27.4 16.24 27.24C16.13 26.96 15.91 26.75 15.58 26.75L5.35 26.75Z" fill="#5C8EE6" fill-opacity="1.000000" fill-rule="nonzero"/>
</svg>
