<svg width="140.000000" height="120.088867" viewBox="0 0 140 120.089" fill="none" xmlns="http://www.w3.org/2000/svg" xmlns:xlink="http://www.w3.org/1999/xlink">
	<desc>
			Created with Pixso.
	</desc>
	<defs/>
	<path id="Vector" d="M98.02 26.41L84.45 26.41L81 20.87L74.32 10.52L58.48 35.12L51.19 46.55L45.25 55.83L37.95 67.19L31.95 76.47L24.66 87.9L11.14 87.9L18.44 76.47L24.37 67.19L31.67 55.83L37.61 46.55L67.53 0L81.11 0L87.73 10.35L94.52 20.87L98.02 26.41ZM137.51 87.9L37.22 87.9L45.3 76.47L51.24 67.19L58.54 55.83L64.54 46.55L71.83 35.12L103.68 35.12L110.98 46.55L78.06 46.55L72.12 55.83L64.82 67.19L58.88 76.47L116.63 76.47L110.69 67.19L76.58 67.19L84.16 55.83L116.92 55.83L124.27 67.19L130.21 76.47L137.51 87.9ZM19.85 120.08L18.21 117.14L9.22 117.14L11.42 113.01L16.06 113.01L12.78 106.85L5.71 120.08L0 120.08L9.84 102.27C10.35 101.3 11.14 100.85 12.16 100.85L13.34 100.85C14.31 100.85 15.1 101.3 15.61 102.27L25.45 120.08L19.85 120.08ZM34.9 120.08C33.43 120.08 32.07 119.86 30.82 119.41C29.58 118.95 28.5 118.27 27.6 117.43C26.69 116.63 25.96 115.62 25.45 114.43C24.94 113.24 24.71 111.94 24.71 110.47C24.71 109.05 24.94 107.7 25.45 106.57C25.96 105.38 26.69 104.36 27.6 103.51C28.5 102.66 29.58 101.98 30.82 101.53C32.07 101.08 33.43 100.85 34.9 100.85L45.19 100.85L45.19 105.77L34.56 105.77C33.88 105.77 33.26 105.89 32.69 106.11C32.07 106.34 31.62 106.68 31.16 107.07C30.77 107.53 30.43 107.98 30.2 108.6C29.97 109.17 29.86 109.79 29.86 110.47C29.86 111.15 29.97 111.77 30.2 112.39C30.43 112.96 30.77 113.41 31.16 113.81C31.62 114.26 32.07 114.54 32.69 114.77C33.26 114.99 33.88 115.11 34.56 115.11L40.27 115.11L40.27 112.5L34.05 112.5L34.05 108.38L45.19 108.38L45.19 120.08L34.9 120.08ZM62.5 120.08L62.5 105.77L55.37 105.77L55.37 100.85L74.72 100.85L74.72 105.77L67.65 105.77L67.65 120.08L62.5 120.08ZM76.98 120.08L76.98 100.85L95.42 100.85L95.42 105.77L82.13 105.77L82.13 115.11L95.48 115.11L95.48 120.08L76.98 120.08ZM108.09 120.08C106.57 120.08 105.21 119.86 103.96 119.41C102.72 118.95 101.64 118.27 100.8 117.43C99.89 116.63 99.15 115.62 98.65 114.43C98.14 113.24 97.85 111.94 97.85 110.47C97.85 109.05 98.14 107.7 98.65 106.57C99.15 105.38 99.89 104.36 100.8 103.51C101.64 102.66 102.72 101.98 103.96 101.53C105.21 101.08 106.57 100.85 108.09 100.85L117.48 100.85L117.48 105.77L107.7 105.77C107.02 105.77 106.4 105.89 105.83 106.11C105.26 106.34 104.76 106.68 104.36 107.07C103.96 107.53 103.62 107.98 103.4 108.6C103.17 109.17 103.06 109.79 103.06 110.47C103.06 111.15 103.17 111.77 103.4 112.39C103.62 112.96 103.96 113.41 104.36 113.81C104.76 114.26 105.26 114.54 105.83 114.77C106.4 114.99 107.02 115.11 107.7 115.11L117.48 115.11L117.48 120.08L108.09 120.08ZM120.37 120.08L120.37 100.85L125.57 100.85L125.57 120.08L120.37 120.08ZM134.85 120.08L134.85 112.62L127.32 112.62L127.32 107.92L134.85 107.92L134.85 100.85L140 100.85L140 120.08L134.85 120.08ZM83.88 112.5L83.88 108.38L95.25 108.38L95.25 112.5L83.88 112.5Z" fill="#828A99" fill-opacity="1.000000" fill-rule="evenodd"/>
</svg>
