<svg width="24.000000" height="24.000000" viewBox="0 0 24 24" fill="none" xmlns="http://www.w3.org/2000/svg" xmlns:xlink="http://www.w3.org/1999/xlink">
	<desc>
			Created with Pixso.
	</desc>
	<defs/>
	<rect id="inst" rx="0.000000" width="23.000000" height="23.000000" transform="translate(0.500000 0.500000)" fill="#FFFFFF" fill-opacity="0"/>
	<path id="Vector" d="M8.44 4C5.99 4 4 5.99 4 8.44L4 15.55C4 18 5.99 20 8.44 20L15.55 20C18 20 20 18 20 15.55L20 8.44C20 5.99 18 4 15.55 4L8.44 4ZM8.44 5.77L15.55 5.77C17.02 5.77 18.22 6.97 18.22 8.44L18.22 15.55C18.22 17.02 17.02 18.22 15.55 18.22L8.44 18.22C6.97 18.22 5.77 17.02 5.77 15.55L5.77 8.44C5.77 6.97 6.97 5.77 8.44 5.77ZM16.44 6.66C16.2 6.66 15.98 6.76 15.81 6.92C15.64 7.09 15.55 7.31 15.55 7.55C15.55 7.79 15.64 8.01 15.81 8.18C15.98 8.35 16.2 8.44 16.44 8.44C16.68 8.44 16.9 8.35 17.07 8.18C17.23 8.01 17.33 7.79 17.33 7.55C17.33 7.31 17.23 7.09 17.07 6.92C16.9 6.76 16.68 6.66 16.44 6.66ZM12 7.55C9.54 7.55 7.55 9.54 7.55 12C7.55 14.45 9.54 16.44 12 16.44C14.45 16.44 16.44 14.45 16.44 12C16.44 9.54 14.45 7.55 12 7.55ZM12 9.33C13.47 9.33 14.66 10.52 14.66 12C14.66 13.47 13.47 14.66 12 14.66C10.52 14.66 9.33 13.47 9.33 12C9.33 10.52 10.52 9.33 12 9.33Z" fill="#5C8EE6" fill-opacity="1.000000" fill-rule="nonzero"/>
</svg>
