<svg width="24.000000" height="24.000000" viewBox="0 0 24 24" fill="none" xmlns="http://www.w3.org/2000/svg" xmlns:xlink="http://www.w3.org/1999/xlink">
	<desc>
			Created with Pixso.
	</desc>
	<defs/>
	<rect id="mail" rx="0.000000" width="23.000000" height="23.000000" transform="translate(0.500000 0.500000)" fill="#FFFFFF" fill-opacity="0"/>
	<path id="Vector" d="M4.31 9.96C5.03 10.53 5.93 11.21 9.12 13.53C9.75 14 10.9 15.03 12 15.03C13.12 15.03 14.25 14 14.9 13.53C18.09 11.21 19 10.53 19.71 9.96C19.84 9.87 20 9.96 20 10.12L20 16.5C20 17.34 19.34 18 18.5 18L5.5 18C4.68 18 4 17.34 4 16.5L4 10.12C4 9.96 4.18 9.87 4.31 9.96ZM12 14C11.28 14.03 10.25 13.09 9.71 12.71C5.56 9.71 5.25 9.43 4.31 8.68C4.12 8.56 4 8.34 4 8.09L4 7.5C4 6.68 4.68 6 5.5 6L18.5 6C19.34 6 20 6.68 20 7.5L20 8.09C20 8.34 19.9 8.56 19.71 8.68C18.78 9.43 18.46 9.71 14.31 12.71C13.78 13.09 12.75 14.03 12 14Z" fill="#5C8EE6" fill-opacity="1.000000" fill-rule="evenodd"/>
</svg>
