<svg width="24.000000" height="24.000000" viewBox="0 0 24 24" fill="none" xmlns="http://www.w3.org/2000/svg" xmlns:xlink="http://www.w3.org/1999/xlink">
	<desc>
			Created with Pixso.
	</desc>
	<defs/>
	<rect id="mark" rx="0.000000" width="23.000000" height="23.000000" transform="translate(0.500000 0.500000)" fill="#FFFFFF" fill-opacity="0"/>
	<path id="Vector" d="M12.62 19.68C12.34 20.12 11.68 20.12 11.4 19.68C6.84 13.12 6 12.43 6 10C6 6.68 8.68 4 12 4C15.34 4 18 6.68 18 10C18 12.43 17.18 13.12 12.62 19.68ZM12 12.5C13.4 12.5 14.5 11.4 14.5 10C14.5 8.62 13.4 7.5 12 7.5C10.62 7.5 9.5 8.62 9.5 10C9.5 11.4 10.62 12.5 12 12.5Z" fill="#5C8EE6" fill-opacity="1.000000" fill-rule="evenodd"/>
</svg>
