<svg width="0" height="0" class="hidden">
  <symbol fill="none" xmlns="http://www.w3.org/2000/svg" xmlns:xlink="http://www.w3.org/1999/xlink" viewBox="0 0 36 36" id="control">
    <desc>Created with Pixso.</desc>
    <defs></defs>
    <rect id="Frame 33" rx="0.000000" width="35.000000" height="35.000000" transform="translate(0.500000 0.500000)" fill="#FFFFFF" fill-opacity="0"></rect>
    <path id="Vector" d="M17.11 23.25C15.53 23.25 14.82 24.12 12.25 24.12C9.62 24.12 8.91 23.25 7.32 23.25C3.28 23.25 0 26.58 0 30.63C0 31.39 0.6 32 1.36 32L23.07 32C23.84 32 24.5 31.39 24.5 30.63C24.5 26.58 21.16 23.25 17.11 23.25ZM1.75 30.25C1.91 27.35 4.37 25.05 7.32 25C8.42 25 9.46 25.87 12.25 25.87C15.03 25.87 16.02 25 17.11 25C20.07 25.05 22.53 27.35 22.69 30.25L1.75 30.25ZM4.81 12.75L5.46 12.75C5.3 13.35 5.25 13.89 5.25 14.5C5.25 18.38 8.36 21.5 12.25 21.5C16.07 21.5 19.25 18.38 19.25 14.5C19.19 13.89 19.14 13.35 18.97 12.75L19.68 12.75C19.9 12.75 20.12 12.58 20.12 12.31L20.12 11.43C20.12 11.21 19.9 11 19.68 11L19.25 11C19.25 8.21 17.33 5.85 14.71 5.14C14.49 4.49 13.83 4.05 13.12 4L11.37 4C10.6 4.05 9.95 4.49 9.73 5.14C7.16 5.85 5.25 8.21 5.25 11L4.81 11C4.53 11 4.37 11.21 4.37 11.43L4.37 12.31C4.37 12.58 4.53 12.75 4.81 12.75ZM14.87 7C16.4 7.71 17.44 9.25 17.5 11L14.87 11L14.87 7ZM11.37 5.75L13.12 5.75L13.12 11L11.37 11L11.37 5.75ZM7 11C7 9.25 8.03 7.71 9.62 7L9.62 11L7 11ZM7.32 12.75L17.17 12.75C17.33 13.29 17.44 13.89 17.5 14.5C17.5 17.39 15.09 19.75 12.25 19.75C9.35 19.75 7 17.39 7 14.5C7 13.89 7.1 13.29 7.32 12.75Z" fill="#5C8EE6" fill-opacity="1.000000" fill-rule="evenodd"></path>
  </symbol>
  <symbol fill="none" xmlns="http://www.w3.org/2000/svg" xmlns:xlink="http://www.w3.org/1999/xlink" viewBox="0 0 36 36" id="delivery">
    <desc>Created with Pixso.</desc>
    <defs></defs>
    <rect id="Frame 35" rx="0.000000" width="35.000000" height="35.000000" transform="translate(0.500000 0.500000)" fill="#FFFFFF" fill-opacity="0"></rect>
    <path id="Vector" d="M1.75 21.5L20.12 21.5C21.05 21.5 21.87 20.73 21.87 19.75L21.87 7.5C21.87 6.57 21.05 5.75 20.12 5.75L1.75 5.75C0.76 5.75 0 6.57 0 7.5L0 19.75C0 20.73 0.76 21.5 1.75 21.5ZM1.75 7.5L20.12 7.5L20.12 19.75L1.75 19.75L1.75 7.5ZM33.96 15.26L30.73 12.03C30.07 11.38 29.2 11.05 28.27 11.05L24.5 11.05C24 11.05 23.62 11.43 23.62 11.92L23.62 23.3L12.46 23.3C11.81 22.75 10.99 22.42 10.06 22.42C8.8 22.42 7.71 22.97 7 23.9C6.23 22.97 5.14 22.37 3.93 22.37C1.75 22.37 0 24.17 0 26.31C0 28.5 1.75 30.25 3.93 30.25C5.14 30.25 6.23 29.7 7 28.77C7.71 29.7 8.8 30.25 10.06 30.25C12.19 30.25 14 28.5 14 26.31C14 25.87 13.89 25.43 13.72 25L24.55 25C24.39 25.76 24.44 26.53 24.71 27.35C25.15 28.71 26.35 29.81 27.78 30.14C30.62 30.85 33.25 28.66 33.25 25.87C33.25 25.6 33.19 25.32 33.14 25L34.12 25C34.56 25 35 24.61 35 24.12L35 17.72C35 16.79 34.61 15.92 33.96 15.26ZM3.93 28.5C2.67 28.5 1.75 27.57 1.75 26.31C1.75 25.1 2.67 24.12 3.93 24.12C5.14 24.12 6.12 25.1 6.12 26.31C6.12 27.57 5.14 28.5 3.93 28.5ZM10.06 28.5C8.8 28.5 7.87 27.57 7.87 26.31C7.87 25.1 8.8 24.12 10.06 24.12C11.26 24.12 12.25 25.1 12.25 26.31C12.25 27.57 11.26 28.5 10.06 28.5ZM25.37 12.75L28.27 12.75C28.76 12.75 29.2 12.96 29.53 13.29L32.48 16.25L25.37 16.25L25.37 12.75ZM28.87 28.5C27.39 28.5 26.25 27.35 26.25 25.87C26.25 24.45 27.39 23.25 28.87 23.25C30.29 23.25 31.5 24.45 31.5 25.87C31.5 27.35 30.29 28.5 28.87 28.5ZM33.25 23.25L32.32 23.25C31.55 22.21 30.29 21.5 28.87 21.5C27.39 21.5 26.19 22.21 25.37 23.25L25.37 18L33.25 18L33.25 23.25ZM5.68 18L6.56 18C6.78 18 7 17.83 7 17.56L7 9.68C7 9.46 6.78 9.25 6.56 9.25L5.68 9.25C5.41 9.25 5.25 9.46 5.25 9.68L5.25 17.56C5.25 17.83 5.41 18 5.68 18ZM10.93 18L11.81 18C12.03 18 12.25 17.83 12.25 17.56L12.25 9.68C12.25 9.46 12.03 9.25 11.81 9.25L10.93 9.25C10.66 9.25 10.5 9.46 10.5 9.68L10.5 17.56C10.5 17.83 10.66 18 10.93 18ZM16.18 18L17.06 18C17.28 18 17.5 17.83 17.5 17.56L17.5 9.68C17.5 9.46 17.28 9.25 17.06 9.25L16.18 9.25C15.91 9.25 15.75 9.46 15.75 9.68L15.75 17.56C15.75 17.83 15.91 18 16.18 18Z" fill="#5C8EE6" fill-opacity="1.000000" fill-rule="evenodd"></path>
  </symbol>
  <symbol fill="none" xmlns="http://www.w3.org/2000/svg" xmlns:xlink="http://www.w3.org/1999/xlink" viewBox="0 0 140 44" id="logo">
    <desc>Created with Pixso.</desc>
    <defs>
      <clipPath id="clip191_1668">
        <rect id="logo" rx="0.000000" width="139.000000" height="43.000000" transform="translate(0.500000 0.500000)" fill="white" fill-opacity="0"></rect>
      </clipPath>
    </defs>
    <rect id="logo" rx="0.000000" width="139.000000" height="43.000000" transform="translate(0.500000 0.500000)" fill="#FFFFFF" fill-opacity="0"></rect>
    <g clip-path="url(#clip191_1668)">
      <path id="Vector" d="M21.99 4.89C24.28 4.89 26.47 5.34 28.47 6.16L28.47 12.35L28.47 21.81C28.47 25.36 25.59 28.24 22.04 28.24C20.53 28.24 19.15 27.72 18.05 26.85L18.05 32.54C19.29 33 20.64 33.25 22.04 33.25C29.02 33.25 33.51 27.74 33.51 21.05L33.51 3.25C30.16 1.19 26.21 0 21.99 0C9.84 0 0 9.84 0 21.99C0 28.92 3.21 35.11 8.22 39.14L8.22 32.13C6.13 29.3 4.89 25.79 4.89 21.99C4.89 12.54 12.54 4.89 21.99 4.89Z" fill="#292D33" fill-opacity="1.000000" fill-rule="evenodd"></path>
      <path id="Vector" d="M22.06 39.1C19.76 39.1 17.58 38.65 15.58 37.83L15.58 31.64L15.58 22.18C15.58 18.63 18.45 15.75 22 15.75C23.51 15.75 24.9 16.27 26 17.14L26 11.45C24.75 10.99 23.41 10.74 22 10.74C15.02 10.74 10.54 16.25 10.54 22.94L10.54 40.74C13.89 42.8 17.83 44 22.06 44C34.2 44 44.05 34.15 44.05 22C44.05 15.07 40.84 8.88 35.82 4.85L35.82 11.86C37.92 14.69 39.16 18.2 39.16 22C39.16 31.45 31.5 39.1 22.06 39.1Z" fill="#5C8EE6" fill-opacity="1.000000" fill-rule="evenodd"></path>
      <path id="Vector" d="M71.19 22.8C71.26 22.74 71.3 22.65 71.3 22.55L71.3 22.51C71.28 22.49 71.28 22.46 71.28 22.44L67.8 9.16C67.67 8.67 67.48 8.27 67.25 7.99C67.02 7.72 66.76 7.48 66.49 7.33C66.21 7.19 65.92 7.1 65.64 7.06C65.34 7.02 65.09 7 64.86 7C64.62 7 64.37 7.02 64.09 7.06C63.8 7.1 63.52 7.19 63.25 7.33C62.97 7.48 62.7 7.72 62.46 7.99C62.23 8.27 62.04 8.67 61.91 9.16L58.44 22.44L58.44 22.51C58.42 22.53 58.42 22.53 58.42 22.55C58.42 22.65 58.46 22.74 58.52 22.8C58.58 22.87 58.69 22.91 58.8 22.91L61.04 22.91C61.15 22.91 61.23 22.87 61.3 22.8C61.36 22.74 61.42 22.65 61.45 22.55L62.42 18.52L67.29 18.52L68.27 22.55C68.29 22.65 68.35 22.74 68.42 22.8C68.48 22.87 68.57 22.91 68.67 22.91L70.92 22.91C71.02 22.91 71.13 22.87 71.19 22.8ZM101.52 22.8C101.58 22.74 101.62 22.65 101.62 22.55L101.62 22.51C101.6 22.49 101.6 22.46 101.6 22.44L98.13 9.16C98 8.67 97.81 8.27 97.57 7.99C97.34 7.72 97.09 7.48 96.81 7.33C96.54 7.19 96.24 7.1 95.96 7.06C95.67 7.02 95.41 7 95.18 7C94.95 7 94.69 7.02 94.42 7.06C94.12 7.1 93.84 7.19 93.57 7.33C93.29 7.48 93.02 7.72 92.79 7.99C92.55 8.27 92.36 8.67 92.23 9.16L88.76 22.44L88.76 22.51C88.74 22.53 88.74 22.53 88.74 22.55C88.74 22.65 88.78 22.74 88.84 22.8C88.91 22.87 89.01 22.91 89.12 22.91L91.37 22.91C91.47 22.91 91.56 22.87 91.62 22.8C91.68 22.74 91.75 22.65 91.77 22.55L92.74 18.52L97.62 18.52L98.59 22.55C98.61 22.65 98.68 22.74 98.74 22.8C98.8 22.87 98.89 22.91 98.99 22.91L101.24 22.91C101.35 22.91 101.45 22.87 101.52 22.8ZM127.94 22.57C128.02 22.51 128.07 22.4 128.07 22.25L128.07 20.83C128.07 20.7 128.05 20.6 127.98 20.51C127.92 20.43 127.79 20.39 127.64 20.39L127.6 20.39C127.41 20.41 127.2 20.41 126.94 20.43C126.67 20.45 126.39 20.47 126.1 20.49C125.8 20.51 125.5 20.51 125.19 20.54C124.87 20.56 124.57 20.56 124.3 20.56C123.85 20.56 123.43 20.49 123.07 20.35C122.68 20.22 122.37 20.01 122.09 19.69C121.82 19.37 121.6 18.97 121.46 18.46C121.31 17.95 121.22 17.34 121.22 16.59L121.22 13.48C121.22 12.74 121.31 12.1 121.46 11.59C121.6 11.08 121.82 10.68 122.09 10.36C122.37 10.07 122.68 9.86 123.07 9.71C123.43 9.58 123.85 9.52 124.3 9.52C124.57 9.52 124.87 9.52 125.19 9.54C125.5 9.56 125.8 9.56 126.1 9.58C126.39 9.6 126.67 9.6 126.94 9.62C127.2 9.64 127.41 9.67 127.6 9.69L127.64 9.69C127.79 9.69 127.92 9.64 127.98 9.56C128.05 9.47 128.07 9.37 128.07 9.24L128.07 7.82C128.07 7.67 128.02 7.55 127.94 7.48C127.86 7.42 127.75 7.38 127.6 7.33C127.52 7.31 127.37 7.29 127.18 7.25C126.97 7.21 126.71 7.16 126.41 7.12C126.12 7.1 125.78 7.06 125.42 7.04C125.06 7.02 124.66 7 124.25 7C123.62 7 122.94 7.08 122.24 7.25C121.54 7.44 120.88 7.76 120.31 8.25C119.72 8.73 119.25 9.39 118.85 10.22C118.47 11.06 118.28 12.14 118.28 13.48L118.28 16.59C118.28 17.91 118.47 18.99 118.85 19.82C119.25 20.64 119.72 21.3 120.31 21.79C120.88 22.27 121.54 22.61 122.24 22.8C122.94 22.99 123.62 23.08 124.25 23.08C124.66 23.08 125.06 23.06 125.42 23.04C125.78 23.01 126.12 22.97 126.41 22.95C126.71 22.91 126.97 22.87 127.18 22.82C127.37 22.8 127.52 22.76 127.6 22.74C127.75 22.7 127.86 22.63 127.94 22.57ZM139.91 22.65C139.98 22.59 140 22.49 140 22.34L140 20.98C140 20.87 139.95 20.77 139.87 20.68C139.78 20.6 139.68 20.56 139.57 20.56L135.25 20.56C134.64 20.56 134.19 20.43 133.96 20.18C133.7 19.92 133.58 19.43 133.58 18.73L133.58 16L139.32 16C139.42 16 139.53 15.96 139.62 15.87C139.7 15.79 139.74 15.68 139.74 15.58L139.74 14.05C139.74 13.95 139.7 13.84 139.62 13.75C139.53 13.67 139.42 13.63 139.32 13.63L133.58 13.63L133.58 11.34C133.58 10.64 133.7 10.15 133.96 9.9C134.19 9.64 134.64 9.52 135.25 9.52L139.57 9.52C139.68 9.52 139.78 9.47 139.87 9.39C139.95 9.3 140 9.2 140 9.09L140 7.74C140 7.59 139.98 7.48 139.91 7.42C139.85 7.36 139.72 7.31 139.57 7.29C139.4 7.27 139.21 7.23 139.02 7.19C138.81 7.16 138.56 7.12 138.26 7.1C137.94 7.08 137.58 7.04 137.16 7.02C136.71 7 136.18 7 135.55 7L135.55 7C134.85 7 134.21 7.06 133.62 7.16C133.03 7.27 132.5 7.48 132.07 7.8C131.63 8.12 131.27 8.56 131.01 9.14C130.76 9.71 130.63 10.43 130.63 11.34L130.63 18.73C130.63 19.65 130.76 20.37 131.01 20.94C131.27 21.51 131.63 21.93 132.07 22.25C132.5 22.57 133.03 22.8 133.62 22.91C134.21 23.01 134.85 23.08 135.55 23.08L135.55 23.08C136.18 23.08 136.71 23.08 137.16 23.06C137.58 23.04 137.94 22.99 138.26 22.97C138.56 22.95 138.81 22.91 139.02 22.87C139.21 22.85 139.4 22.8 139.57 22.78C139.72 22.76 139.85 22.72 139.91 22.65ZM81.7 22.65C81.77 22.59 81.79 22.49 81.79 22.34L81.79 20.98C81.79 20.87 81.75 20.77 81.66 20.68C81.58 20.6 81.47 20.56 81.36 20.56L77.46 20.56C76.85 20.56 76.41 20.43 76.17 20.18C75.94 19.92 75.81 19.43 75.81 18.73L75.81 7.59C75.81 7.48 75.77 7.38 75.68 7.29C75.6 7.21 75.49 7.16 75.39 7.16L73.29 7.16C73.18 7.16 73.08 7.21 72.99 7.29C72.91 7.38 72.87 7.48 72.87 7.59L72.87 18.73C72.87 19.65 72.99 20.37 73.25 20.94C73.5 21.51 73.84 21.93 74.29 22.25C74.73 22.57 75.24 22.8 75.83 22.91C76.43 23.01 77.06 23.08 77.76 23.08L77.76 23.08C78.04 23.08 78.35 23.08 78.72 23.06C79.08 23.04 79.41 23.01 79.75 22.99C80.09 22.97 80.41 22.93 80.71 22.89C80.98 22.87 81.22 22.82 81.36 22.78C81.51 22.76 81.64 22.72 81.7 22.65ZM86.62 22.78C86.7 22.7 86.75 22.59 86.75 22.49L86.75 7.57C86.75 7.46 86.7 7.36 86.62 7.27C86.53 7.21 86.43 7.16 86.32 7.16L84.22 7.16C84.12 7.16 84.01 7.21 83.93 7.27C83.84 7.36 83.8 7.46 83.8 7.57L83.8 22.49C83.8 22.59 83.84 22.7 83.93 22.78C84.01 22.87 84.12 22.91 84.22 22.91L86.32 22.91C86.43 22.91 86.53 22.87 86.62 22.78ZM115.29 22.65C115.44 22.51 115.52 22.29 115.52 22.06L115.52 7.57C115.52 7.29 115.4 7.16 115.12 7.16L113.3 7.16C113.02 7.16 112.89 7.29 112.89 7.57L112.89 18.71C112.89 18.84 112.85 18.9 112.79 18.9C112.73 18.9 112.66 18.84 112.62 18.73L107.68 7.84C107.56 7.57 107.43 7.38 107.3 7.29C107.15 7.21 106.98 7.16 106.75 7.16L104.46 7.16C104.23 7.16 104.02 7.25 103.87 7.4C103.7 7.57 103.61 7.78 103.61 8.01L103.61 22.49C103.61 22.59 103.66 22.7 103.74 22.78C103.83 22.87 103.93 22.91 104.04 22.91L105.84 22.91C105.94 22.91 106.05 22.87 106.14 22.78C106.2 22.7 106.24 22.59 106.24 22.49L106.24 11.83C106.24 11.72 106.28 11.66 106.35 11.66C106.41 11.66 106.47 11.72 106.54 11.83L111.24 22.15C111.41 22.53 111.6 22.74 111.84 22.8C112.05 22.87 112.28 22.91 112.53 22.91L114.67 22.91C114.91 22.91 115.12 22.82 115.29 22.65ZM95.41 9.54C95.46 9.6 95.5 9.69 95.52 9.81L97.04 16.11L93.31 16.11L94.84 9.81C94.86 9.69 94.9 9.6 94.95 9.54C94.99 9.5 95.07 9.47 95.18 9.47C95.29 9.47 95.37 9.5 95.41 9.54ZM65.09 9.54C65.13 9.6 65.17 9.69 65.2 9.81L66.72 16.11L62.99 16.11L64.52 9.81C64.54 9.69 64.58 9.6 64.62 9.54C64.67 9.5 64.75 9.47 64.86 9.47C64.96 9.47 65.05 9.5 65.09 9.54Z" fill="#292D33" fill-opacity="1.000000" fill-rule="evenodd"></path>
      <path id="Vector" d="M65.56 31.48C65.76 31.08 65.87 30.58 65.87 29.98L65.87 29.86C65.87 29.27 65.76 28.77 65.56 28.36C65.34 27.97 65.06 27.64 64.7 27.4C64.34 27.16 63.93 26.98 63.47 26.89C62.99 26.79 62.49 26.74 61.98 26.74C61.48 26.74 60.99 26.75 60.53 26.78C60.07 26.82 59.67 26.86 59.32 26.91C59.18 26.93 59.07 26.97 59.01 27.02C58.93 27.09 58.89 27.18 58.89 27.32L58.89 36.62C58.89 36.68 58.91 36.75 58.97 36.81C59.02 36.86 59.09 36.89 59.16 36.89L60.51 36.89C60.57 36.89 60.64 36.86 60.7 36.81C60.74 36.75 60.76 36.68 60.76 36.62L60.76 33.09C60.91 33.1 61.11 33.1 61.34 33.12C61.59 33.13 61.79 33.14 61.97 33.14C62.49 33.14 62.99 33.09 63.47 32.98C63.93 32.89 64.34 32.71 64.7 32.45C65.06 32.21 65.34 31.89 65.56 31.48ZM74.48 36.89C74.59 36.89 74.64 36.83 74.64 36.72C74.64 36.68 74.63 36.64 74.61 36.62L72.49 32.67C73.06 32.45 73.51 32.12 73.83 31.67C74.17 31.23 74.33 30.63 74.33 29.91L74.33 29.79C74.33 29.21 74.22 28.73 74.02 28.33C73.8 27.94 73.52 27.63 73.15 27.4C72.8 27.17 72.38 27 71.92 26.89C71.45 26.79 70.95 26.74 70.44 26.74C69.94 26.74 69.45 26.75 68.99 26.78C68.53 26.82 68.13 26.86 67.78 26.91C67.64 26.93 67.53 26.97 67.47 27.02C67.38 27.09 67.34 27.18 67.34 27.32L67.34 36.62C67.34 36.68 67.37 36.75 67.43 36.81C67.48 36.86 67.55 36.89 67.61 36.89L68.97 36.89C69.03 36.89 69.1 36.86 69.15 36.81C69.19 36.75 69.22 36.68 69.22 36.62L69.22 32.97C69.37 32.98 69.57 32.98 69.8 33C70.03 33.01 70.25 33.02 70.42 33.02L70.61 33.02L72.56 36.62C72.6 36.68 72.63 36.75 72.67 36.81C72.71 36.86 72.76 36.89 72.83 36.89L74.48 36.89ZM83.03 34.7C83.22 34.17 83.32 33.52 83.32 32.78L83.32 30.95C83.32 30.21 83.22 29.58 83.03 29.04C82.83 28.51 82.57 28.06 82.22 27.73C81.88 27.39 81.48 27.14 81.01 26.98C80.55 26.82 80.03 26.74 79.48 26.74C78.91 26.74 78.4 26.82 77.94 26.98C77.46 27.14 77.06 27.39 76.72 27.73C76.38 28.06 76.11 28.51 75.92 29.04C75.72 29.58 75.63 30.21 75.63 30.95L75.63 32.78C75.63 33.52 75.72 34.17 75.92 34.7C76.11 35.22 76.38 35.66 76.72 36C77.06 36.33 77.46 36.59 77.94 36.75C78.4 36.91 78.91 37 79.48 37C80.03 37 80.55 36.91 81.01 36.75C81.48 36.59 81.88 36.33 82.22 36C82.57 35.66 82.83 35.22 83.03 34.7ZM91.25 35.93C91.99 35.22 92.36 34.2 92.36 32.86L92.36 30.87C92.36 29.54 91.99 28.51 91.25 27.79C90.52 27.09 89.46 26.74 88.11 26.74C87.86 26.74 87.61 26.74 87.34 26.75C87.07 26.77 86.82 26.78 86.57 26.79C86.32 26.81 86.1 26.83 85.9 26.85C85.69 26.86 85.53 26.89 85.44 26.9C85.32 26.91 85.23 26.96 85.18 27.02C85.11 27.09 85.09 27.18 85.09 27.32L85.09 36.41C85.09 36.55 85.11 36.64 85.18 36.71C85.23 36.78 85.32 36.82 85.44 36.83C85.53 36.85 85.69 36.87 85.9 36.89C86.1 36.9 86.32 36.93 86.57 36.94C86.82 36.95 87.07 36.97 87.34 36.98C87.61 37 87.86 37 88.11 37C89.46 37 90.52 36.64 91.25 35.93ZM109.31 36.67C109.37 36.63 109.4 36.56 109.4 36.47L109.4 35.56C109.4 35.48 109.38 35.41 109.34 35.36C109.3 35.31 109.22 35.28 109.13 35.28L109.1 35.28C108.98 35.29 108.84 35.29 108.68 35.31C108.5 35.32 108.33 35.33 108.14 35.35C107.95 35.36 107.76 35.36 107.56 35.37C107.35 35.39 107.17 35.39 106.99 35.39C106.71 35.39 106.44 35.35 106.21 35.25C105.96 35.17 105.76 35.04 105.58 34.83C105.41 34.63 105.27 34.37 105.18 34.05C105.08 33.72 105.03 33.33 105.03 32.86L105.03 30.87C105.03 30.4 105.08 30 105.18 29.67C105.27 29.35 105.41 29.09 105.58 28.89C105.76 28.7 105.96 28.56 106.21 28.47C106.44 28.39 106.71 28.35 106.99 28.35C107.17 28.35 107.35 28.35 107.56 28.36C107.76 28.37 107.95 28.37 108.14 28.39C108.33 28.4 108.5 28.4 108.68 28.41C108.84 28.43 108.98 28.44 109.1 28.46L109.13 28.46C109.22 28.46 109.3 28.43 109.34 28.37C109.38 28.32 109.4 28.25 109.4 28.17L109.4 27.27C109.4 27.17 109.37 27.09 109.31 27.05C109.26 27.01 109.19 26.98 109.1 26.96C109.04 26.94 108.95 26.93 108.83 26.9C108.69 26.87 108.53 26.85 108.34 26.82C108.15 26.81 107.94 26.78 107.71 26.77C107.48 26.75 107.22 26.74 106.96 26.74C106.56 26.74 106.13 26.79 105.68 26.9C105.23 27.02 104.81 27.23 104.45 27.54C104.07 27.85 103.77 28.27 103.52 28.79C103.27 29.33 103.15 30.02 103.15 30.87L103.15 32.86C103.15 33.7 103.27 34.39 103.52 34.91C103.77 35.44 104.07 35.86 104.45 36.17C104.81 36.48 105.23 36.7 105.68 36.82C106.13 36.94 106.56 37 106.96 37C107.22 37 107.48 36.98 107.71 36.97C107.94 36.95 108.15 36.93 108.34 36.91C108.53 36.89 108.69 36.86 108.83 36.83C108.95 36.82 109.04 36.79 109.1 36.78C109.19 36.75 109.26 36.71 109.31 36.67ZM129.89 34.7C130.08 34.17 130.18 33.52 130.18 32.78L130.18 30.95C130.18 30.21 130.08 29.58 129.89 29.04C129.69 28.51 129.43 28.06 129.08 27.73C128.75 27.39 128.34 27.14 127.87 26.98C127.41 26.82 126.89 26.74 126.34 26.74C125.77 26.74 125.26 26.82 124.8 26.98C124.33 27.14 123.92 27.39 123.58 27.73C123.25 28.06 122.98 28.51 122.79 29.04C122.58 29.58 122.49 30.21 122.49 30.95L122.49 32.78C122.49 33.52 122.58 34.17 122.79 34.7C122.98 35.22 123.25 35.66 123.58 36C123.92 36.33 124.33 36.59 124.8 36.75C125.26 36.91 125.77 37 126.34 37C126.89 37 127.41 36.91 127.87 36.75C128.34 36.59 128.75 36.33 129.08 36C129.43 35.66 129.69 35.22 129.89 34.7ZM101.19 34.98C101.37 34.5 101.46 33.89 101.46 33.17L101.46 27.1C101.46 27.04 101.44 26.97 101.38 26.91C101.33 26.87 101.26 26.85 101.19 26.85L99.85 26.85C99.79 26.85 99.72 26.87 99.67 26.91C99.61 26.97 99.58 27.04 99.58 27.1L99.58 33.18C99.58 33.56 99.56 33.9 99.5 34.18C99.45 34.47 99.36 34.71 99.22 34.9C99.07 35.09 98.88 35.22 98.65 35.32C98.41 35.41 98.11 35.45 97.75 35.45C97.38 35.45 97.07 35.41 96.84 35.32C96.61 35.22 96.42 35.09 96.29 34.9C96.14 34.71 96.04 34.47 95.99 34.18C95.94 33.9 95.91 33.56 95.91 33.18L95.91 27.1C95.91 27.04 95.88 26.97 95.83 26.91C95.77 26.87 95.71 26.85 95.64 26.85L94.3 26.85C94.23 26.85 94.17 26.87 94.11 26.91C94.06 26.97 94.03 27.04 94.03 27.1L94.03 33.17C94.03 33.89 94.13 34.5 94.31 34.98C94.49 35.47 94.75 35.86 95.08 36.16C95.41 36.45 95.8 36.67 96.26 36.79C96.71 36.93 97.21 37 97.75 37C98.29 37 98.79 36.93 99.25 36.79C99.69 36.67 100.09 36.45 100.42 36.16C100.75 35.86 101 35.47 101.19 34.98ZM117.42 28.35C117.48 28.31 117.5 28.24 117.5 28.17L117.5 27.1C117.5 27.04 117.48 26.97 117.42 26.91C117.37 26.87 117.3 26.85 117.23 26.85L110.63 26.85C110.56 26.85 110.49 26.87 110.44 26.91C110.38 26.97 110.35 27.04 110.35 27.1L110.35 28.17C110.35 28.24 110.38 28.31 110.44 28.35C110.49 28.39 110.56 28.41 110.63 28.41L112.99 28.41L112.99 36.62C112.99 36.68 113.02 36.75 113.07 36.81C113.12 36.86 113.19 36.89 113.26 36.89L114.6 36.89C114.67 36.89 114.73 36.86 114.79 36.81C114.84 36.75 114.87 36.68 114.87 36.62L114.87 28.41L117.23 28.41C117.3 28.41 117.37 28.39 117.42 28.35ZM120.65 36.81C120.71 36.75 120.73 36.68 120.73 36.62L120.73 27.1C120.73 27.04 120.71 26.97 120.65 26.91C120.6 26.87 120.53 26.85 120.46 26.85L119.12 26.85C119.06 26.85 118.99 26.87 118.94 26.91C118.88 26.97 118.85 27.04 118.85 27.1L118.85 36.62C118.85 36.68 118.88 36.75 118.94 36.81C118.99 36.86 119.06 36.89 119.12 36.89L120.46 36.89C120.53 36.89 120.6 36.86 120.65 36.81ZM139.39 36.72C139.49 36.63 139.54 36.5 139.54 36.35L139.54 27.1C139.54 26.93 139.46 26.85 139.28 26.85L138.12 26.85C137.95 26.85 137.87 26.93 137.87 27.1L137.87 34.21C137.87 34.29 137.84 34.33 137.8 34.33C137.76 34.33 137.72 34.29 137.69 34.22L134.54 27.28C134.46 27.1 134.38 26.98 134.3 26.93C134.2 26.87 134.1 26.85 133.95 26.85L132.49 26.85C132.34 26.85 132.2 26.9 132.11 27C132 27.1 131.95 27.24 131.95 27.39L131.95 36.62C131.95 36.68 131.97 36.75 132.03 36.81C132.08 36.86 132.15 36.89 132.22 36.89L133.37 36.89C133.43 36.89 133.5 36.86 133.56 36.81C133.6 36.75 133.62 36.68 133.62 36.62L133.62 29.82C133.62 29.75 133.65 29.71 133.69 29.71C133.73 29.71 133.77 29.75 133.81 29.82L136.81 36.4C136.92 36.64 137.04 36.78 137.19 36.82C137.33 36.86 137.47 36.89 137.64 36.89L139 36.89C139.15 36.89 139.28 36.83 139.39 36.72ZM63.49 28.64C63.83 28.87 63.99 29.28 63.99 29.85L63.99 29.97C63.99 30.52 63.84 30.93 63.53 31.2C63.22 31.47 62.7 31.6 61.97 31.6C61.91 31.6 61.83 31.6 61.72 31.59L61.72 31.59C61.6 31.59 61.49 31.59 61.37 31.58L61.37 31.58C61.25 31.58 61.13 31.58 61.02 31.56L60.76 31.56L60.76 28.33C60.83 28.32 60.91 28.32 61.02 28.31L61.02 28.31C61.11 28.31 61.22 28.31 61.34 28.29L61.34 28.29C61.47 28.29 61.57 28.29 61.7 28.28L61.97 28.28C62.64 28.28 63.16 28.4 63.49 28.64ZM90.3 29.63C90.42 29.95 90.48 30.37 90.48 30.87L90.48 32.87C90.48 33.37 90.42 33.79 90.3 34.12C90.18 34.45 90 34.71 89.8 34.9C89.59 35.1 89.33 35.24 89.05 35.31C88.75 35.39 88.44 35.43 88.1 35.43C87.84 35.43 87.63 35.43 87.45 35.41C87.27 35.4 87.11 35.4 86.96 35.39L86.96 28.36C87.11 28.35 87.27 28.35 87.45 28.33C87.63 28.32 87.84 28.32 88.1 28.32L88.1 28.32C88.44 28.32 88.75 28.36 89.05 28.43C89.33 28.51 89.59 28.64 89.8 28.83C90 29.04 90.18 29.29 90.3 29.63ZM71.95 28.68C72.29 28.91 72.45 29.28 72.45 29.79L72.45 29.91C72.45 30.51 72.29 30.91 71.97 31.14C71.64 31.37 71.13 31.48 70.42 31.48C70.37 31.48 70.29 31.48 70.18 31.47L70.18 31.47C70.06 31.47 69.95 31.47 69.83 31.45C69.71 31.45 69.59 31.45 69.48 31.44L69.22 31.44L69.22 28.4C69.29 28.39 69.37 28.39 69.48 28.37L69.48 28.37C69.57 28.37 69.68 28.37 69.8 28.36C69.92 28.36 70.03 28.36 70.15 28.35L70.42 28.35C71.1 28.35 71.61 28.46 71.95 28.68ZM80.95 28.98C81.28 29.4 81.44 30.05 81.44 30.95L81.44 32.78C81.44 33.68 81.28 34.33 80.95 34.74C80.64 35.16 80.14 35.36 79.48 35.36C78.8 35.36 78.3 35.16 77.99 34.74C77.67 34.33 77.51 33.68 77.51 32.78L77.51 30.95C77.51 30.05 77.67 29.4 77.99 28.98C78.3 28.58 78.8 28.37 79.48 28.37C80.14 28.37 80.64 28.58 80.95 28.98ZM127.81 28.98C128.14 29.4 128.3 30.05 128.3 30.95L128.3 32.78C128.3 33.68 128.14 34.33 127.81 34.74C127.5 35.16 127 35.36 126.34 35.36C125.66 35.36 125.16 35.16 124.85 34.74C124.53 34.33 124.37 33.68 124.37 32.78L124.37 30.95C124.37 30.05 124.53 29.4 124.85 28.98C125.16 28.58 125.66 28.37 126.34 28.37C127 28.37 127.5 28.58 127.81 28.98Z" fill="#5C8EE6" fill-opacity="1.000000" fill-rule="evenodd"></path>
    </g>
  </symbol>
  <symbol fill="none" xmlns="http://www.w3.org/2000/svg" xmlns:xlink="http://www.w3.org/1999/xlink" viewBox="0 0 140 44" id="logo-light">
    <desc>Created with Pixso.</desc>
    <defs>
      <clipPath id="clip191_1609">
        <rect id="logo" rx="0.000000" width="139.000000" height="43.000000" transform="translate(0.500000 0.500000)" fill="white" fill-opacity="0"></rect>
      </clipPath>
    </defs>
    <rect id="logo" rx="0.000000" width="139.000000" height="43.000000" transform="translate(0.500000 0.500000)" fill="#FFFFFF" fill-opacity="0"></rect>
    <g clip-path="url(#clip191_1609)">
      <path id="Vector" d="M21.99 4.89C24.28 4.89 26.47 5.34 28.47 6.16L28.47 12.35L28.47 21.81C28.47 25.36 25.59 28.24 22.04 28.24C20.53 28.24 19.15 27.72 18.05 26.85L18.05 32.54C19.29 33 20.64 33.25 22.04 33.25C29.02 33.25 33.51 27.74 33.51 21.05L33.51 3.25C30.16 1.19 26.21 0 21.99 0C9.84 0 0 9.84 0 21.99C0 28.92 3.21 35.11 8.22 39.14L8.22 32.13C6.13 29.3 4.89 25.79 4.89 21.99C4.89 12.54 12.54 4.89 21.99 4.89Z" fill="#FFFFFF" fill-opacity="1.000000" fill-rule="evenodd"></path>
      <path id="Vector" d="M22.06 39.1C19.76 39.1 17.58 38.65 15.58 37.83L15.58 31.64L15.58 22.18C15.58 18.63 18.45 15.75 22 15.75C23.51 15.75 24.9 16.27 26 17.14L26 11.45C24.75 10.99 23.41 10.74 22 10.74C15.02 10.74 10.54 16.25 10.54 22.94L10.54 40.74C13.89 42.8 17.83 44 22.06 44C34.2 44 44.05 34.15 44.05 22C44.05 15.07 40.84 8.88 35.82 4.85L35.82 11.86C37.92 14.69 39.16 18.2 39.16 22C39.16 31.45 31.5 39.1 22.06 39.1Z" fill="#5C8EE6" fill-opacity="1.000000" fill-rule="evenodd"></path>
      <path id="Vector" d="M71.19 22.8C71.26 22.74 71.3 22.65 71.3 22.55L71.3 22.51C71.28 22.49 71.28 22.46 71.28 22.44L67.8 9.16C67.67 8.67 67.48 8.27 67.25 7.99C67.02 7.72 66.76 7.48 66.49 7.33C66.21 7.19 65.92 7.1 65.64 7.06C65.34 7.02 65.09 7 64.86 7C64.62 7 64.37 7.02 64.09 7.06C63.8 7.1 63.52 7.19 63.25 7.33C62.97 7.48 62.7 7.72 62.46 7.99C62.23 8.27 62.04 8.67 61.91 9.16L58.44 22.44L58.44 22.51C58.42 22.53 58.42 22.53 58.42 22.55C58.42 22.65 58.46 22.74 58.52 22.8C58.58 22.87 58.69 22.91 58.8 22.91L61.04 22.91C61.15 22.91 61.23 22.87 61.3 22.8C61.36 22.74 61.42 22.65 61.45 22.55L62.42 18.52L67.29 18.52L68.27 22.55C68.29 22.65 68.35 22.74 68.42 22.8C68.48 22.87 68.57 22.91 68.67 22.91L70.92 22.91C71.02 22.91 71.13 22.87 71.19 22.8ZM101.52 22.8C101.58 22.74 101.62 22.65 101.62 22.55L101.62 22.51C101.6 22.49 101.6 22.46 101.6 22.44L98.13 9.16C98 8.67 97.81 8.27 97.57 7.99C97.34 7.72 97.09 7.48 96.81 7.33C96.54 7.19 96.24 7.1 95.96 7.06C95.67 7.02 95.41 7 95.18 7C94.95 7 94.69 7.02 94.42 7.06C94.12 7.1 93.84 7.19 93.57 7.33C93.29 7.48 93.02 7.72 92.79 7.99C92.55 8.27 92.36 8.67 92.23 9.16L88.76 22.44L88.76 22.51C88.74 22.53 88.74 22.53 88.74 22.55C88.74 22.65 88.78 22.74 88.84 22.8C88.91 22.87 89.01 22.91 89.12 22.91L91.37 22.91C91.47 22.91 91.56 22.87 91.62 22.8C91.68 22.74 91.75 22.65 91.77 22.55L92.74 18.52L97.62 18.52L98.59 22.55C98.61 22.65 98.68 22.74 98.74 22.8C98.8 22.87 98.89 22.91 98.99 22.91L101.24 22.91C101.35 22.91 101.45 22.87 101.52 22.8ZM127.94 22.57C128.02 22.51 128.07 22.4 128.07 22.25L128.07 20.83C128.07 20.7 128.05 20.6 127.98 20.51C127.92 20.43 127.79 20.39 127.64 20.39L127.6 20.39C127.41 20.41 127.2 20.41 126.94 20.43C126.67 20.45 126.39 20.47 126.1 20.49C125.8 20.51 125.5 20.51 125.19 20.54C124.87 20.56 124.57 20.56 124.3 20.56C123.85 20.56 123.43 20.49 123.07 20.35C122.68 20.22 122.37 20.01 122.09 19.69C121.82 19.37 121.6 18.97 121.46 18.46C121.31 17.95 121.22 17.34 121.22 16.59L121.22 13.48C121.22 12.74 121.31 12.1 121.46 11.59C121.6 11.08 121.82 10.68 122.09 10.36C122.37 10.07 122.68 9.86 123.07 9.71C123.43 9.58 123.85 9.52 124.3 9.52C124.57 9.52 124.87 9.52 125.19 9.54C125.5 9.56 125.8 9.56 126.1 9.58C126.39 9.6 126.67 9.6 126.94 9.62C127.2 9.64 127.41 9.67 127.6 9.69L127.64 9.69C127.79 9.69 127.92 9.64 127.98 9.56C128.05 9.47 128.07 9.37 128.07 9.24L128.07 7.82C128.07 7.67 128.02 7.55 127.94 7.48C127.86 7.42 127.75 7.38 127.6 7.33C127.52 7.31 127.37 7.29 127.18 7.25C126.97 7.21 126.71 7.16 126.41 7.12C126.12 7.1 125.78 7.06 125.42 7.04C125.06 7.02 124.66 7 124.25 7C123.62 7 122.94 7.08 122.24 7.25C121.54 7.44 120.88 7.76 120.31 8.25C119.72 8.73 119.25 9.39 118.85 10.22C118.47 11.06 118.28 12.14 118.28 13.48L118.28 16.59C118.28 17.91 118.47 18.99 118.85 19.82C119.25 20.64 119.72 21.3 120.31 21.79C120.88 22.27 121.54 22.61 122.24 22.8C122.94 22.99 123.62 23.08 124.25 23.08C124.66 23.08 125.06 23.06 125.42 23.04C125.78 23.01 126.12 22.97 126.41 22.95C126.71 22.91 126.97 22.87 127.18 22.82C127.37 22.8 127.52 22.76 127.6 22.74C127.75 22.7 127.86 22.63 127.94 22.57ZM139.91 22.65C139.98 22.59 140 22.49 140 22.34L140 20.98C140 20.87 139.95 20.77 139.87 20.68C139.78 20.6 139.68 20.56 139.57 20.56L135.25 20.56C134.64 20.56 134.19 20.43 133.96 20.18C133.7 19.92 133.58 19.43 133.58 18.73L133.58 16L139.32 16C139.42 16 139.53 15.96 139.62 15.87C139.7 15.79 139.74 15.68 139.74 15.58L139.74 14.05C139.74 13.95 139.7 13.84 139.62 13.75C139.53 13.67 139.42 13.63 139.32 13.63L133.58 13.63L133.58 11.34C133.58 10.64 133.7 10.15 133.96 9.9C134.19 9.64 134.64 9.52 135.25 9.52L139.57 9.52C139.68 9.52 139.78 9.47 139.87 9.39C139.95 9.3 140 9.2 140 9.09L140 7.74C140 7.59 139.98 7.48 139.91 7.42C139.85 7.36 139.72 7.31 139.57 7.29C139.4 7.27 139.21 7.23 139.02 7.19C138.81 7.16 138.56 7.12 138.26 7.1C137.94 7.08 137.58 7.04 137.16 7.02C136.71 7 136.18 7 135.55 7L135.55 7C134.85 7 134.21 7.06 133.62 7.16C133.03 7.27 132.5 7.48 132.07 7.8C131.63 8.12 131.27 8.56 131.01 9.14C130.76 9.71 130.63 10.43 130.63 11.34L130.63 18.73C130.63 19.65 130.76 20.37 131.01 20.94C131.27 21.51 131.63 21.93 132.07 22.25C132.5 22.57 133.03 22.8 133.62 22.91C134.21 23.01 134.85 23.08 135.55 23.08L135.55 23.08C136.18 23.08 136.71 23.08 137.16 23.06C137.58 23.04 137.94 22.99 138.26 22.97C138.56 22.95 138.81 22.91 139.02 22.87C139.21 22.85 139.4 22.8 139.57 22.78C139.72 22.76 139.85 22.72 139.91 22.65ZM81.7 22.65C81.77 22.59 81.79 22.49 81.79 22.34L81.79 20.98C81.79 20.87 81.75 20.77 81.66 20.68C81.58 20.6 81.47 20.56 81.36 20.56L77.46 20.56C76.85 20.56 76.41 20.43 76.17 20.18C75.94 19.92 75.81 19.43 75.81 18.73L75.81 7.59C75.81 7.48 75.77 7.38 75.68 7.29C75.6 7.21 75.49 7.16 75.39 7.16L73.29 7.16C73.18 7.16 73.08 7.21 72.99 7.29C72.91 7.38 72.87 7.48 72.87 7.59L72.87 18.73C72.87 19.65 72.99 20.37 73.25 20.94C73.5 21.51 73.84 21.93 74.29 22.25C74.73 22.57 75.24 22.8 75.83 22.91C76.43 23.01 77.06 23.08 77.76 23.08L77.76 23.08C78.04 23.08 78.35 23.08 78.72 23.06C79.08 23.04 79.41 23.01 79.75 22.99C80.09 22.97 80.41 22.93 80.71 22.89C80.98 22.87 81.22 22.82 81.36 22.78C81.51 22.76 81.64 22.72 81.7 22.65ZM86.62 22.78C86.7 22.7 86.75 22.59 86.75 22.49L86.75 7.57C86.75 7.46 86.7 7.36 86.62 7.27C86.53 7.21 86.43 7.16 86.32 7.16L84.22 7.16C84.12 7.16 84.01 7.21 83.93 7.27C83.84 7.36 83.8 7.46 83.8 7.57L83.8 22.49C83.8 22.59 83.84 22.7 83.93 22.78C84.01 22.87 84.12 22.91 84.22 22.91L86.32 22.91C86.43 22.91 86.53 22.87 86.62 22.78ZM115.29 22.65C115.44 22.51 115.52 22.29 115.52 22.06L115.52 7.57C115.52 7.29 115.4 7.16 115.12 7.16L113.3 7.16C113.02 7.16 112.89 7.29 112.89 7.57L112.89 18.71C112.89 18.84 112.85 18.9 112.79 18.9C112.73 18.9 112.66 18.84 112.62 18.73L107.68 7.84C107.56 7.57 107.43 7.38 107.3 7.29C107.15 7.21 106.98 7.16 106.75 7.16L104.46 7.16C104.23 7.16 104.02 7.25 103.87 7.4C103.7 7.57 103.61 7.78 103.61 8.01L103.61 22.49C103.61 22.59 103.66 22.7 103.74 22.78C103.83 22.87 103.93 22.91 104.04 22.91L105.84 22.91C105.94 22.91 106.05 22.87 106.14 22.78C106.2 22.7 106.24 22.59 106.24 22.49L106.24 11.83C106.24 11.72 106.28 11.66 106.35 11.66C106.41 11.66 106.47 11.72 106.54 11.83L111.24 22.15C111.41 22.53 111.6 22.74 111.84 22.8C112.05 22.87 112.28 22.91 112.53 22.91L114.67 22.91C114.91 22.91 115.12 22.82 115.29 22.65ZM95.41 9.54C95.46 9.6 95.5 9.69 95.52 9.81L97.04 16.11L93.31 16.11L94.84 9.81C94.86 9.69 94.9 9.6 94.95 9.54C94.99 9.5 95.07 9.47 95.18 9.47C95.29 9.47 95.37 9.5 95.41 9.54ZM65.09 9.54C65.13 9.6 65.17 9.69 65.2 9.81L66.72 16.11L62.99 16.11L64.52 9.81C64.54 9.69 64.58 9.6 64.62 9.54C64.67 9.5 64.75 9.47 64.86 9.47C64.96 9.47 65.05 9.5 65.09 9.54Z" fill="#292D33" fill-opacity="1.000000" fill-rule="evenodd"></path>
      <path id="Vector" d="M65.56 31.48C65.76 31.08 65.87 30.58 65.87 29.98L65.87 29.86C65.87 29.27 65.76 28.77 65.56 28.36C65.34 27.97 65.06 27.64 64.7 27.4C64.34 27.16 63.93 26.98 63.47 26.89C62.99 26.79 62.49 26.74 61.98 26.74C61.48 26.74 60.99 26.75 60.53 26.78C60.07 26.82 59.67 26.86 59.32 26.91C59.18 26.93 59.07 26.97 59.01 27.02C58.93 27.09 58.89 27.18 58.89 27.32L58.89 36.62C58.89 36.68 58.91 36.75 58.97 36.81C59.02 36.86 59.09 36.89 59.16 36.89L60.51 36.89C60.57 36.89 60.64 36.86 60.7 36.81C60.74 36.75 60.76 36.68 60.76 36.62L60.76 33.09C60.91 33.1 61.11 33.1 61.34 33.12C61.59 33.13 61.79 33.14 61.97 33.14C62.49 33.14 62.99 33.09 63.47 32.98C63.93 32.89 64.34 32.71 64.7 32.45C65.06 32.21 65.34 31.89 65.56 31.48ZM74.48 36.89C74.59 36.89 74.64 36.83 74.64 36.72C74.64 36.68 74.63 36.64 74.61 36.62L72.49 32.67C73.06 32.45 73.51 32.12 73.83 31.67C74.17 31.23 74.33 30.63 74.33 29.91L74.33 29.79C74.33 29.21 74.22 28.73 74.02 28.33C73.8 27.94 73.52 27.63 73.15 27.4C72.8 27.17 72.38 27 71.92 26.89C71.45 26.79 70.95 26.74 70.44 26.74C69.94 26.74 69.45 26.75 68.99 26.78C68.53 26.82 68.13 26.86 67.78 26.91C67.64 26.93 67.53 26.97 67.47 27.02C67.38 27.09 67.34 27.18 67.34 27.32L67.34 36.62C67.34 36.68 67.37 36.75 67.43 36.81C67.48 36.86 67.55 36.89 67.61 36.89L68.97 36.89C69.03 36.89 69.1 36.86 69.15 36.81C69.19 36.75 69.22 36.68 69.22 36.62L69.22 32.97C69.37 32.98 69.57 32.98 69.8 33C70.03 33.01 70.25 33.02 70.42 33.02L70.61 33.02L72.56 36.62C72.6 36.68 72.63 36.75 72.67 36.81C72.71 36.86 72.76 36.89 72.83 36.89L74.48 36.89ZM83.03 34.7C83.22 34.17 83.32 33.52 83.32 32.78L83.32 30.95C83.32 30.21 83.22 29.58 83.03 29.04C82.83 28.51 82.57 28.06 82.22 27.73C81.88 27.39 81.48 27.14 81.01 26.98C80.55 26.82 80.03 26.74 79.48 26.74C78.91 26.74 78.4 26.82 77.94 26.98C77.46 27.14 77.06 27.39 76.72 27.73C76.38 28.06 76.11 28.51 75.92 29.04C75.72 29.58 75.63 30.21 75.63 30.95L75.63 32.78C75.63 33.52 75.72 34.17 75.92 34.7C76.11 35.22 76.38 35.66 76.72 36C77.06 36.33 77.46 36.59 77.94 36.75C78.4 36.91 78.91 37 79.48 37C80.03 37 80.55 36.91 81.01 36.75C81.48 36.59 81.88 36.33 82.22 36C82.57 35.66 82.83 35.22 83.03 34.7ZM91.25 35.93C91.99 35.22 92.36 34.2 92.36 32.86L92.36 30.87C92.36 29.54 91.99 28.51 91.25 27.79C90.52 27.09 89.46 26.74 88.11 26.74C87.86 26.74 87.61 26.74 87.34 26.75C87.07 26.77 86.82 26.78 86.57 26.79C86.32 26.81 86.1 26.83 85.9 26.85C85.69 26.86 85.53 26.89 85.44 26.9C85.32 26.91 85.23 26.96 85.18 27.02C85.11 27.09 85.09 27.18 85.09 27.32L85.09 36.41C85.09 36.55 85.11 36.64 85.18 36.71C85.23 36.78 85.32 36.82 85.44 36.83C85.53 36.85 85.69 36.87 85.9 36.89C86.1 36.9 86.32 36.93 86.57 36.94C86.82 36.95 87.07 36.97 87.34 36.98C87.61 37 87.86 37 88.11 37C89.46 37 90.52 36.64 91.25 35.93ZM109.31 36.67C109.37 36.63 109.4 36.56 109.4 36.47L109.4 35.56C109.4 35.48 109.38 35.41 109.34 35.36C109.3 35.31 109.22 35.28 109.13 35.28L109.1 35.28C108.98 35.29 108.84 35.29 108.68 35.31C108.5 35.32 108.33 35.33 108.14 35.35C107.95 35.36 107.76 35.36 107.56 35.37C107.35 35.39 107.17 35.39 106.99 35.39C106.71 35.39 106.44 35.35 106.21 35.25C105.96 35.17 105.76 35.04 105.58 34.83C105.41 34.63 105.27 34.37 105.18 34.05C105.08 33.72 105.03 33.33 105.03 32.86L105.03 30.87C105.03 30.4 105.08 30 105.18 29.67C105.27 29.35 105.41 29.09 105.58 28.89C105.76 28.7 105.96 28.56 106.21 28.47C106.44 28.39 106.71 28.35 106.99 28.35C107.17 28.35 107.35 28.35 107.56 28.36C107.76 28.37 107.95 28.37 108.14 28.39C108.33 28.4 108.5 28.4 108.68 28.41C108.84 28.43 108.98 28.44 109.1 28.46L109.13 28.46C109.22 28.46 109.3 28.43 109.34 28.37C109.38 28.32 109.4 28.25 109.4 28.17L109.4 27.27C109.4 27.17 109.37 27.09 109.31 27.05C109.26 27.01 109.19 26.98 109.1 26.96C109.04 26.94 108.95 26.93 108.83 26.9C108.69 26.87 108.53 26.85 108.34 26.82C108.15 26.81 107.94 26.78 107.71 26.77C107.48 26.75 107.22 26.74 106.96 26.74C106.56 26.74 106.13 26.79 105.68 26.9C105.23 27.02 104.81 27.23 104.45 27.54C104.07 27.85 103.77 28.27 103.52 28.79C103.27 29.33 103.15 30.02 103.15 30.87L103.15 32.86C103.15 33.7 103.27 34.39 103.52 34.91C103.77 35.44 104.07 35.86 104.45 36.17C104.81 36.48 105.23 36.7 105.68 36.82C106.13 36.94 106.56 37 106.96 37C107.22 37 107.48 36.98 107.71 36.97C107.94 36.95 108.15 36.93 108.34 36.91C108.53 36.89 108.69 36.86 108.83 36.83C108.95 36.82 109.04 36.79 109.1 36.78C109.19 36.75 109.26 36.71 109.31 36.67ZM129.89 34.7C130.08 34.17 130.18 33.52 130.18 32.78L130.18 30.95C130.18 30.21 130.08 29.58 129.89 29.04C129.69 28.51 129.43 28.06 129.08 27.73C128.75 27.39 128.34 27.14 127.87 26.98C127.41 26.82 126.89 26.74 126.34 26.74C125.77 26.74 125.26 26.82 124.8 26.98C124.33 27.14 123.92 27.39 123.58 27.73C123.25 28.06 122.98 28.51 122.79 29.04C122.58 29.58 122.49 30.21 122.49 30.95L122.49 32.78C122.49 33.52 122.58 34.17 122.79 34.7C122.98 35.22 123.25 35.66 123.58 36C123.92 36.33 124.33 36.59 124.8 36.75C125.26 36.91 125.77 37 126.34 37C126.89 37 127.41 36.91 127.87 36.75C128.34 36.59 128.75 36.33 129.08 36C129.43 35.66 129.69 35.22 129.89 34.7ZM101.19 34.98C101.37 34.5 101.46 33.89 101.46 33.17L101.46 27.1C101.46 27.04 101.44 26.97 101.38 26.91C101.33 26.87 101.26 26.85 101.19 26.85L99.85 26.85C99.79 26.85 99.72 26.87 99.67 26.91C99.61 26.97 99.58 27.04 99.58 27.1L99.58 33.18C99.58 33.56 99.56 33.9 99.5 34.18C99.45 34.47 99.36 34.71 99.22 34.9C99.07 35.09 98.88 35.22 98.65 35.32C98.41 35.41 98.11 35.45 97.75 35.45C97.38 35.45 97.07 35.41 96.84 35.32C96.61 35.22 96.42 35.09 96.29 34.9C96.14 34.71 96.04 34.47 95.99 34.18C95.94 33.9 95.91 33.56 95.91 33.18L95.91 27.1C95.91 27.04 95.88 26.97 95.83 26.91C95.77 26.87 95.71 26.85 95.64 26.85L94.3 26.85C94.23 26.85 94.17 26.87 94.11 26.91C94.06 26.97 94.03 27.04 94.03 27.1L94.03 33.17C94.03 33.89 94.13 34.5 94.31 34.98C94.49 35.47 94.75 35.86 95.08 36.16C95.41 36.45 95.8 36.67 96.26 36.79C96.71 36.93 97.21 37 97.75 37C98.29 37 98.79 36.93 99.25 36.79C99.69 36.67 100.09 36.45 100.42 36.16C100.75 35.86 101 35.47 101.19 34.98ZM117.42 28.35C117.48 28.31 117.5 28.24 117.5 28.17L117.5 27.1C117.5 27.04 117.48 26.97 117.42 26.91C117.37 26.87 117.3 26.85 117.23 26.85L110.63 26.85C110.56 26.85 110.49 26.87 110.44 26.91C110.38 26.97 110.35 27.04 110.35 27.1L110.35 28.17C110.35 28.24 110.38 28.31 110.44 28.35C110.49 28.39 110.56 28.41 110.63 28.41L112.99 28.41L112.99 36.62C112.99 36.68 113.02 36.75 113.07 36.81C113.12 36.86 113.19 36.89 113.26 36.89L114.6 36.89C114.67 36.89 114.73 36.86 114.79 36.81C114.84 36.75 114.87 36.68 114.87 36.62L114.87 28.41L117.23 28.41C117.3 28.41 117.37 28.39 117.42 28.35ZM120.65 36.81C120.71 36.75 120.73 36.68 120.73 36.62L120.73 27.1C120.73 27.04 120.71 26.97 120.65 26.91C120.6 26.87 120.53 26.85 120.46 26.85L119.12 26.85C119.06 26.85 118.99 26.87 118.94 26.91C118.88 26.97 118.85 27.04 118.85 27.1L118.85 36.62C118.85 36.68 118.88 36.75 118.94 36.81C118.99 36.86 119.06 36.89 119.12 36.89L120.46 36.89C120.53 36.89 120.6 36.86 120.65 36.81ZM139.39 36.72C139.49 36.63 139.54 36.5 139.54 36.35L139.54 27.1C139.54 26.93 139.46 26.85 139.28 26.85L138.12 26.85C137.95 26.85 137.87 26.93 137.87 27.1L137.87 34.21C137.87 34.29 137.84 34.33 137.8 34.33C137.76 34.33 137.72 34.29 137.69 34.22L134.54 27.28C134.46 27.1 134.38 26.98 134.3 26.93C134.2 26.87 134.1 26.85 133.95 26.85L132.49 26.85C132.34 26.85 132.2 26.9 132.11 27C132 27.1 131.95 27.24 131.95 27.39L131.95 36.62C131.95 36.68 131.97 36.75 132.03 36.81C132.08 36.86 132.15 36.89 132.22 36.89L133.37 36.89C133.43 36.89 133.5 36.86 133.56 36.81C133.6 36.75 133.62 36.68 133.62 36.62L133.62 29.82C133.62 29.75 133.65 29.71 133.69 29.71C133.73 29.71 133.77 29.75 133.81 29.82L136.81 36.4C136.92 36.64 137.04 36.78 137.19 36.82C137.33 36.86 137.47 36.89 137.64 36.89L139 36.89C139.15 36.89 139.28 36.83 139.39 36.72ZM63.49 28.64C63.83 28.87 63.99 29.28 63.99 29.85L63.99 29.97C63.99 30.52 63.84 30.93 63.53 31.2C63.22 31.47 62.7 31.6 61.97 31.6C61.91 31.6 61.83 31.6 61.72 31.59L61.72 31.59C61.6 31.59 61.49 31.59 61.37 31.58L61.37 31.58C61.25 31.58 61.13 31.58 61.02 31.56L60.76 31.56L60.76 28.33C60.83 28.32 60.91 28.32 61.02 28.31L61.02 28.31C61.11 28.31 61.22 28.31 61.34 28.29L61.34 28.29C61.47 28.29 61.57 28.29 61.7 28.28L61.97 28.28C62.64 28.28 63.16 28.4 63.49 28.64ZM90.3 29.63C90.42 29.95 90.48 30.37 90.48 30.87L90.48 32.87C90.48 33.37 90.42 33.79 90.3 34.12C90.18 34.45 90 34.71 89.8 34.9C89.59 35.1 89.33 35.24 89.05 35.31C88.75 35.39 88.44 35.43 88.1 35.43C87.84 35.43 87.63 35.43 87.45 35.41C87.27 35.4 87.11 35.4 86.96 35.39L86.96 28.36C87.11 28.35 87.27 28.35 87.45 28.33C87.63 28.32 87.84 28.32 88.1 28.32L88.1 28.32C88.44 28.32 88.75 28.36 89.05 28.43C89.33 28.51 89.59 28.64 89.8 28.83C90 29.04 90.18 29.29 90.3 29.63ZM71.95 28.68C72.29 28.91 72.45 29.28 72.45 29.79L72.45 29.91C72.45 30.51 72.29 30.91 71.97 31.14C71.64 31.37 71.13 31.48 70.42 31.48C70.37 31.48 70.29 31.48 70.18 31.47L70.18 31.47C70.06 31.47 69.95 31.47 69.83 31.45C69.71 31.45 69.59 31.45 69.48 31.44L69.22 31.44L69.22 28.4C69.29 28.39 69.37 28.39 69.48 28.37L69.48 28.37C69.57 28.37 69.68 28.37 69.8 28.36C69.92 28.36 70.03 28.36 70.15 28.35L70.42 28.35C71.1 28.35 71.61 28.46 71.95 28.68ZM80.95 28.98C81.28 29.4 81.44 30.05 81.44 30.95L81.44 32.78C81.44 33.68 81.28 34.33 80.95 34.74C80.64 35.16 80.14 35.36 79.48 35.36C78.8 35.36 78.3 35.16 77.99 34.74C77.67 34.33 77.51 33.68 77.51 32.78L77.51 30.95C77.51 30.05 77.67 29.4 77.99 28.98C78.3 28.58 78.8 28.37 79.48 28.37C80.14 28.37 80.64 28.58 80.95 28.98ZM127.81 28.98C128.14 29.4 128.3 30.05 128.3 30.95L128.3 32.78C128.3 33.68 128.14 34.33 127.81 34.74C127.5 35.16 127 35.36 126.34 35.36C125.66 35.36 125.16 35.16 124.85 34.74C124.53 34.33 124.37 33.68 124.37 32.78L124.37 30.95C124.37 30.05 124.53 29.4 124.85 28.98C125.16 28.58 125.66 28.37 126.34 28.37C127 28.37 127.5 28.58 127.81 28.98Z" fill="#5C8EE6" fill-opacity="1.000000" fill-rule="evenodd"></path>
    </g>
  </symbol>
  <symbol  xmlns="http://www.w3.org/2000/svg" xmlns:xlink="http://www.w3.org/1999/xlink" viewBox="0 0 24 24" id="phone">
    <desc>Created with Pixso.</desc>
    <defs></defs>
    <rect id="phone" rx="0.000000" width="23.000000" height="23.000000" transform="translate(0.500000 0.500000)" fill="#FFFFFF" fill-opacity="0"></rect>
    <path id="Vector" d="M19.96 16.08L19.21 19.23C19.12 19.7 18.75 20.01 18.28 20.01C10.4 19.98 4 13.58 4 5.7C4 5.23 4.28 4.86 4.75 4.76L7.9 4.01C8.34 3.92 8.81 4.17 9 4.58L10.46 7.98C10.62 8.39 10.53 8.86 10.18 9.11L8.5 10.48C9.56 12.64 11.31 14.39 13.5 15.45L14.87 13.76C15.12 13.45 15.59 13.33 16 13.48L19.4 14.95C19.81 15.17 20.06 15.64 19.96 16.08Z" fill-opacity="1.000000" fill-rule="evenodd"></path>
  </symbol>
  <symbol fill="none" xmlns="http://www.w3.org/2000/svg" xmlns:xlink="http://www.w3.org/1999/xlink" viewBox="0 0 36 36" id="sertificate">
    <desc>Created with Pixso.</desc>
    <defs></defs>
    <rect id="Frame 34" rx="0.000000" width="35.000000" height="35.000000" transform="translate(0.500000 0.500000)" fill="#FFFFFF" fill-opacity="0"></rect>
    <path id="Vector" d="M27.22 9.35L22.68 4.82C22.19 4.32 21.47 4 20.82 4L9.66 4C8.19 4.05 7.04 5.2 7.04 6.67L7.04 13.07C6.71 13.07 6.38 13.02 5.67 12.8C5.62 12.8 5.51 12.8 5.4 12.8C5.12 12.8 4.85 12.91 4.69 13.07C3.7 14.11 3.76 14.06 2.39 14.44C2.01 14.55 1.73 14.82 1.62 15.21C1.29 16.57 1.29 16.52 0.31 17.5C0.04 17.78 -0.07 18.21 0.04 18.6C0.42 19.91 0.42 19.91 0.04 21.22C-0.07 21.6 0.04 22.04 0.31 22.32C1.29 23.3 1.29 23.3 1.62 24.61C1.73 25 2.01 25.27 2.39 25.38C2.5 25.43 2.55 25.43 2.66 25.43L2.66 31.12C2.66 31.45 2.77 31.72 3.04 31.89C3.32 32.05 3.65 32.05 3.92 31.94L7.04 30.35L10.1 31.94C10.26 32 10.37 32 10.54 32L25.41 32C26.83 32 28.04 30.85 28.04 29.42L28.04 11.21C28.04 10.56 27.71 9.85 27.22 9.35ZM21.04 5.8C21.15 5.85 21.31 5.91 21.42 6.02L26.01 10.61C26.12 10.72 26.18 10.89 26.23 11.05L21.04 11.05L21.04 5.8ZM1.84 21.33C2.12 20.13 2.12 19.69 1.84 18.49C2.66 17.61 2.88 17.23 3.21 16.03C4.41 15.7 4.74 15.48 5.62 14.6C6.16 14.77 6.54 14.82 7.04 14.82C7.47 14.82 7.86 14.77 8.4 14.6C9.22 15.48 9.61 15.7 10.81 16.03C11.14 17.23 11.3 17.56 12.18 18.49C11.85 19.69 11.85 20.13 12.18 21.33C11.36 22.21 11.14 22.59 10.81 23.79C9.99 24.01 9.5 24.17 8.73 24.83C8.19 24.61 7.64 24.5 7.04 24.5C6.38 24.5 5.83 24.61 5.29 24.89C4.52 24.23 4.03 24.01 3.21 23.79C2.88 22.59 2.72 22.26 1.84 21.33ZM7.42 28.6C7.15 28.5 6.87 28.5 6.6 28.6L4.41 29.75L4.41 26.42C4.41 26.47 4.41 26.47 4.41 26.47C4.63 26.69 4.9 26.75 5.12 26.75C5.34 26.75 5.51 26.69 5.72 26.64C6.11 26.36 6.54 26.25 7.04 26.25C7.47 26.25 7.91 26.36 8.29 26.58C8.51 26.75 8.68 26.75 8.9 26.75C9.17 26.75 9.39 26.69 9.61 26.47C9.61 26.47 9.61 26.47 9.66 26.42L9.66 29.75L7.42 28.6ZM26.29 29.42C26.29 29.86 25.85 30.3 25.41 30.3L11.41 30.3L11.41 25.43C11.47 25.43 11.52 25.43 11.63 25.38C12.01 25.27 12.29 25 12.4 24.61C12.72 23.25 12.72 23.3 13.71 22.32C13.98 22.04 14.09 21.6 13.98 21.22C13.6 19.91 13.6 19.91 13.98 18.6C14.09 18.21 13.98 17.78 13.71 17.5C12.72 16.52 12.72 16.52 12.4 15.21C12.29 14.82 12.01 14.55 11.63 14.44C10.32 14.06 10.32 14.11 9.33 13.07C9.17 12.91 8.95 12.85 8.79 12.8L8.79 6.67C8.79 6.18 9.17 5.75 9.66 5.75L19.29 5.75L19.29 11.49C19.29 12.2 19.83 12.75 20.6 12.75L26.29 12.75L26.29 29.42Z" fill="#5C8EE6" fill-opacity="1.000000" fill-rule="evenodd"></path>
  </symbol>
  <symbol fill="none" xmlns="http://www.w3.org/2000/svg" xmlns:xlink="http://www.w3.org/1999/xlink" viewBox="0 0 36 36" id="speed">
    <desc>Created with Pixso.</desc>
    <defs></defs>
    <rect id="Frame 37" rx="0.000000" width="35.000000" height="35.000000" transform="translate(0.500000 0.500000)" fill="#FFFFFF" fill-opacity="0"></rect>
    <path id="Vector" d="M11.62 13.87C10.64 13.87 9.87 14.69 9.87 15.62C9.87 16.6 10.64 17.37 11.62 17.37C12.55 17.37 13.37 16.6 13.37 15.62C13.37 14.69 12.55 13.87 11.62 13.87ZM17.75 6C9.05 6 2 13.05 2 21.75C2 24.64 2.76 27.38 4.13 29.67C4.4 30.22 5 30.55 5.6 30.55L29.83 30.55C30.43 30.55 31.03 30.22 31.36 29.67C32.67 27.38 33.5 24.64 33.5 21.75C33.5 13.05 26.44 6 17.75 6ZM17.75 27.87C16.49 27.87 15.56 26.94 15.56 25.68C15.56 24.48 16.49 23.5 17.75 23.5C18.95 23.5 19.93 24.48 19.93 25.68C19.93 26.94 18.95 27.87 17.75 27.87ZM29.34 27.87L22.01 27.87C22.34 27.21 22.56 26.5 22.56 25.68C22.56 25.35 22.5 25.03 22.39 24.7L27.42 22.57C28.08 22.24 28.41 21.47 28.14 20.82C27.81 20.16 27.04 19.83 26.39 20.1L21.19 22.35C20.32 21.47 19.06 20.87 17.75 20.87C15.07 20.87 12.93 23.06 12.93 25.68C12.93 26.5 13.1 27.21 13.48 27.87L6.1 27.87C5.11 26.01 4.62 23.93 4.62 21.75C4.62 14.53 10.47 8.62 17.75 8.62C24.96 8.62 30.87 14.53 30.87 21.75C30.87 23.93 30.32 26.01 29.34 27.87ZM9 20C8.01 20 7.25 20.82 7.25 21.75C7.25 22.73 8.01 23.5 9 23.5C9.92 23.5 10.75 22.73 10.75 21.75C10.75 20.82 9.92 20 9 20ZM17.75 11.25C16.76 11.25 16 12.07 16 13C16 13.98 16.76 14.75 17.75 14.75C18.67 14.75 19.5 13.98 19.5 13C19.5 12.07 18.67 11.25 17.75 11.25ZM23.87 13.87C22.89 13.87 22.12 14.69 22.12 15.62C22.12 16.6 22.89 17.37 23.87 17.37C24.8 17.37 25.62 16.6 25.62 15.62C25.62 14.69 24.8 13.87 23.87 13.87Z" fill="#5C8EE6" fill-opacity="1.000000" fill-rule="nonzero"></path>
  </symbol>
  <symbol fill="none" xmlns="http://www.w3.org/2000/svg" xmlns:xlink="http://www.w3.org/1999/xlink" viewBox="0 0 36 36" id="time">
    <desc>Created with Pixso.</desc>
    <defs></defs>
    <rect id="Frame 36" rx="0.000000" width="35.000000" height="35.000000" transform="translate(0.500000 0.500000)" fill="#FFFFFF" fill-opacity="0"></rect>
    <path id="Vector" d="M20.12 5.75L20.34 5.75C20.67 5.75 21 5.47 21 5.09L21 4.65C21 4.32 20.67 4 20.34 4L0.65 4C0.27 4 0 4.32 0 4.65L0 5.09C0 5.47 0.27 5.75 0.65 5.75L0.87 5.75C0.87 10.78 3.28 16.35 7.92 18C3.22 19.69 0.87 25.27 0.87 30.25L0.65 30.25C0.27 30.25 0 30.57 0 30.9L0 31.34C0 31.72 0.27 32 0.65 32L20.34 32C20.67 32 21 31.72 21 31.34L21 30.9C21 30.57 20.67 30.25 20.34 30.25L20.12 30.25C20.12 25.27 17.66 19.69 13.01 18C17.71 16.35 20.12 10.78 20.12 5.75ZM2.62 5.75L18.37 5.75C18.37 11.82 14.82 16.68 10.5 16.68C6.12 16.68 2.62 11.82 2.62 5.75ZM18.37 30.25L2.62 30.25C2.62 24.23 6.12 19.31 10.5 19.31C14.82 19.31 18.37 24.23 18.37 30.25ZM14.71 12.03C15.03 11.65 14.71 11 14.16 11L6.78 11C6.23 11 5.9 11.65 6.23 12.03C6.34 12.2 6.45 12.36 6.61 12.53C6.72 12.69 6.89 12.75 7.1 12.75L13.83 12.75C14.05 12.75 14.21 12.69 14.32 12.53C14.49 12.36 14.6 12.2 14.71 12.03ZM5.35 26.75C5.03 26.75 4.81 26.96 4.7 27.24C4.7 27.4 4.64 27.57 4.59 27.73C4.53 28.11 4.81 28.5 5.25 28.5L15.69 28.5C16.13 28.5 16.4 28.11 16.35 27.73C16.29 27.57 16.24 27.4 16.24 27.24C16.13 26.96 15.91 26.75 15.58 26.75L5.35 26.75Z" fill="#5C8EE6" fill-opacity="1.000000" fill-rule="nonzero"></path>
  </symbol>
    <symbol viewBox="0 0 36 24" fill="none" xmlns="http://www.w3.org/2000/svg" xmlns:xlink="http://www.w3.org/1999/xlink" id="arrow-next">
    <desc>
        Created with Pixso.
    </desc>
    <defs/>
    <rect id="arrow-next" rx="0.000000" width="35.000000" height="23.000000" transform="matrix(-1 5.34378e-24 5.34378e-24 1 36.5 0.5)" fill="#FFFFFF" fill-opacity="0"/>
    <path id="Vector" d="M25.83 4.68L25.13 5.39L31.58 11.84L3 11.84L3 12.84L31.57 12.84L25.13 19.29L25.83 20L32.99 12.84L33 12.84L33 12.83L33.49 12.34L25.83 4.68Z" fill="#FFFFFF" fill-opacity="1.000000" fill-rule="evenodd"/>
  </symbol>
  <symbol viewBox="0 0 36 24" fill="none" xmlns="http://www.w3.org/2000/svg" xmlns:xlink="http://www.w3.org/1999/xlink" id="arrow-prew">
    <desc>
        Created with Pixso.
    </desc>
    <defs/>
    <rect id="arrow-prew" rx="0.000000" width="35.000000" height="23.000000" transform="translate(0.500000 0.500000)" fill="#FFFFFF" fill-opacity="0"/>
    <path id="Vector" d="M10.16 4.68L10.86 5.39L4.41 11.84L33 11.84L32.99 12.84L4.42 12.84L10.86 19.29L10.16 20L3 12.84L2.99 12.84L2.99 12.83L2.5 12.34L10.16 4.68Z" fill="#FFFFFF" fill-opacity="1.000000" fill-rule="evenodd"/>
  </symbol>
  <symbol  viewBox="0 0 180 180" xmlns="http://www.w3.org/2000/svg" xmlns:xlink="http://www.w3.org/1999/xlink" id="AGTECH">
    <desc>
        Created with Pixso.
    </desc>
    <defs>
      <clipPath id="clip305_3741">
        <rect id="AGTECH" rx="0.000000" width="179.000000" height="179.000000" transform="translate(0.500000 0.500000)" fill-opacity="0"/>
      </clipPath>
    </defs>
    <rect id="AGTECH" rx="0.000000" width="179.000000" height="179.000000" transform="translate(0.500000 0.500000)" fill-opacity="0"/>
    <g clip-path="url(#clip305_3741)">
      <path id="Vector" d="M118.02 56.41L104.45 56.41L101 50.87L94.32 40.52L78.48 65.12L71.19 76.55L65.25 85.83L57.95 97.2L51.95 106.47L44.66 117.9L31.14 117.9L38.44 106.47L44.37 97.2L51.67 85.83L57.61 76.55L87.53 30L101.11 30L107.73 40.35L114.52 50.87L118.02 56.41ZM157.51 117.9L57.22 117.9L65.3 106.47L71.24 97.2L78.54 85.83L84.54 76.55L91.83 65.12L123.68 65.12L130.98 76.55L98.06 76.55L92.12 85.83L84.82 97.2L78.88 106.47L136.63 106.47L130.69 97.2L96.58 97.2L104.17 85.83L136.92 85.83L144.27 97.2L150.21 106.47L157.51 117.9ZM39.85 150.08L38.21 147.14L29.22 147.14L31.42 143.01L36.06 143.01L32.78 136.85L25.71 150.08L20 150.08L29.84 132.27C30.35 131.3 31.14 130.85 32.16 130.85L33.34 130.85C34.31 130.85 35.1 131.3 35.61 132.27L45.45 150.08L39.85 150.08ZM54.9 150.08C53.43 150.08 52.07 149.86 50.82 149.41C49.58 148.95 48.5 148.27 47.6 147.42C46.69 146.63 45.96 145.62 45.45 144.43C44.94 143.24 44.71 141.94 44.71 140.47C44.71 139.05 44.94 137.7 45.45 136.57C45.96 135.38 46.69 134.36 47.6 133.51C48.5 132.66 49.58 131.98 50.82 131.53C52.07 131.08 53.43 130.85 54.9 130.85L65.19 130.85L65.19 135.77L54.56 135.77C53.88 135.77 53.26 135.89 52.69 136.11C52.07 136.34 51.62 136.68 51.16 137.07C50.77 137.53 50.43 137.98 50.2 138.6C49.97 139.17 49.86 139.79 49.86 140.47C49.86 141.15 49.97 141.77 50.2 142.39C50.43 142.96 50.77 143.41 51.16 143.81C51.62 144.26 52.07 144.54 52.69 144.77C53.26 144.99 53.88 145.11 54.56 145.11L60.27 145.11L60.27 142.5L54.05 142.5L54.05 138.38L65.19 138.38L65.19 150.08L54.9 150.08ZM82.5 150.08L82.5 135.77L75.37 135.77L75.37 130.85L94.72 130.85L94.72 135.77L87.65 135.77L87.65 150.08L82.5 150.08ZM96.98 150.08L96.98 130.85L115.42 130.85L115.42 135.77L102.13 135.77L102.13 145.11L115.48 145.11L115.48 150.08L96.98 150.08ZM128.09 150.08C126.57 150.08 125.21 149.86 123.96 149.41C122.72 148.95 121.64 148.27 120.8 147.42C119.89 146.63 119.16 145.62 118.65 144.43C118.14 143.24 117.85 141.94 117.85 140.47C117.85 139.05 118.14 137.7 118.65 136.57C119.16 135.38 119.89 134.36 120.8 133.51C121.64 132.66 122.72 131.98 123.96 131.53C125.21 131.08 126.57 130.85 128.09 130.85L137.48 130.85L137.48 135.77L127.7 135.77C127.02 135.77 126.4 135.89 125.83 136.11C125.26 136.34 124.76 136.68 124.36 137.07C123.96 137.53 123.62 137.98 123.4 138.6C123.17 139.17 123.06 139.79 123.06 140.47C123.06 141.15 123.17 141.77 123.4 142.39C123.62 142.96 123.96 143.41 124.36 143.81C124.76 144.26 125.26 144.54 125.83 144.77C126.4 144.99 127.02 145.11 127.7 145.11L137.48 145.11L137.48 150.08L128.09 150.08ZM140.37 150.08L140.37 130.85L145.57 130.85L145.57 150.08L140.37 150.08ZM154.85 150.08L154.85 142.62L147.32 142.62L147.32 137.92L154.85 137.92L154.85 130.85L160 130.85L160 150.08L154.85 150.08ZM103.88 142.5L103.88 138.38L115.25 138.38L115.25 142.5L103.88 142.5Z" fill-opacity="1.000000" fill-rule="evenodd"/>
    </g>
  </symbol>
  <symbol  viewBox="0 0 180 180" xmlns="http://www.w3.org/2000/svg" xmlns:xlink="http://www.w3.org/1999/xlink" id="AP">
    <desc>
        Created with Pixso.
    </desc>
    <defs>
      <clipPath id="clip40_1319">
        <rect id="AP" rx="0.000000" width="179.000000" height="179.000000" transform="translate(0.500000 0.500000)" fill-opacity="0"/>
      </clipPath>
    </defs>
    <rect id="AP" rx="0.000000" width="179.000000" height="179.000000" transform="translate(0.500000 0.500000)" fill-opacity="0"/>
    <g clip-path="url(#clip40_1319)">
      <path id="Vector" d="M103.01 32.43C98.98 30.78 94.57 29.87 89.94 29.87C70.89 29.87 55.44 45.31 55.44 64.37C55.44 72.03 57.94 79.11 62.16 
      84.84L62.16 98.98C52.04 90.84 45.57 78.36 45.57 64.37C45.57 39.86 65.43 20 89.94 20C98.46 20 106.42 22.4 113.18 
      26.57L113.18 62.49C113.18 75.97 104.13 87.09 90.05 87.09C87.21 87.09 84.5 86.58 81.99 85.65L81.99 74.17C84.21 
      75.92 87 76.97 90.05 76.97C97.21 76.97 103.01 71.17 103.01 64.01L103.01 32.43ZM77.01 96.33C81.04 97.98 85.45 
      98.89 90.08 98.89C109.13 98.89 124.57 83.45 124.57 64.4C124.57 56.73 122.07 49.65 117.84 43.93L117.84 29.79C127.97 
      37.92 134.45 50.4 134.45 64.4C134.45 88.9 114.59 108.77 90.08 108.77C81.56 108.77 73.6 106.36 66.83 102.2L66.83 
      66.28C66.83 52.78 75.89 41.67 89.97 41.67C92.8 41.67 95.52 42.18 98.03 43.12L98.03 54.6C95.81 52.83 93.02 51.78 
      89.97 51.78C82.81 51.78 77.01 57.59 77.01 64.74L77.01 96.33ZM55.11 141.92C55.11 142.07 55.06 142.17 54.97 
      142.25C54.89 142.34 54.77 142.38 54.63 142.38L51.82 142.38C51.7 142.38 51.59 142.33 51.51 142.24C51.42 142.16 
      51.35 142.05 51.32 141.92L50.1 136.89L44.01 136.89L42.78 141.92C42.75 142.05 42.69 142.16 42.6 142.24C42.51 
      142.33 42.41 142.38 42.28 142.38L39.48 142.38C39.33 142.38 39.22 142.34 39.13 142.25C39.04 142.17 39 142.07 39 
      141.92C39 141.91 39 141.89 39 141.88C39.01 141.86 39.02 141.83 39.02 141.79L43.37 125.17C43.52 124.56 43.76 
      124.08 44.05 123.72C44.35 123.37 44.68 123.1 45.03 122.91C45.37 122.73 45.72 122.61 46.09 122.55C46.45 122.5 46.77 
      122.48 47.05 122.48C47.33 122.48 47.66 122.5 48.02 122.55C48.38 122.61 48.74 122.73 49.08 122.91C49.42 123.1 49.74 
      123.37 50.05 123.72C50.35 124.08 50.58 124.56 50.73 125.17L55.08 141.79C55.08 141.83 55.09 141.86 55.09 
      141.88C55.1 141.89 55.11 141.91 55.11 141.92ZM93.03 141.92C93.03 142.07 92.99 142.17 92.9 142.25C92.81 142.34 
      92.7 142.38 92.55 142.38L89.74 142.38C89.62 142.38 89.52 142.33 89.43 142.24C89.33 142.16 89.28 142.05 89.24 
      141.92L88.02 136.89L81.92 136.89L80.71 141.92C80.67 142.05 80.61 142.16 80.52 142.24C80.43 142.33 80.32 142.38 
      80.21 142.38L77.39 142.38C77.26 142.38 77.14 142.34 77.05 142.25C76.96 142.17 76.92 142.07 76.92 141.92C76.92 
      141.91 76.92 141.89 76.93 141.88C76.94 141.86 76.94 141.83 76.94 141.79L81.29 125.17C81.45 124.56 81.68 124.08 
      81.98 123.72C82.28 123.37 82.6 123.1 82.94 122.91C83.29 122.73 83.65 122.61 84 122.55C84.37 122.5 84.69 122.48 
      84.98 122.48C85.26 122.48 85.58 122.5 85.94 122.55C86.31 122.61 86.65 122.73 87 122.91C87.35 123.1 87.67 
      123.37 87.97 123.72C88.26 124.08 88.5 124.56 88.66 125.17L93.01 141.79C93.01 141.83 93.01 141.86 93.02 
      141.88C93.03 141.89 93.03 141.91 93.03 141.92ZM126.1 141.56C126.1 141.75 126.04 141.89 125.94 141.96C125.83 142.05 
      125.7 142.11 125.51 142.17C125.41 142.2 125.24 142.24 124.98 142.28C124.71 142.33 124.41 142.37 124.03 
      142.42C123.66 142.46 123.25 142.5 122.79 142.53C122.33 142.57 121.84 142.59 121.33 142.59C120.54 142.59 119.69 
      142.47 118.82 142.24C117.93 142.01 117.13 141.6 116.4 140.99C115.66 140.37 115.07 139.55 114.59 138.5C114.1 137.46 
      113.86 136.12 113.86 134.48L113.86 130.58C113.86 128.92 114.1 127.56 114.59 126.51C115.07 125.46 115.66 124.63 
      116.4 124.04C117.13 123.44 117.93 123.02 118.82 122.8C119.69 122.58 120.54 122.48 121.33 122.48C121.84 122.48 
      122.33 122.49 122.79 122.52C123.25 122.56 123.66 122.6 124.03 122.65C124.41 122.69 124.71 122.74 124.98 
      122.79C125.24 122.84 125.41 122.88 125.51 122.9C125.7 122.95 125.83 123.02 125.94 123.1C126.04 123.18 126.1 
      123.31 126.1 123.51L126.1 125.28C126.1 125.44 126.06 125.58 125.99 125.68C125.9 125.79 125.77 125.84 125.57 
      125.84L125.51 125.84C125.29 125.82 125.01 125.8 124.69 125.77C124.36 125.75 124.01 125.72 123.64 125.7C123.27 
      125.69 122.88 125.67 122.5 125.66C122.11 125.64 121.74 125.63 121.38 125.63C120.82 125.63 120.3 125.71 119.84 
      125.88C119.37 126.05 118.96 126.32 118.63 126.71C118.3 127.08 118.03 127.59 117.83 128.23C117.64 128.87 117.54 
      129.64 117.54 130.58L117.54 134.48C117.54 135.4 117.64 136.17 117.83 136.81C118.03 137.44 118.3 137.96 118.63 
      138.35C118.96 138.73 119.37 139.01 119.84 139.19C120.3 139.35 120.82 139.44 121.38 139.44C121.74 139.44 122.11 
      139.43 122.5 139.41C122.88 139.39 123.27 139.37 123.64 139.35C124.01 139.34 124.36 139.31 124.69 139.29C125.01 
      139.26 125.29 139.25 125.51 139.23L125.57 139.23C125.77 139.23 125.9 139.27 125.99 139.38C126.06 139.49 126.1 
      139.62 126.1 139.78L126.1 141.56ZM141.02 141.66C141.02 141.86 140.98 141.99 140.91 142.06C140.82 142.13 140.68 
      142.18 140.49 142.21C140.28 142.25 140.05 142.29 139.79 142.34C139.53 142.38 139.21 142.42 138.83 142.45C138.46 
      142.49 138 142.52 137.46 142.55C136.92 142.58 136.25 142.59 135.45 142.59C134.59 142.59 133.78 142.52 133.04 
      142.38C132.3 142.23 131.64 141.96 131.1 141.57C130.55 141.17 130.11 140.61 129.79 139.91C129.47 139.21 129.31 
      138.29 129.31 137.15L129.31 127.91C129.31 126.77 129.47 125.86 129.79 125.15C130.11 124.44 130.55 123.89 131.1 
      123.5C131.64 123.1 132.3 122.83 133.04 122.69C133.78 122.54 134.59 122.48 135.45 122.48C136.25 122.48 136.92 
      122.48 137.46 122.51C138 122.54 138.46 122.57 138.83 122.61C139.21 122.64 139.53 122.69 139.79 122.73C140.05 
      122.77 140.28 122.81 140.49 122.84C140.68 122.88 140.82 122.94 140.91 123.01C140.98 123.07 141.02 123.21 141.02 
      123.4L141.02 125.1C141.02 125.24 140.96 125.37 140.86 125.47C140.75 125.58 140.64 125.63 140.49 125.63L135.09 
      125.63C134.3 125.63 133.76 125.79 133.46 126.11C133.15 126.43 132.99 127.02 132.99 127.91L132.99 130.77L140.17 
      130.77C140.32 130.77 140.43 130.82 140.54 130.93C140.65 131.03 140.7 131.16 140.7 131.3L140.7 133.21C140.7 133.35 
      140.65 133.47 140.54 133.58C140.43 133.68 140.32 133.74 140.17 133.74L132.99 133.74L132.99 137.15C132.99 138.04 
      133.15 138.64 133.46 138.96C133.76 139.27 134.3 139.44 135.09 139.44L140.49 139.44C140.64 139.44 140.75 139.49 
      140.86 139.59C140.96 139.7 141.02 139.82 141.02 139.97L141.02 141.66ZM68.23 141.66C68.23 141.86 68.19 141.99 
      68.11 142.06C68.02 142.13 67.89 142.18 67.7 142.21C67.5 142.27 67.22 142.32 66.86 142.36C66.5 142.41 66.11 142.44 
      65.68 142.48C65.26 142.52 64.82 142.54 64.38 142.56C63.94 142.58 63.54 142.59 63.19 142.59C62.33 142.59 61.52 
      142.52 60.78 142.38C60.03 142.23 59.39 141.96 58.85 141.57C58.3 141.17 57.87 140.61 57.55 139.91C57.23 139.21 
      57.07 138.29 57.07 137.15L57.07 123.22C57.07 123.07 57.12 122.95 57.23 122.84C57.34 122.74 57.46 122.69 57.6 
      122.69L60.22 122.69C60.36 122.69 60.49 122.74 60.59 122.84C60.7 122.95 60.76 123.07 60.76 123.22L60.76 
      137.15C60.76 138.04 60.9 138.64 61.2 138.96C61.5 139.27 62.04 139.44 62.82 139.44L67.7 139.44C67.84 139.44 
      67.96 139.49 68.06 139.59C68.17 139.7 68.23 139.82 68.23 139.97L68.23 141.66ZM74.42 141.85C74.42 141.99 74.38 
      142.11 74.27 142.21C74.16 142.32 74.04 142.38 73.89 142.38L71.27 142.38C71.13 142.38 71.01 142.32 70.91 
      142.21C70.8 142.11 70.74 141.99 70.74 141.85L70.74 123.19C70.74 123.05 70.8 122.93 70.91 122.83C71.01 122.74 
      71.13 122.69 71.27 122.69L73.89 122.69C74.04 122.69 74.16 122.74 74.27 122.83C74.38 122.93 74.42 123.05 74.42 
      123.19L74.42 141.85ZM110.41 141.32C110.41 141.62 110.32 141.87 110.11 142.07C109.9 142.27 109.65 142.38 109.35 142.38L106.67 142.38C106.36 142.38 106.07 142.34 105.79 142.25C105.52 142.17 105.28 141.89 105.06 141.42L99.17 128.52C99.11 128.37 99.03 128.31 98.94 128.31C98.85 128.31 98.81 128.37 98.81 128.52L98.81 141.85C98.81 141.99 98.76 142.11 98.66 142.21C98.57 142.32 98.44 142.38 98.31 142.38L96.05 142.38C95.91 142.38 95.78 142.32 95.68 142.21C95.57 142.11 95.52 141.99 95.52 141.85L95.52 123.75C95.52 123.45 95.62 123.2 95.83 123C96.03 122.79 96.28 122.69 96.58 122.69L99.44 122.69C99.72 122.69 99.95 122.74 100.12 122.84C100.28 122.95 100.45 123.18 100.61 123.54L106.78 137.15C106.84 137.3 106.9 137.37 106.99 137.37C107.09 137.37 107.13 137.29 107.13 137.12L107.13 123.19C107.13 122.85 107.3 122.69 107.63 122.69L109.91 122.69C110.25 122.69 110.41 122.85 110.41 123.19L110.41 141.32ZM47.48 126C47.44 125.84 47.4 125.73 47.34 125.67C47.29 125.61 47.2 125.58 47.05 125.58C46.91 125.58 46.81 125.61 46.76 125.67C46.71 125.73 46.67 125.84 46.63 126L44.72 133.87L49.38 133.87L47.48 126ZM85.4 126C85.36 125.84 85.31 125.73 85.27 125.67C85.21 125.61 85.11 125.58 84.98 125.58C84.83 125.58 84.74 125.61 84.68 125.67C84.63 125.73 84.58 125.84 84.55 126L82.65 133.87L87.31 133.87L85.4 126ZM48.85 151.22C48.85 151.97 48.71 152.59 48.45 153.09C48.18 153.61 47.82 154.01 47.38 154.33C46.93 154.64 46.42 154.85 45.83 154.98C45.24 155.11 44.62 155.18 43.97 155.18C43.74 155.18 43.48 155.17 43.19 155.15C42.89 155.14 42.65 155.12 42.46 155.11L42.46 159.52C42.46 159.61 42.43 159.69 42.37 159.75C42.3 159.82 42.22 159.86 42.14 159.86L40.45 159.86C40.35 159.86 40.28 159.82 40.21 159.75C40.14 159.69 40.1 159.61 40.1 159.52L40.1 147.89C40.1 147.73 40.15 147.6 40.25 147.53C40.34 147.46 40.48 147.41 40.65 147.39C41.09 147.32 41.6 147.26 42.18 147.23C42.75 147.19 43.35 147.17 43.97 147.17C44.62 147.17 45.24 147.23 45.83 147.35C46.42 147.48 46.94 147.69 47.38 148C47.82 148.3 48.18 148.7 48.45 149.2C48.71 149.7 48.85 150.33 48.85 151.07L48.85 151.22ZM59.81 159.66C59.81 159.79 59.75 159.86 59.61 159.86L57.55 159.86C57.46 159.86 57.38 159.82 57.35 159.75C57.3 159.69 57.25 159.61 57.21 159.52L54.77 155.02L54.54 155.02C54.31 155.02 54.06 155.01 53.76 155C53.47 154.98 53.23 154.96 53.04 154.95L53.04 159.52C53.04 159.61 53 159.69 52.94 159.75C52.88 159.82 52.81 159.86 52.71 159.86L51.02 159.86C50.94 159.86 50.86 159.82 50.79 159.75C50.72 159.69 50.69 159.61 50.69 159.52L50.69 147.89C50.69 147.73 50.73 147.6 50.83 147.53C50.93 147.46 51.06 147.41 51.23 147.39C51.67 147.32 52.18 147.26 52.75 147.23C53.33 147.19 53.92 147.17 54.55 147.17C55.2 147.17 55.82 147.24 56.41 147.36C57 147.5 57.51 147.71 57.95 148C58.41 148.28 58.76 148.68 59.02 149.17C59.29 149.66 59.42 150.26 59.42 150.98L59.42 151.14C59.42 152.04 59.22 152.77 58.8 153.34C58.39 153.89 57.83 154.32 57.12 154.59L59.77 159.52C59.8 159.55 59.81 159.6 59.81 159.66ZM70.66 154.72C70.66 155.66 70.54 156.46 70.3 157.12C70.05 157.79 69.72 158.33 69.3 158.75C68.86 159.18 68.36 159.48 67.77 159.69C67.19 159.89 66.55 160 65.85 160C65.15 160 64.52 159.89 63.93 159.69C63.34 159.48 62.84 159.18 62.41 158.75C61.98 158.33 61.65 157.79 61.4 157.12C61.16 156.46 61.05 155.66 61.05 154.72L61.05 152.44C61.05 151.51 61.16 150.71 61.4 150.05C61.65 149.37 61.98 148.83 62.41 148.41C62.84 147.99 63.34 147.68 63.93 147.48C64.52 147.27 65.15 147.17 65.85 147.17C66.55 147.17 67.19 147.27 67.77 147.48C68.36 147.68 68.86 147.99 69.3 148.41C69.72 148.83 70.05 149.37 70.3 150.05C70.54 150.71 70.66 151.51 70.66 152.44L70.66 154.72ZM81.96 154.82C81.96 156.5 81.51 157.78 80.58 158.67Q80.52 158.72 80.46 158.78Q79.1 160 76.65 160C76.34 160 76.02 159.99 75.69 159.98C75.36 159.97 75.03 159.95 74.72 159.93C74.41 159.9 74.13 159.88 73.88 159.86C73.62 159.83 73.43 159.81 73.32 159.79C73.16 159.76 73.06 159.72 72.98 159.64C72.91 159.56 72.87 159.44 72.87 159.26L72.87 147.89C72.87 147.73 72.91 147.6 72.98 147.52C73.06 147.45 73.16 147.39 73.32 147.37C73.43 147.35 73.62 147.32 73.88 147.3C74.13 147.28 74.41 147.25 74.72 147.24C75.03 147.22 75.36 147.2 75.69 147.19C76.02 147.18 76.34 147.17 76.65 147.17C78.36 147.17 79.67 147.61 80.58 148.5C81.51 149.37 81.96 150.66 81.96 152.34L81.96 154.82ZM103.27 159.33C103.27 159.46 103.24 159.54 103.17 159.6C103.11 159.65 103.01 159.69 102.89 159.73C102.83 159.75 102.71 159.77 102.56 159.8C102.39 159.83 102.19 159.85 101.95 159.88C101.72 159.91 101.45 159.94 101.16 159.96C100.87 159.99 100.55 160 100.22 160C99.72 160 99.18 159.92 98.62 159.77C98.06 159.63 97.55 159.36 97.08 158.97C96.62 158.58 96.23 158.06 95.93 157.39Q95.46 156.39 95.46 154.82L95.46 152.34C95.46 151.28 95.62 150.42 95.93 149.74C96.23 149.08 96.62 148.55 97.08 148.16C97.55 147.78 98.06 147.52 98.62 147.38C99.18 147.24 99.72 147.17 100.22 147.17C100.55 147.17 100.87 147.18 101.16 147.21C101.45 147.23 101.72 147.25 101.95 147.27C102.19 147.3 102.39 147.34 102.56 147.37C102.71 147.41 102.83 147.43 102.89 147.44C103.01 147.48 103.11 147.51 103.17 147.56C103.24 147.61 103.27 147.71 103.27 147.82L103.27 148.96C103.27 149.06 103.24 149.14 103.19 149.21C103.15 149.28 103.06 149.32 102.93 149.32L102.89 149.32C102.75 149.31 102.58 149.29 102.36 149.27C102.16 149.26 101.94 149.24 101.7 149.23C101.46 149.22 101.22 149.21 100.98 149.19C100.73 149.18 100.49 149.18 100.26 149.18C99.91 149.18 99.57 149.23 99.27 149.34C98.97 149.44 98.72 149.63 98.51 149.87C98.29 150.11 98.12 150.42 98 150.83C97.87 151.24 97.82 151.75 97.82 152.34L97.82 154.82C97.82 155.41 97.87 155.9 98 156.31C98.12 156.72 98.29 157.05 98.51 157.29C98.72 157.54 98.97 157.71 99.27 157.82C99.57 157.93 99.91 157.98 100.26 157.98C100.49 157.98 100.73 157.97 100.98 157.96L101.7 157.93C101.94 157.92 102.16 157.9 102.36 157.88C102.58 157.88 102.75 157.86 102.89 157.85L102.93 157.85C103.06 157.85 103.15 157.88 103.19 157.95C103.24 158.02 103.27 158.1 103.27 158.2L103.27 159.33ZM129.25 154.72C129.25 155.66 129.14 156.46 128.9 157.12C128.66 157.79 128.32 158.33 127.9 158.75C127.46 159.18 126.96 159.48 126.37 159.69C125.78 159.89 125.15 160 124.45 160C123.75 160 123.12 159.89 122.53 159.69C121.95 159.48 121.44 159.18 121.01 158.75C120.58 158.33 120.25 157.79 120.01 157.12C119.77 156.46 119.65 155.66 119.65 154.72L119.65 152.44C119.65 151.51 119.77 150.71 120.01 150.05C120.25 149.37 120.58 148.83 121.01 148.41C121.44 147.99 121.95 147.68 122.53 147.48C123.12 147.27 123.75 147.17 124.45 147.17C125.15 147.17 125.78 147.27 126.37 147.48C126.96 147.68 127.46 147.99 127.9 148.41C128.32 148.83 128.66 149.37 128.9 150.05C129.14 150.71 129.25 151.51 129.25 152.44L129.25 154.72ZM93.35 155.22C93.35 156.11 93.24 156.86 93.01 157.47C92.77 158.09 92.46 158.57 92.04 158.94C91.63 159.32 91.14 159.58 90.57 159.75C90 159.91 89.38 160 88.71 160C88.03 160 87.41 159.91 86.84 159.75C86.27 159.58 85.78 159.32 85.36 158.94C84.96 158.57 84.64 158.09 84.41 157.47C84.18 156.86 84.06 156.11 84.06 155.22L84.06 147.62C84.06 147.53 84.09 147.46 84.16 147.4C84.23 147.33 84.3 147.3 84.4 147.3L86.07 147.3C86.16 147.3 86.24 147.33 86.31 147.4C86.37 147.46 86.4 147.53 86.4 147.62L86.4 155.22C86.4 155.71 86.44 156.13 86.51 156.49C86.58 156.83 86.69 157.13 86.88 157.37C87.05 157.61 87.28 157.79 87.57 157.89C87.87 158.01 88.24 158.07 88.71 158.07C89.15 158.07 89.53 158.01 89.83 157.89C90.12 157.79 90.37 157.61 90.54 157.37C90.71 157.13 90.84 156.83 90.9 156.49C90.97 156.13 91 155.71 91 155.22L91 147.62C91 147.53 91.04 147.46 91.11 147.4C91.17 147.33 91.25 147.3 91.34 147.3L93.02 147.3C93.1 147.3 93.18 147.33 93.25 147.4C93.31 147.46 93.35 147.53 93.35 147.62L93.35 155.22ZM113.41 148.96C113.41 149.05 113.37 149.12 113.3 149.18C113.24 149.24 113.16 149.26 113.07 149.26L110.11 149.26L110.11 159.52C110.11 159.61 110.08 159.69 110.02 159.75C109.95 159.82 109.86 159.86 109.78 159.86L108.1 159.86C108.01 159.86 107.94 159.82 107.87 159.75C107.8 159.69 107.76 159.61 107.76 159.52L107.76 149.26L104.81 149.26C104.72 149.26 104.64 149.24 104.57 149.18C104.5 149.12 104.48 149.05 104.48 148.96L104.48 147.62C104.48 147.53 104.5 147.46 104.57 147.4C104.64 147.33 104.72 147.3 104.81 147.3L113.07 147.3C113.16 147.3 113.24 147.33 113.3 147.4C113.37 147.46 113.41 147.53 113.41 147.62L113.41 148.96ZM117.45 159.52C117.45 159.61 117.41 159.69 117.34 159.75C117.27 159.82 117.2 159.86 117.11 159.86L115.43 159.86C115.35 159.86 115.27 159.82 115.2 159.75C115.13 159.69 115.1 159.61 115.1 159.52L115.1 147.62C115.1 147.53 115.13 147.46 115.2 147.4C115.27 147.33 115.35 147.3 115.43 147.3L117.11 147.3C117.2 147.3 117.27 147.33 117.34 147.4C117.41 147.46 117.45 147.53 117.45 147.62L117.45 159.52ZM140.96 159.19C140.96 159.37 140.91 159.53 140.77 159.67C140.65 159.79 140.48 159.86 140.29 159.86L138.58 159.86C138.38 159.86 138.2 159.83 138.02 159.78C137.84 159.74 137.69 159.55 137.55 159.25L133.8 151.02C133.75 150.93 133.71 150.89 133.65 150.89C133.59 150.89 133.57 150.93 133.57 151.02L133.57 159.52C133.57 159.61 133.53 159.69 133.48 159.75C133.41 159.82 133.34 159.86 133.24 159.86L131.81 159.86C131.72 159.86 131.64 159.82 131.58 159.75C131.51 159.69 131.47 159.61 131.47 159.52L131.47 147.98C131.47 147.78 131.54 147.63 131.66 147.5C131.8 147.37 131.95 147.3 132.14 147.3L133.98 147.3C134.15 147.3 134.29 147.34 134.4 147.41C134.51 147.48 134.61 147.62 134.72 147.84L138.65 156.53C138.69 156.62 138.73 156.66 138.79 156.66C138.84 156.66 138.87 156.61 138.87 156.52L138.87 147.62C138.87 147.41 138.98 147.3 139.19 147.3L140.65 147.3C140.86 147.3 140.96 147.41 140.96 147.62L140.96 159.19ZM46.49 151.06C46.49 150.35 46.28 149.85 45.86 149.55C45.44 149.24 44.81 149.1 43.96 149.1C43.87 149.1 43.76 149.1 43.61 149.1C43.48 149.1 43.33 149.11 43.19 149.12C43.03 149.12 42.9 149.13 42.77 149.13C42.64 149.14 42.53 149.15 42.46 149.16L42.46 153.2C42.52 153.2 42.63 153.2 42.77 153.21C42.91 153.21 43.05 153.22 43.21 153.23C43.36 153.23 43.51 153.24 43.65 153.24C43.79 153.25 43.89 153.25 43.96 153.25C44.87 153.25 45.52 153.09 45.92 152.74C46.3 152.4 46.49 151.89 46.49 151.22L46.49 151.06ZM79.62 152.34C79.62 151.72 79.54 151.19 79.39 150.78C79.23 150.37 79.02 150.04 78.76 149.8C78.49 149.56 78.18 149.38 77.82 149.29C77.45 149.19 77.06 149.14 76.64 149.14C76.32 149.14 76.05 149.15 75.83 149.16C75.6 149.17 75.4 149.18 75.22 149.19L75.22 157.98C75.4 157.99 75.6 158 75.83 158.02C76.05 158.03 76.32 158.03 76.64 158.03C77.06 158.03 77.45 157.98 77.82 157.88C78.18 157.8 78.49 157.62 78.76 157.38C79.02 157.13 79.23 156.82 79.39 156.4C79.54 155.99 79.62 155.47 79.62 154.83L79.62 152.34ZM57.08 150.98C57.08 150.35 56.86 149.89 56.44 149.61C56.02 149.32 55.38 149.18 54.54 149.18C54.44 149.18 54.33 149.18 54.19 149.19C54.05 149.19 53.9 149.2 53.76 149.2C53.62 149.21 53.48 149.21 53.35 149.22C53.22 149.23 53.11 149.24 53.04 149.25L53.04 153.05C53.1 153.05 53.21 153.05 53.35 153.06C53.49 153.07 53.63 153.07 53.79 153.08C53.94 153.08 54.09 153.09 54.22 153.09L54.54 153.09C55.42 153.09 56.06 152.96 56.47 152.68C56.87 152.39 57.08 151.88 57.08 151.14L57.08 150.98ZM68.31 152.44C68.31 151.31 68.11 150.49 67.71 149.98C67.31 149.47 66.68 149.21 65.85 149.21C65.02 149.21 64.39 149.47 64 149.98C63.59 150.49 63.39 151.31 63.39 152.44L63.39 154.72C63.39 155.85 63.59 156.67 64 157.18C64.39 157.69 65.02 157.95 65.85 157.95C66.68 157.95 67.31 157.69 67.71 157.18C68.11 156.67 68.31 155.85 68.31 154.72L68.31 152.44ZM126.91 152.44C126.91 151.31 126.71 150.49 126.31 149.98C125.91 149.47 125.28 149.21 124.45 149.21C123.62 149.21 123 149.47 122.59 149.98C122.19 150.49 122 151.31 122 152.44L122 154.72C122 155.85 122.19 156.67 122.59 157.18C123 157.69 123.62 157.95 124.45 157.95C125.28 157.95 125.91 157.69 126.31 157.18C126.71 156.67 126.91 155.85 126.91 154.72L126.91 152.44Z" fill-opacity="1.000000" fill-rule="evenodd"/>
    </g>
  </symbol>
  <symbol viewBox="0 0 30 30" fill="none" xmlns="http://www.w3.org/2000/svg" xmlns:xlink="http://www.w3.org/1999/xlink" id="him">
	<desc>
			Created with Pixso.
	</desc>
	<defs/>
	<rect id="him" rx="0.000000" width="29.000000" height="29.000000" transform="translate(0.500000 0.500000)" fill="#FFFFFF" fill-opacity="0"/>
	<path id="Vector" d="M22.33 12.37L19.66 15L10.24 15L17.65 7.64C17.93 7.35 17.93 6.89 17.65 6.6C17.37 6.28 16.85 6.28 16.57 6.6L4.52 18.6C2.74 20.43 2.41 23.39 4.1 25.35C5.08 26.43 6.4 27 7.76 27C9.02 27 10.24 26.53 11.18 25.59L23.41 13.4C23.69 13.12 23.69 12.65 23.41 12.37C23.13 12.04 22.62 12.04 22.33 12.37ZM10.15 24.56C9.49 25.17 8.65 25.5 7.76 25.5C6.77 25.5 5.88 25.07 5.22 24.37C4.1 23.06 4.29 21 5.6 19.68L8.74 16.5L18.16 16.5L10.15 24.56ZM26.79 11.48L18.54 3.23C18.4 3.09 18.21 3 18.02 3C17.79 3 17.6 3.09 17.46 3.23C17.18 3.51 17.18 4.03 17.46 4.31L25.71 12.56C25.85 12.7 26.04 12.75 26.27 12.75C26.46 12.75 26.65 12.7 26.79 12.56C27.07 12.28 27.07 11.76 26.79 11.48Z" fill="#5C8EE6" fill-opacity="1.000000" fill-rule="nonzero"/>
</symbol>

<symbol  viewBox="0 0 30 30" fill="none" xmlns="http://www.w3.org/2000/svg" xmlns:xlink="http://www.w3.org/1999/xlink" id="car">
	<desc>
			Created with Pixso.
	</desc>
	<defs/>
	<rect id="car" rx="0.000000" width="29.000000" height="29.000000" transform="translate(0.500000 0.500000)" fill="#FFFFFF" fill-opacity="0"/>
	<path id="Vector" d="M14.75 8.95C15.96 8.95 17 7.92 17 6.7C17 5.71 15.82 3.93 15.35 3.23C15.21 3.09 14.98 3 14.75 3C14.46 3 14.23 3.09 14.09 3.28C13.62 3.98 12.5 5.76 12.5 6.7C12.5 7.96 13.48 8.95 14.75 8.95ZM14.75 5.1C15.17 5.85 15.45 6.51 15.5 6.7C15.5 7.12 15.12 7.45 14.75 7.45C14.32 7.45 14 7.12 14 6.7C14 6.46 14.28 5.81 14.75 5.1ZM21.5 8.95C22.71 8.95 23.75 7.96 23.75 6.7C23.75 5.76 22.57 3.98 22.1 3.28C21.96 3.09 21.73 3 21.5 3C21.21 3 20.98 3.09 20.84 3.28C20.37 3.98 19.25 5.76 19.25 6.7C19.25 7.96 20.23 8.95 21.5 8.95ZM21.5 5.1C21.92 5.85 22.2 6.51 22.25 6.7C22.25 7.12 21.87 7.45 21.5 7.45C21.07 7.45 20.75 7.12 20.75 6.7C20.75 6.46 21.03 5.81 21.5 5.1ZM8 8.95C9.21 8.95 10.25 7.96 10.25 6.7C10.25 5.76 9.07 3.98 8.6 3.28C8.46 3.09 8.23 3 8 3C7.71 3 7.48 3.09 7.34 3.28C6.87 3.98 5.75 5.76 5.75 6.7C5.75 7.96 6.73 8.95 8 8.95ZM8 5.1C8.42 5.81 8.7 6.46 8.75 6.7C8.75 7.12 8.37 7.45 8 7.45C7.57 7.45 7.25 7.12 7.25 6.7C7.25 6.46 7.53 5.81 8 5.1ZM20 19.45C19.34 19.45 18.87 19.96 18.87 20.57C18.87 21.23 19.34 21.7 20 21.7C20.6 21.7 21.12 21.23 21.12 20.57C21.12 19.96 20.6 19.45 20 19.45ZM22.39 16.78L21.64 13.54C21.31 12.18 20.14 11.2 18.73 11.2L10.57 11.2C9.21 11.2 8 12.18 7.67 13.54L6.92 16.87C5.79 17.43 5 18.6 5 19.96L5 22.54C5 23.48 5.6 24.32 6.5 24.6L6.5 26.2C6.5 26.62 6.82 26.95 7.25 26.95C7.62 26.95 8 26.62 8 26.2L8 24.7L21.5 24.7L21.5 26.2C21.5 26.62 21.82 26.95 22.25 26.95C22.62 26.95 23 26.62 23 26.2L23 24.6C23.89 24.32 24.45 23.48 24.5 22.54L24.5 19.96C24.5 18.6 23.65 17.34 22.39 16.78ZM9.12 13.87C9.31 13.21 9.92 12.75 10.62 12.75L18.73 12.75C19.43 12.75 20.04 13.21 20.18 13.87L20.79 16.5L8.56 16.5L9.12 13.87ZM23 22.54C23 22.92 22.67 23.25 22.29 23.25L7.15 23.25C6.78 23.2 6.5 22.92 6.5 22.54L6.5 19.96C6.5 18.89 7.39 18 8.46 18L20.98 18C22.06 18 23 18.89 23 19.96L23 22.54ZM9.5 19.45C8.84 19.45 8.37 19.96 8.37 20.57C8.37 21.23 8.84 21.7 9.5 21.7C10.1 21.7 10.62 21.23 10.62 20.57C10.62 19.96 10.1 19.45 9.5 19.45Z" fill="#5C8EE6" fill-opacity="1.000000" fill-rule="nonzero"/>
</symbol>

<symbol viewBox="0 0 30 30" fill="none" xmlns="http://www.w3.org/2000/svg" xmlns:xlink="http://www.w3.org/1999/xlink" id="eat">
	<desc>
			Created with Pixso.
	</desc>
	<defs/>
	<rect id="eat" rx="0.000000" width="29.000000" height="29.000000" transform="translate(0.500000 0.500000)" fill="#FFFFFF" fill-opacity="0"/>
	<path id="" d="M14.27 3.6C14.18 3.23 13.8 2.95 13.38 3.04C12.96 3.14 12.72 3.51 12.82 3.93L13.89 9.32C14.32 11.57 13.52 13.21 11.5 14.1L11.03 14.29L11.46 24.89C11.46 25.07 11.41 25.26 11.27 25.35C11.22 25.45 11.13 25.5 10.99 25.5L9.58 25.5C9.44 25.5 9.35 25.45 9.25 25.35C9.16 25.26 9.07 25.07 9.07 24.93L9.49 14.29L9.02 14.1C7 13.17 6.21 11.57 6.63 9.37L7.75 3.93C7.8 3.51 7.57 3.14 7.14 3.04C6.77 2.95 6.35 3.23 6.25 3.6L5.13 9.09C4.61 11.81 5.6 13.96 7.94 15.23L7.57 24.89C7.57 25.4 7.75 25.96 8.13 26.39C8.5 26.81 9.02 27 9.58 27L10.99 27C11.55 27 12.02 26.81 12.39 26.39C12.77 25.96 12.96 25.4 12.96 24.84L12.58 15.23C14.88 14.01 15.91 11.76 15.39 9.04L14.27 3.6ZM22.85 3C21.35 3 18.82 5.06 17.69 7.73C16.89 9.6 16.1 13.31 19.75 17.29L19.43 24.75C19.38 25.4 19.61 26.01 20.03 26.43C20.41 26.81 20.88 27 21.35 27L22.57 27C23.64 27 24.53 26.06 24.53 24.84L24.53 4.82C24.53 3.84 23.78 3 22.85 3ZM23.03 24.84C23.03 25.26 22.75 25.5 22.57 25.5L21.35 25.5C21.25 25.5 21.16 25.45 21.11 25.4C20.97 25.26 20.93 25.03 20.93 24.84L21.3 16.73L21.07 16.5C17.93 13.21 18.25 10.26 19.05 8.34C20.13 5.85 22.24 4.5 22.85 4.5C22.89 4.5 23.03 4.64 23.03 4.82L23.03 24.84ZM8.74 11.25C8.74 11.25 8.74 11.25 8.78 11.25C9.16 11.25 9.49 10.96 9.49 10.54L9.86 3.79C9.91 3.42 9.58 3.04 9.16 3.04C8.78 3 8.41 3.32 8.41 3.75L8.03 10.5C7.99 10.87 8.32 11.25 8.74 11.25ZM11.78 11.25C12.21 11.25 12.53 10.87 12.49 10.5L12.11 3.75C12.11 3.32 11.78 3 11.36 3.04C10.94 3.04 10.61 3.42 10.66 3.79L11.03 10.54C11.03 10.96 11.36 11.25 11.78 11.25Z" fill="#5C8EE6" fill-opacity="1.000000" fill-rule="nonzero"/>
</symbol>

<symbol viewBox="0 0 30 30" fill="none" xmlns="http://www.w3.org/2000/svg" xmlns:xlink="http://www.w3.org/1999/xlink" id="brush">
	<desc>
			Created with Pixso.
	</desc>
	<defs/>
	<rect id="brush" rx="0.000000" width="29.000000" height="29.000000" transform="translate(0.500000 0.500000)" fill="#FFFFFF" fill-opacity="0"/>
	<path id="Vector" d="M22.5 3L7.5 3C6.65 3 6 3.7 6 4.5L6 18C6 19.68 7.31 21 9 21L12 21L12 24C12 25.68 13.31 27 15 27C16.64 27 18 25.68 18 24L18 21L21 21C22.64 21 24 19.68 24 18L24 4.5C24 3.7 23.29 3 22.5 3ZM22.5 18C22.5 18.84 21.79 19.5 21 19.5L16.5 19.5L16.5 24C16.5 24.84 15.79 25.5 15 25.5C14.15 25.5 13.5 24.84 13.5 24L13.5 19.5L9 19.5C8.15 19.5 7.5 18.84 7.5 18L7.5 16.5L22.5 16.5L22.5 18ZM22.5 15L7.5 15L7.5 4.5L22.5 4.5L22.5 15Z" fill="#5C8EE6" fill-opacity="1.000000" fill-rule="nonzero"/>
</symbol>

<symbol viewBox="0 0 30 30" fill="none" xmlns="http://www.w3.org/2000/svg" xmlns:xlink="http://www.w3.org/1999/xlink" id="cosmetic">
	<desc>
			Created with Pixso.
	</desc>
	<defs/>
	<rect id="cosmetic" rx="0.000000" width="29.000000" height="29.000000" transform="translate(0.500000 0.500000)" fill="#FFFFFF" fill-opacity="0"/>
	<path id="Vector" d="M15 22.5C15.37 22.5 15.75 22.17 15.75 21.75L15.75 20.25L17.25 20.25C17.62 20.25 18 19.92 18 19.5C18 19.12 17.62 18.75 17.25 18.75L15.75 18.75L15.75 17.25C15.75 16.87 15.37 16.5 15 16.5C14.57 16.5 14.25 16.87 14.25 17.25L14.25 18.75L12.75 18.75C12.32 18.75 12 19.12 12 19.5C12 19.92 12.32 20.25 12.75 20.25L14.25 20.25L14.25 21.75C14.25 22.17 14.57 22.5 15 22.5ZM3.75 13.5C4.12 13.5 4.5 13.17 4.5 12.75L4.5 10.5L6 10.5C6.37 10.5 6.75 10.17 6.75 9.75C6.75 9.37 6.37 9 6 9L4.5 9L4.5 6.75C4.5 6.37 4.12 6 3.75 6C3.32 6 3 6.37 3 6.75L3 9L0.75 9C0.32 9 0 9.37 0 9.75C0 10.07 0.32 10.5 0.75 10.5L3 10.5L3 12.75C3 13.17 3.32 13.5 3.75 13.5ZM29.25 22.5L27 22.5L27 20.25C27 19.87 26.62 19.5 26.25 19.5C25.82 19.5 25.5 19.87 25.5 20.25L25.5 22.5L23.25 22.5C22.82 22.5 22.5 22.87 22.5 23.25C22.5 23.62 22.82 24 23.25 24L25.5 24L25.5 26.25C25.5 26.67 25.82 27 26.25 27C26.62 27 27 26.67 27 26.25L27 24L29.25 24C29.62 24 29.95 23.67 29.95 23.29C29.95 22.92 29.62 22.5 29.25 22.5ZM21.37 24.56C20.85 24.56 20.06 25.5 17.95 25.5L13.21 25.5C11.43 25.5 9.79 24.65 8.76 23.25L4.73 17.9C4.54 17.67 4.45 17.43 4.45 17.15C4.45 16.54 4.96 16.12 5.53 16.12C5.76 16.12 6.14 16.21 6.42 16.59L8.01 18.7C8.29 19.07 8.76 19.31 9.18 19.31C9.37 19.31 10.5 19.17 10.5 18.04C10.5 18.04 10.5 18.04 10.5 18L10.5 7.17C10.5 6.6 10.92 6 11.62 6C12.23 6 12.75 6.51 12.75 7.12L12.75 14.25C12.75 14.34 12.84 15.04 13.5 15.04C13.87 15.04 14.2 14.67 14.2 14.29L14.2 5.67C14.2 5.1 14.62 4.5 15.32 4.5C15.93 4.5 16.45 5.01 16.45 5.62L16.45 14.25C16.45 14.34 16.54 15.04 17.2 15.04C17.57 15.04 17.95 14.67 17.95 14.29L17.95 7.17C17.95 6.6 18.37 6 19.07 6C19.68 6 20.2 6.51 20.2 7.12L20.2 14.2C20.2 14.34 20.29 15 20.95 15C21.32 15 21.7 14.67 21.7 14.29L21.7 9.42C21.7 8.81 22.12 8.25 22.82 8.25C23.43 8.25 23.95 8.76 23.95 9.37L23.95 17.1C23.95 17.48 24.28 17.85 24.7 17.85C25.07 17.85 25.5 17.48 25.5 17.1L25.5 9.46C25.5 8.43 24.7 6.75 22.82 6.75C22.45 6.75 22.07 6.84 21.7 6.98C21.65 5.62 20.48 4.5 19.07 4.5C18.6 4.5 18.18 4.64 17.81 4.82C17.48 3.79 16.5 3 15.32 3C14.15 3 13.21 3.79 12.84 4.87C12.46 4.64 12.04 4.5 11.62 4.5C9.75 4.5 9 6.23 9 7.26L9 17.43L7.54 15.6C7.07 15 6.32 14.62 5.53 14.62C4.12 14.62 3 15.7 3 17.15C3 17.71 3.14 18.32 3.51 18.79L7.59 24.14C8.85 25.92 10.96 27 13.21 27L18 27C19.5 27 22.12 26.29 22.12 25.31C22.12 25.03 21.93 24.56 21.37 24.56Z" fill="#5C8EE6" fill-opacity="1.000000" fill-rule="nonzero"/>
</symbol>

<symbol viewBox="0 0 30 30" fill="none" xmlns="http://www.w3.org/2000/svg" xmlns:xlink="http://www.w3.org/1999/xlink" id="car-cosm">
	<desc>
			Created with Pixso.
	</desc>
	<defs/>
	<rect id="car-cosm" rx="0.000000" width="29.000000" height="29.000000" transform="translate(0.500000 0.500000)" fill="#FFFFFF" fill-opacity="0"/>
	<path id="Vector" d="M23.14 16.82L22.39 13.59C22.06 12.23 20.89 11.25 19.48 11.25L11.37 11.25C9.96 11.25 8.75 12.23 8.42 13.59L7.67 16.92C6.54 17.48 5.75 18.65 5.75 20.01L5.75 22.59C5.75 23.53 6.35 24.37 7.25 24.65L7.25 26.25C7.25 26.67 7.57 27 8 27C8.37 27 8.75 26.67 8.75 26.25L8.75 24.75L22.25 24.75L22.25 26.25C22.25 26.67 22.57 27 23 27C23.37 27 23.75 26.67 23.75 26.25L23.75 24.65C24.64 24.37 25.2 23.53 25.25 22.59L25.25 20.01C25.25 18.65 24.4 17.39 23.14 16.82ZM9.87 13.92C10.06 13.26 10.67 12.75 11.37 12.75L19.48 12.75C20.18 12.75 20.79 13.26 20.93 13.92L21.54 16.5L9.31 16.5L9.87 13.92ZM23.75 22.59C23.75 22.96 23.42 23.25 23.04 23.25L7.9 23.25C7.53 23.25 7.25 22.96 7.25 22.59L7.25 20.01C7.25 18.93 8.14 18 9.21 18L21.73 18C22.81 18 23.75 18.93 23.75 20.01L23.75 22.59ZM20.75 19.5C20.09 19.5 19.62 20.01 19.62 20.62C19.62 21.28 20.09 21.75 20.75 21.75C21.35 21.75 21.87 21.28 21.87 20.62C21.87 20.01 21.35 19.5 20.75 19.5ZM10.25 19.5C9.59 19.5 9.12 20.01 9.12 20.62C9.12 21.28 9.59 21.75 10.25 21.75C10.85 21.75 11.37 21.28 11.37 20.62C11.37 20.01 10.85 19.5 10.25 19.5ZM8.75 10.5C9.96 10.5 11.04 9.93 11.7 9.04L19.25 9.04C19.9 9.93 20.98 10.5 22.25 10.5C24.31 10.5 26 8.85 26 6.75C26 4.68 24.31 3 22.25 3C20.98 3 19.9 3.6 19.25 4.54L11.7 4.54C11.04 3.6 9.96 3 8.75 3C6.64 3 5 4.68 5 6.75C5 8.85 6.64 10.5 8.75 10.5ZM6.59 6C6.92 5.15 7.76 4.5 8.75 4.5C9.4 4.5 10.06 4.87 10.53 5.43C10.81 5.81 11.23 6.04 11.7 6.04L19.25 6.04C19.71 6.04 20.14 5.81 20.42 5.43C20.89 4.87 21.54 4.5 22.25 4.5C23.18 4.5 24.03 5.15 24.35 6L22.25 6L22.25 7.5L24.35 7.5C24.03 8.39 23.18 9 22.25 9C21.54 9 20.89 8.67 20.42 8.1C20.14 7.73 19.71 7.54 19.25 7.54L11.7 7.54C11.23 7.54 10.81 7.73 10.53 8.1C10.06 8.67 9.4 9 8.75 9C7.76 9 6.92 8.39 6.59 7.5L8.75 7.5L8.75 6L6.59 6Z" fill="#5C8EE6" fill-opacity="1.000000" fill-rule="nonzero"/>
</symbol>

<symbol viewBox="0 0 30 30" fill="none" xmlns="http://www.w3.org/2000/svg" xmlns:xlink="http://www.w3.org/1999/xlink" id="shirt">
	<desc>
			Created with Pixso.
	</desc>
	<defs/>
	<rect id="shirt" rx="0.000000" width="29.000000" height="29.000000" transform="translate(0.500000 0.500000)" fill="#FFFFFF" fill-opacity="0"/>
	<path id="Vector" d="M29.88 8.54C29.69 7.98 29.31 7.56 28.8 7.28L20.5 3.06C20.17 2.92 19.8 3.01 19.56 3.29C18.81 4.37 16.94 5.08 14.97 5.08C13.05 5.08 11.17 4.37 10.42 3.29C10.19 3.01 9.81 2.92 9.49 3.06L1.19 7.28C0.67 7.56 0.3 7.98 0.11 8.54C-0.08 9.11 -0.03 9.67 0.2 10.18L2.5 14.92C3.02 15.95 4.33 16.37 5.36 15.9L7.52 14.97L7.52 24.81C7.52 26.03 8.45 26.97 9.67 26.97L20.31 26.97C21.53 26.97 22.52 26.03 22.52 24.81L22.47 14.97L24.58 15.86C25.66 16.37 26.97 15.95 27.49 14.87L29.78 10.18C30.02 9.67 30.06 9.11 29.88 8.54ZM28.42 9.53L26.17 14.22C25.99 14.54 25.56 14.68 25.24 14.5L22.05 13.14C21.81 13.04 21.53 13.09 21.35 13.23C21.11 13.37 20.97 13.61 20.97 13.84L21.02 24.81C21.02 25.18 20.69 25.47 20.31 25.47L9.67 25.47C9.3 25.47 9.02 25.18 9.02 24.81L9.02 13.84C9.02 13.61 8.88 13.37 8.64 13.23C8.55 13.14 8.41 13.09 8.27 13.09C8.13 13.09 8.03 13.14 7.94 13.14L4.75 14.5C4.42 14.68 4 14.54 3.86 14.22L1.56 9.53C1.47 9.34 1.47 9.2 1.52 9.01C1.56 8.87 1.7 8.73 1.89 8.64L9.63 4.65C10.8 5.87 12.81 6.58 15.02 6.58C17.22 6.58 19.19 5.87 20.36 4.65L28.1 8.64C28.28 8.73 28.42 8.87 28.47 9.01C28.52 9.2 28.52 9.34 28.42 9.53Z" fill="#5C8EE6" fill-opacity="1.000000" fill-rule="nonzero"/>
</symbol>

<symbol viewBox="0 0 30 30" fill="none" xmlns="http://www.w3.org/2000/svg" xmlns:xlink="http://www.w3.org/1999/xlink" id="boots">
	<desc>
			Created with Pixso.
	</desc>
	<defs/>
	<rect id="boots" rx="0.000000" width="29.000000" height="29.000000" transform="translate(0.500000 0.500000)" fill="#FFFFFF" fill-opacity="0"/>
	<path id="Vector" d="M15.79 15.75C14.15 15.75 12.23 16.4 10.87 17.39C9.75 18.18 8.81 18.98 6 18.98L3 18.98C1.31 18.98 0 20.43 0 22.21C0 23.95 1.31 25.5 3 25.5L6 25.5L8.67 26.2C10.17 26.67 11.71 27 13.73 27C18.89 27 24 24.42 24 20.57C24 17.39 20.01 15.75 15.79 15.75ZM5.25 24L3 24C2.2 24 1.5 23.15 1.5 22.21C1.5 21.23 2.15 20.48 3 20.48L5.25 20.48L5.25 24ZM9.04 24.75L6.75 24.18L6.75 20.43C9.32 20.29 10.5 19.5 11.57 18.75C15.84 15.7 22.5 17.85 22.5 20.57C22.5 23.48 16.78 27.04 9.04 24.75ZM19.73 3C17.67 3 16.17 3.37 14.67 3.84L12 4.5L9 4.5C7.31 4.5 6 6.04 6 7.82C6 9.65 7.31 11.06 9 11.06L12 11.06C14.81 11.06 15.75 11.85 16.87 12.65C18.23 13.59 20.15 14.25 21.79 14.25C26.01 14.25 30 12.65 30 9.46C30 5.62 24.98 3 19.73 3ZM11.25 9.56L9 9.56C8.15 9.56 7.5 8.81 7.5 7.82C7.5 6.89 8.2 6 9 6L11.25 6L11.25 9.56ZM21.79 12.75C20.48 12.75 18.89 12.18 17.76 11.39C16.64 10.64 15.46 9.75 12.75 9.56L12.75 5.85L15.09 5.25C16.5 4.87 17.85 4.5 19.73 4.5C22.17 4.5 28.5 5.71 28.5 9.46C28.5 11.62 25.12 12.75 21.79 12.75Z" fill="#5C8EE6" fill-opacity="1.000000" fill-rule="nonzero"/>
</symbol>

<symbol viewBox="0 0 30 30" fill="none" xmlns="http://www.w3.org/2000/svg" xmlns:xlink="http://www.w3.org/1999/xlink" id="bricks">
	<desc>
			Created with Pixso.
	</desc>
	<defs/>
	<rect id="bricks" rx="0.000000" width="29.000000" height="29.000000" transform="translate(0.500000 0.500000)" fill="#FFFFFF" fill-opacity="0"/>
	<path id="Vector" d="M24.5 4L6.5 4C5.65 4 5 4.7 5 5.5L5 8.5C5 9.34 5.65 10 6.5 10L6.5 24.25C6.5 24.62 6.73 24.95 7.1 25C7.57 25.09 8 24.71 8 24.25L8 22L18.5 22L18.5 24.25C18.5 24.67 18.82 25 19.2 25C19.57 25 20 24.67 20 24.25L20 22L23 22L23 24.25C23 24.62 23.23 24.95 23.6 25C24.07 25.09 24.5 24.71 24.5 24.25L24.5 10C25.29 10 26 9.34 26 8.5L26 5.5C26 4.7 25.29 4 24.5 4ZM11 14.5L8 14.5L8 10L11 10L11 14.5ZM8 20.5L8 16L14 16L14 20.5L8 20.5ZM23 20.5L15.5 20.5L15.5 16L23 16L23 20.5ZM23 14.5L12.5 14.5L12.5 10L23 10L23 14.5ZM24.5 8.5L6.5 8.5L6.5 5.5L24.5 5.5L24.5 8.5Z" fill="#5C8EE6" fill-opacity="1.000000" fill-rule="nonzero"/>
</symbol>

<symbol viewBox="0 0 30 30" fill="none" xmlns="http://www.w3.org/2000/svg" xmlns:xlink="http://www.w3.org/1999/xlink" id="more">
	<desc>
			Created with Pixso.
	</desc>
	<defs/>
	<rect id="more" rx="0.000000" width="29.000000" height="29.000000" transform="translate(0.500000 0.500000)" fill="#FFFFFF" fill-opacity="0"/>
	<path id="Vector" d="M15 14C14.15 14 13.5 14.7 13.5 15.5C13.5 16.34 14.15 17 15 17C15.79 17 16.5 16.34 16.5 15.5C16.5 14.7 15.79 14 15 14ZM7.5 14C6.65 14 6 14.7 6 15.5C6 16.34 6.65 17 7.5 17C8.29 17 9 16.34 9 15.5C9 14.7 8.29 14 7.5 14ZM22.5 14C21.65 14 21 14.7 21 15.5C21 16.34 21.65 17 22.5 17C23.29 17 24 16.34 24 15.5C24 14.7 23.29 14 22.5 14Z" fill="#5C8EE6" fill-opacity="1.000000" fill-rule="nonzero"/>
</symbol>

<symbol  viewBox="0 0 14 14" fill="none" xmlns="http://www.w3.org/2000/svg" id="shield">
<path d="M11.9221 2.94626L7.41988 1.07035C7.27918 1.02345 7.13849 1 6.9978 1C6.83365 1 6.69296 1.02345 6.55227 1.07035L2.05007 2.94626C1.62799 3.13385 1.37005 3.53249 1.37005 3.97802C1.37005 8.64436 4.04323 11.8569 6.55227 12.9121C6.83365 13.0293 7.13849 13.0293 7.41988 12.9121C9.43649 12.0679 12.6255 9.18368 12.6255 3.97802C12.6255 3.53249 12.3442 3.13385 11.9221 2.94626ZM10.1616 5.72512L6.50537 9.14349C6.36467 9.30763 6.10673 9.30763 5.96604 9.14349L3.95613 7.37141C3.81544 7.23072 3.81544 6.99623 3.95613 6.85554L4.24087 6.5708C4.38156 6.43011 4.61605 6.43011 4.75675 6.5708L6.30254 7.91226L9.41607 4.97962C9.55677 4.83893 9.79126 4.83893 9.93195 4.97962L10.1616 5.20924C10.3023 5.34994 10.3023 5.58443 10.1616 5.72512Z" fill="#828A99"/>
</symbol>

<symbol viewBox="0 0 19.5493 12" fill="none" xmlns="http://www.w3.org/2000/svg" xmlns:xlink="http://www.w3.org/1999/xlink" id="vk">
	<desc>
			Created with Pixso.
	</desc>
	<defs/>
	<path id="Vector" d="M19.44 10.75C18.64 9.31 16.58 7.59 15.73 6.84C15.5 6.63 15.48 6.28 15.69 6.05C17.31 4.31 18.61 2.31 19.05 1.1C19.25 0.56 18.84 0 18.27 0L16.6 0C16.05 0 15.73 0.2 15.57 0.51C14.23 3.27 13.07 4.46 12.26 5.16C11.81 5.55 11.11 5.23 11.11 4.63C11.11 3.49 11.11 2.01 11.11 0.96C11.11 0.45 10.69 0.03 10.17 0.03L7.13 0C6.75 0 6.53 0.43 6.76 0.74L7.26 1.46C7.45 1.71 7.55 2.01 7.55 2.33L7.55 5.58C7.55 6.14 6.86 6.42 6.46 6.02C5.08 4.68 3.88 1.94 3.45 0.63C3.33 0.26 2.97 0 2.57 0L0.93 0C0.31 0 -0.14 0.58 0.03 1.17C1.53 6.44 4.61 11.45 10.1 11.99C10.64 12.04 11.11 11.61 11.11 11.07L11.11 9.36C11.11 8.87 11.49 8.45 11.98 8.44C12 8.44 12.02 8.44 12.04 8.44C13.49 8.44 15.11 10.55 15.68 11.54C15.85 11.82 16.15 12 16.48 12L18.69 12C19.34 12 19.75 11.31 19.44 10.75Z" fill="#5C8EE6" fill-opacity="1.000000" fill-rule="nonzero"/>
</symbol>

<symbol viewBox="0 0 16 16" fill="none" xmlns="http://www.w3.org/2000/svg" xmlns:xlink="http://www.w3.org/1999/xlink" id="inst">
	<desc>
			Created with Pixso.
	</desc>
	<defs/>
	<path id="Vector" d="M4.44 0C1.99 0 0 1.99 0 4.44L0 11.55C0 14 1.99 16 4.44 16L11.55 16C14 16 16 14 16 11.55L16 4.44C16 1.99 14 0 11.55 0L4.44 0ZM4.44 1.77L11.55 1.77C13.02 1.77 14.22 2.97 14.22 4.44L14.22 11.55C14.22 13.02 13.02 14.22 11.55 14.22L4.44 14.22C2.97 14.22 1.77 13.02 1.77 11.55L1.77 4.44C1.77 2.97 2.97 1.77 4.44 1.77ZM12.44 2.66C12.2 2.66 11.98 2.76 11.81 2.92C11.64 3.09 11.55 3.31 11.55 3.55C11.55 3.79 11.64 4.01 11.81 4.18C11.98 4.35 12.2 4.44 12.44 4.44C12.68 4.44 12.9 4.35 13.07 4.18C13.23 4.01 13.33 3.79 13.33 3.55C13.33 3.31 13.23 3.09 13.07 2.92C12.9 2.76 12.68 2.66 12.44 2.66ZM8 3.55C5.54 3.55 3.55 5.54 3.55 8C3.55 10.45 5.54 12.44 8 12.44C10.45 12.44 12.44 10.45 12.44 8C12.44 5.54 10.45 3.55 8 3.55ZM8 5.33C9.47 5.33 10.66 6.52 10.66 8C10.66 9.47 9.47 10.66 8 10.66C6.52 10.66 5.33 9.47 5.33 8C5.33 6.52 6.52 5.33 8 5.33Z" fill="#5C8EE6" fill-opacity="1.000000" fill-rule="nonzero"/>
</symbol>

<symbol viewBox="0 0 52 11" fill="none" xmlns="http://www.w3.org/2000/svg" xmlns:xlink="http://www.w3.org/1999/xlink" id="ruso">
	<desc>
			Created with Pixso.
	</desc>
	<defs>
		<clipPath id="clip129_565">
			<rect id="Group 48" rx="0.000000" width="51.000000" height="10.000000" transform="translate(0.500000 0.500000)" fill="white" fill-opacity="0"/>
		</clipPath>
	</defs>
	<rect id="Group 48" rx="0.000000" width="51.000000" height="10.000000" transform="translate(0.500000 0.500000)" fill="#FFFFFF" fill-opacity="0"/>
	<g clip-path="url(#clip129_565)">
		<path id="Vector" d="M13.42 6.35L13.42 0.25L15.61 0.25L15.61 6.27C15.61 7.69 16.43 8.66 18 8.66C19.57 8.66 20.37 7.69 20.37 6.27L20.37 0.25L22.58 0.25L22.58 6.33C22.58 8.86 21.09 10.58 18 10.58C14.91 10.58 13.42 8.84 13.42 6.35Z" fill="#828A99" fill-opacity="1.000000" fill-rule="nonzero"/>
		<path id="Vector" d="M27.79 8.96L28.96 7.32C29.67 8.07 30.78 8.69 32.18 8.69C33.37 8.69 33.95 8.14 33.95 7.56C33.95 5.77 28.11 7 28.11 3.18C28.11 1.49 29.57 0.09 31.95 0.09C33.57 0.09 34.91 0.58 35.91 1.51L34.71 3.09C33.89 2.33 32.79 1.98 31.76 1.98C30.83 1.98 30.31 2.39 30.31 3C30.31 4.61 36.14 3.53 36.14 7.32C36.14 9.18 34.82 10.58 32.08 10.58C30.13 10.58 28.73 9.92 27.79 8.96Z" fill="#828A99" fill-opacity="1.000000" fill-rule="nonzero"/>
		<path id="Vector" d="M41.21 5.29C41.21 2.2 43.46 0 46.55 0C49.64 0 51.9 2.2 51.9 5.29C51.9 8.37 49.64 10.58 46.55 10.58C43.46 10.58 41.21 8.37 41.21 5.29ZM49.66 5.29C49.66 3.37 48.43 1.93 46.55 1.93C44.66 1.93 43.45 3.37 43.45 5.29C43.45 7.19 44.66 8.65 46.55 8.65C48.43 8.65 49.66 7.19 49.66 5.29Z" fill="#828A99" fill-opacity="1.000000" fill-rule="nonzero"/>
		<path id="Vector" d="M5.93 6.53C7.03 6.27 8.15 5.31 8.15 3.52C8.15 1.63 6.86 0.25 4.74 0.25L0 0.25L0 2.15L2.16 2.15L2.32 2.15L4.42 2.15C5.29 2.15 5.95 2.66 5.95 3.52C5.95 4.37 5.29 4.89 4.42 4.89L2.32 4.89L2.16 4.89L0 4.89L0 10.39L2.16 10.39L2.16 6.79L3.74 6.79L5.73 10.4L8.21 10.4L5.93 6.53Z" fill="#828A99" fill-opacity="1.000000" fill-rule="nonzero"/>
	</g>
</symbol>


</svg>

