<svg width="0" height="0" class="hidden">
  <symbol fill="none" xmlns="http://www.w3.org/2000/svg" xmlns:xlink="http://www.w3.org/1999/xlink" viewBox="0 0 36 36" id="control">
    <desc>Created with Pixso.</desc>
    <defs></defs>
    <rect id="Frame 33" rx="0.000000" width="35.000000" height="35.000000" transform="translate(0.500000 0.500000)" fill="#FFFFFF" fill-opacity="0"></rect>
    <path id="Vector" d="M17.11 23.25C15.53 23.25 14.82 24.12 12.25 24.12C9.62 24.12 8.91 23.25 7.32 23.25C3.28 23.25 0 26.58 0 30.63C0 31.39 0.6 32 1.36 32L23.07 32C23.84 32 24.5 31.39 24.5 30.63C24.5 26.58 21.16 23.25 17.11 23.25ZM1.75 30.25C1.91 27.35 4.37 25.05 7.32 25C8.42 25 9.46 25.87 12.25 25.87C15.03 25.87 16.02 25 17.11 25C20.07 25.05 22.53 27.35 22.69 30.25L1.75 30.25ZM4.81 12.75L5.46 12.75C5.3 13.35 5.25 13.89 5.25 14.5C5.25 18.38 8.36 21.5 12.25 21.5C16.07 21.5 19.25 18.38 19.25 14.5C19.19 13.89 19.14 13.35 18.97 12.75L19.68 12.75C19.9 12.75 20.12 12.58 20.12 12.31L20.12 11.43C20.12 11.21 19.9 11 19.68 11L19.25 11C19.25 8.21 17.33 5.85 14.71 5.14C14.49 4.49 13.83 4.05 13.12 4L11.37 4C10.6 4.05 9.95 4.49 9.73 5.14C7.16 5.85 5.25 8.21 5.25 11L4.81 11C4.53 11 4.37 11.21 4.37 11.43L4.37 12.31C4.37 12.58 4.53 12.75 4.81 12.75ZM14.87 7C16.4 7.71 17.44 9.25 17.5 11L14.87 11L14.87 7ZM11.37 5.75L13.12 5.75L13.12 11L11.37 11L11.37 5.75ZM7 11C7 9.25 8.03 7.71 9.62 7L9.62 11L7 11ZM7.32 12.75L17.17 12.75C17.33 13.29 17.44 13.89 17.5 14.5C17.5 17.39 15.09 19.75 12.25 19.75C9.35 19.75 7 17.39 7 14.5C7 13.89 7.1 13.29 7.32 12.75Z" fill="#5C8EE6" fill-opacity="1.000000" fill-rule="evenodd"></path>
  </symbol>
  <symbol fill="none" xmlns="http://www.w3.org/2000/svg" xmlns:xlink="http://www.w3.org/1999/xlink" viewBox="0 0 36 36" id="delivery">
    <desc>Created with Pixso.</desc>
    <defs></defs>
    <rect id="Frame 35" rx="0.000000" width="35.000000" height="35.000000" transform="translate(0.500000 0.500000)" fill="#FFFFFF" fill-opacity="0"></rect>
    <path id="Vector" d="M1.75 21.5L20.12 21.5C21.05 21.5 21.87 20.73 21.87 19.75L21.87 7.5C21.87 6.57 21.05 5.75 20.12 5.75L1.75 5.75C0.76 5.75 0 6.57 0 7.5L0 19.75C0 20.73 0.76 21.5 1.75 21.5ZM1.75 7.5L20.12 7.5L20.12 19.75L1.75 19.75L1.75 7.5ZM33.96 15.26L30.73 12.03C30.07 11.38 29.2 11.05 28.27 11.05L24.5 11.05C24 11.05 23.62 11.43 23.62 11.92L23.62 23.3L12.46 23.3C11.81 22.75 10.99 22.42 10.06 22.42C8.8 22.42 7.71 22.97 7 23.9C6.23 22.97 5.14 22.37 3.93 22.37C1.75 22.37 0 24.17 0 26.31C0 28.5 1.75 30.25 3.93 30.25C5.14 30.25 6.23 29.7 7 28.77C7.71 29.7 8.8 30.25 10.06 30.25C12.19 30.25 14 28.5 14 26.31C14 25.87 13.89 25.43 13.72 25L24.55 25C24.39 25.76 24.44 26.53 24.71 27.35C25.15 28.71 26.35 29.81 27.78 30.14C30.62 30.85 33.25 28.66 33.25 25.87C33.25 25.6 33.19 25.32 33.14 25L34.12 25C34.56 25 35 24.61 35 24.12L35 17.72C35 16.79 34.61 15.92 33.96 15.26ZM3.93 28.5C2.67 28.5 1.75 27.57 1.75 26.31C1.75 25.1 2.67 24.12 3.93 24.12C5.14 24.12 6.12 25.1 6.12 26.31C6.12 27.57 5.14 28.5 3.93 28.5ZM10.06 28.5C8.8 28.5 7.87 27.57 7.87 26.31C7.87 25.1 8.8 24.12 10.06 24.12C11.26 24.12 12.25 25.1 12.25 26.31C12.25 27.57 11.26 28.5 10.06 28.5ZM25.37 12.75L28.27 12.75C28.76 12.75 29.2 12.96 29.53 13.29L32.48 16.25L25.37 16.25L25.37 12.75ZM28.87 28.5C27.39 28.5 26.25 27.35 26.25 25.87C26.25 24.45 27.39 23.25 28.87 23.25C30.29 23.25 31.5 24.45 31.5 25.87C31.5 27.35 30.29 28.5 28.87 28.5ZM33.25 23.25L32.32 23.25C31.55 22.21 30.29 21.5 28.87 21.5C27.39 21.5 26.19 22.21 25.37 23.25L25.37 18L33.25 18L33.25 23.25ZM5.68 18L6.56 18C6.78 18 7 17.83 7 17.56L7 9.68C7 9.46 6.78 9.25 6.56 9.25L5.68 9.25C5.41 9.25 5.25 9.46 5.25 9.68L5.25 17.56C5.25 17.83 5.41 18 5.68 18ZM10.93 18L11.81 18C12.03 18 12.25 17.83 12.25 17.56L12.25 9.68C12.25 9.46 12.03 9.25 11.81 9.25L10.93 9.25C10.66 9.25 10.5 9.46 10.5 9.68L10.5 17.56C10.5 17.83 10.66 18 10.93 18ZM16.18 18L17.06 18C17.28 18 17.5 17.83 17.5 17.56L17.5 9.68C17.5 9.46 17.28 9.25 17.06 9.25L16.18 9.25C15.91 9.25 15.75 9.46 15.75 9.68L15.75 17.56C15.75 17.83 15.91 18 16.18 18Z" fill="#5C8EE6" fill-opacity="1.000000" fill-rule="evenodd"></path>
  </symbol>
  <symbol fill="none" xmlns="http://www.w3.org/2000/svg" xmlns:xlink="http://www.w3.org/1999/xlink" viewBox="0 0 140 44" id="logo">
    <desc>Created with Pixso.</desc>
    <defs>
      <clipPath id="clip191_1668">
        <rect id="logo" rx="0.000000" width="139.000000" height="43.000000" transform="translate(0.500000 0.500000)" fill="white" fill-opacity="0"></rect>
      </clipPath>
    </defs>
    <rect id="logo" rx="0.000000" width="139.000000" height="43.000000" transform="translate(0.500000 0.500000)" fill="#FFFFFF" fill-opacity="0"></rect>
    <g clip-path="url(#clip191_1668)">
      <path id="Vector" d="M21.99 4.89C24.28 4.89 26.47 5.34 28.47 6.16L28.47 12.35L28.47 21.81C28.47 25.36 25.59 28.24 22.04 28.24C20.53 28.24 19.15 27.72 18.05 26.85L18.05 32.54C19.29 33 20.64 33.25 22.04 33.25C29.02 33.25 33.51 27.74 33.51 21.05L33.51 3.25C30.16 1.19 26.21 0 21.99 0C9.84 0 0 9.84 0 21.99C0 28.92 3.21 35.11 8.22 39.14L8.22 32.13C6.13 29.3 4.89 25.79 4.89 21.99C4.89 12.54 12.54 4.89 21.99 4.89Z" fill="#292D33" fill-opacity="1.000000" fill-rule="evenodd"></path>
      <path id="Vector" d="M22.06 39.1C19.76 39.1 17.58 38.65 15.58 37.83L15.58 31.64L15.58 22.18C15.58 18.63 18.45 15.75 22 15.75C23.51 15.75 24.9 16.27 26 17.14L26 11.45C24.75 10.99 23.41 10.74 22 10.74C15.02 10.74 10.54 16.25 10.54 22.94L10.54 40.74C13.89 42.8 17.83 44 22.06 44C34.2 44 44.05 34.15 44.05 22C44.05 15.07 40.84 8.88 35.82 4.85L35.82 11.86C37.92 14.69 39.16 18.2 39.16 22C39.16 31.45 31.5 39.1 22.06 39.1Z" fill="#5C8EE6" fill-opacity="1.000000" fill-rule="evenodd"></path>
      <path id="Vector" d="M71.19 22.8C71.26 22.74 71.3 22.65 71.3 22.55L71.3 22.51C71.28 22.49 71.28 22.46 71.28 22.44L67.8 9.16C67.67 8.67 67.48 8.27 67.25 7.99C67.02 7.72 66.76 7.48 66.49 7.33C66.21 7.19 65.92 7.1 65.64 7.06C65.34 7.02 65.09 7 64.86 7C64.62 7 64.37 7.02 64.09 7.06C63.8 7.1 63.52 7.19 63.25 7.33C62.97 7.48 62.7 7.72 62.46 7.99C62.23 8.27 62.04 8.67 61.91 9.16L58.44 22.44L58.44 22.51C58.42 22.53 58.42 22.53 58.42 22.55C58.42 22.65 58.46 22.74 58.52 22.8C58.58 22.87 58.69 22.91 58.8 22.91L61.04 22.91C61.15 22.91 61.23 22.87 61.3 22.8C61.36 22.74 61.42 22.65 61.45 22.55L62.42 18.52L67.29 18.52L68.27 22.55C68.29 22.65 68.35 22.74 68.42 22.8C68.48 22.87 68.57 22.91 68.67 22.91L70.92 22.91C71.02 22.91 71.13 22.87 71.19 22.8ZM101.52 22.8C101.58 22.74 101.62 22.65 101.62 22.55L101.62 22.51C101.6 22.49 101.6 22.46 101.6 22.44L98.13 9.16C98 8.67 97.81 8.27 97.57 7.99C97.34 7.72 97.09 7.48 96.81 7.33C96.54 7.19 96.24 7.1 95.96 7.06C95.67 7.02 95.41 7 95.18 7C94.95 7 94.69 7.02 94.42 7.06C94.12 7.1 93.84 7.19 93.57 7.33C93.29 7.48 93.02 7.72 92.79 7.99C92.55 8.27 92.36 8.67 92.23 9.16L88.76 22.44L88.76 22.51C88.74 22.53 88.74 22.53 88.74 22.55C88.74 22.65 88.78 22.74 88.84 22.8C88.91 22.87 89.01 22.91 89.12 22.91L91.37 22.91C91.47 22.91 91.56 22.87 91.62 22.8C91.68 22.74 91.75 22.65 91.77 22.55L92.74 18.52L97.62 18.52L98.59 22.55C98.61 22.65 98.68 22.74 98.74 22.8C98.8 22.87 98.89 22.91 98.99 22.91L101.24 22.91C101.35 22.91 101.45 22.87 101.52 22.8ZM127.94 22.57C128.02 22.51 128.07 22.4 128.07 22.25L128.07 20.83C128.07 20.7 128.05 20.6 127.98 20.51C127.92 20.43 127.79 20.39 127.64 20.39L127.6 20.39C127.41 20.41 127.2 20.41 126.94 20.43C126.67 20.45 126.39 20.47 126.1 20.49C125.8 20.51 125.5 20.51 125.19 20.54C124.87 20.56 124.57 20.56 124.3 20.56C123.85 20.56 123.43 20.49 123.07 20.35C122.68 20.22 122.37 20.01 122.09 19.69C121.82 19.37 121.6 18.97 121.46 18.46C121.31 17.95 121.22 17.34 121.22 16.59L121.22 13.48C121.22 12.74 121.31 12.1 121.46 11.59C121.6 11.08 121.82 10.68 122.09 10.36C122.37 10.07 122.68 9.86 123.07 9.71C123.43 9.58 123.85 9.52 124.3 9.52C124.57 9.52 124.87 9.52 125.19 9.54C125.5 9.56 125.8 9.56 126.1 9.58C126.39 9.6 126.67 9.6 126.94 9.62C127.2 9.64 127.41 9.67 127.6 9.69L127.64 9.69C127.79 9.69 127.92 9.64 127.98 9.56C128.05 9.47 128.07 9.37 128.07 9.24L128.07 7.82C128.07 7.67 128.02 7.55 127.94 7.48C127.86 7.42 127.75 7.38 127.6 7.33C127.52 7.31 127.37 7.29 127.18 7.25C126.97 7.21 126.71 7.16 126.41 7.12C126.12 7.1 125.78 7.06 125.42 7.04C125.06 7.02 124.66 7 124.25 7C123.62 7 122.94 7.08 122.24 7.25C121.54 7.44 120.88 7.76 120.31 8.25C119.72 8.73 119.25 9.39 118.85 10.22C118.47 11.06 118.28 12.14 118.28 13.48L118.28 16.59C118.28 17.91 118.47 18.99 118.85 19.82C119.25 20.64 119.72 21.3 120.31 21.79C120.88 22.27 121.54 22.61 122.24 22.8C122.94 22.99 123.62 23.08 124.25 23.08C124.66 23.08 125.06 23.06 125.42 23.04C125.78 23.01 126.12 22.97 126.41 22.95C126.71 22.91 126.97 22.87 127.18 22.82C127.37 22.8 127.52 22.76 127.6 22.74C127.75 22.7 127.86 22.63 127.94 22.57ZM139.91 22.65C139.98 22.59 140 22.49 140 22.34L140 20.98C140 20.87 139.95 20.77 139.87 20.68C139.78 20.6 139.68 20.56 139.57 20.56L135.25 20.56C134.64 20.56 134.19 20.43 133.96 20.18C133.7 19.92 133.58 19.43 133.58 18.73L133.58 16L139.32 16C139.42 16 139.53 15.96 139.62 15.87C139.7 15.79 139.74 15.68 139.74 15.58L139.74 14.05C139.74 13.95 139.7 13.84 139.62 13.75C139.53 13.67 139.42 13.63 139.32 13.63L133.58 13.63L133.58 11.34C133.58 10.64 133.7 10.15 133.96 9.9C134.19 9.64 134.64 9.52 135.25 9.52L139.57 9.52C139.68 9.52 139.78 9.47 139.87 9.39C139.95 9.3 140 9.2 140 9.09L140 7.74C140 7.59 139.98 7.48 139.91 7.42C139.85 7.36 139.72 7.31 139.57 7.29C139.4 7.27 139.21 7.23 139.02 7.19C138.81 7.16 138.56 7.12 138.26 7.1C137.94 7.08 137.58 7.04 137.16 7.02C136.71 7 136.18 7 135.55 7L135.55 7C134.85 7 134.21 7.06 133.62 7.16C133.03 7.27 132.5 7.48 132.07 7.8C131.63 8.12 131.27 8.56 131.01 9.14C130.76 9.71 130.63 10.43 130.63 11.34L130.63 18.73C130.63 19.65 130.76 20.37 131.01 20.94C131.27 21.51 131.63 21.93 132.07 22.25C132.5 22.57 133.03 22.8 133.62 22.91C134.21 23.01 134.85 23.08 135.55 23.08L135.55 23.08C136.18 23.08 136.71 23.08 137.16 23.06C137.58 23.04 137.94 22.99 138.26 22.97C138.56 22.95 138.81 22.91 139.02 22.87C139.21 22.85 139.4 22.8 139.57 22.78C139.72 22.76 139.85 22.72 139.91 22.65ZM81.7 22.65C81.77 22.59 81.79 22.49 81.79 22.34L81.79 20.98C81.79 20.87 81.75 20.77 81.66 20.68C81.58 20.6 81.47 20.56 81.36 20.56L77.46 20.56C76.85 20.56 76.41 20.43 76.17 20.18C75.94 19.92 75.81 19.43 75.81 18.73L75.81 7.59C75.81 7.48 75.77 7.38 75.68 7.29C75.6 7.21 75.49 7.16 75.39 7.16L73.29 7.16C73.18 7.16 73.08 7.21 72.99 7.29C72.91 7.38 72.87 7.48 72.87 7.59L72.87 18.73C72.87 19.65 72.99 20.37 73.25 20.94C73.5 21.51 73.84 21.93 74.29 22.25C74.73 22.57 75.24 22.8 75.83 22.91C76.43 23.01 77.06 23.08 77.76 23.08L77.76 23.08C78.04 23.08 78.35 23.08 78.72 23.06C79.08 23.04 79.41 23.01 79.75 22.99C80.09 22.97 80.41 22.93 80.71 22.89C80.98 22.87 81.22 22.82 81.36 22.78C81.51 22.76 81.64 22.72 81.7 22.65ZM86.62 22.78C86.7 22.7 86.75 22.59 86.75 22.49L86.75 7.57C86.75 7.46 86.7 7.36 86.62 7.27C86.53 7.21 86.43 7.16 86.32 7.16L84.22 7.16C84.12 7.16 84.01 7.21 83.93 7.27C83.84 7.36 83.8 7.46 83.8 7.57L83.8 22.49C83.8 22.59 83.84 22.7 83.93 22.78C84.01 22.87 84.12 22.91 84.22 22.91L86.32 22.91C86.43 22.91 86.53 22.87 86.62 22.78ZM115.29 22.65C115.44 22.51 115.52 22.29 115.52 22.06L115.52 7.57C115.52 7.29 115.4 7.16 115.12 7.16L113.3 7.16C113.02 7.16 112.89 7.29 112.89 7.57L112.89 18.71C112.89 18.84 112.85 18.9 112.79 18.9C112.73 18.9 112.66 18.84 112.62 18.73L107.68 7.84C107.56 7.57 107.43 7.38 107.3 7.29C107.15 7.21 106.98 7.16 106.75 7.16L104.46 7.16C104.23 7.16 104.02 7.25 103.87 7.4C103.7 7.57 103.61 7.78 103.61 8.01L103.61 22.49C103.61 22.59 103.66 22.7 103.74 22.78C103.83 22.87 103.93 22.91 104.04 22.91L105.84 22.91C105.94 22.91 106.05 22.87 106.14 22.78C106.2 22.7 106.24 22.59 106.24 22.49L106.24 11.83C106.24 11.72 106.28 11.66 106.35 11.66C106.41 11.66 106.47 11.72 106.54 11.83L111.24 22.15C111.41 22.53 111.6 22.74 111.84 22.8C112.05 22.87 112.28 22.91 112.53 22.91L114.67 22.91C114.91 22.91 115.12 22.82 115.29 22.65ZM95.41 9.54C95.46 9.6 95.5 9.69 95.52 9.81L97.04 16.11L93.31 16.11L94.84 9.81C94.86 9.69 94.9 9.6 94.95 9.54C94.99 9.5 95.07 9.47 95.18 9.47C95.29 9.47 95.37 9.5 95.41 9.54ZM65.09 9.54C65.13 9.6 65.17 9.69 65.2 9.81L66.72 16.11L62.99 16.11L64.52 9.81C64.54 9.69 64.58 9.6 64.62 9.54C64.67 9.5 64.75 9.47 64.86 9.47C64.96 9.47 65.05 9.5 65.09 9.54Z" fill="#292D33" fill-opacity="1.000000" fill-rule="evenodd"></path>
      <path id="Vector" d="M65.56 31.48C65.76 31.08 65.87 30.58 65.87 29.98L65.87 29.86C65.87 29.27 65.76 28.77 65.56 28.36C65.34 27.97 65.06 27.64 64.7 27.4C64.34 27.16 63.93 26.98 63.47 26.89C62.99 26.79 62.49 26.74 61.98 26.74C61.48 26.74 60.99 26.75 60.53 26.78C60.07 26.82 59.67 26.86 59.32 26.91C59.18 26.93 59.07 26.97 59.01 27.02C58.93 27.09 58.89 27.18 58.89 27.32L58.89 36.62C58.89 36.68 58.91 36.75 58.97 36.81C59.02 36.86 59.09 36.89 59.16 36.89L60.51 36.89C60.57 36.89 60.64 36.86 60.7 36.81C60.74 36.75 60.76 36.68 60.76 36.62L60.76 33.09C60.91 33.1 61.11 33.1 61.34 33.12C61.59 33.13 61.79 33.14 61.97 33.14C62.49 33.14 62.99 33.09 63.47 32.98C63.93 32.89 64.34 32.71 64.7 32.45C65.06 32.21 65.34 31.89 65.56 31.48ZM74.48 36.89C74.59 36.89 74.64 36.83 74.64 36.72C74.64 36.68 74.63 36.64 74.61 36.62L72.49 32.67C73.06 32.45 73.51 32.12 73.83 31.67C74.17 31.23 74.33 30.63 74.33 29.91L74.33 29.79C74.33 29.21 74.22 28.73 74.02 28.33C73.8 27.94 73.52 27.63 73.15 27.4C72.8 27.17 72.38 27 71.92 26.89C71.45 26.79 70.95 26.74 70.44 26.74C69.94 26.74 69.45 26.75 68.99 26.78C68.53 26.82 68.13 26.86 67.78 26.91C67.64 26.93 67.53 26.97 67.47 27.02C67.38 27.09 67.34 27.18 67.34 27.32L67.34 36.62C67.34 36.68 67.37 36.75 67.43 36.81C67.48 36.86 67.55 36.89 67.61 36.89L68.97 36.89C69.03 36.89 69.1 36.86 69.15 36.81C69.19 36.75 69.22 36.68 69.22 36.62L69.22 32.97C69.37 32.98 69.57 32.98 69.8 33C70.03 33.01 70.25 33.02 70.42 33.02L70.61 33.02L72.56 36.62C72.6 36.68 72.63 36.75 72.67 36.81C72.71 36.86 72.76 36.89 72.83 36.89L74.48 36.89ZM83.03 34.7C83.22 34.17 83.32 33.52 83.32 32.78L83.32 30.95C83.32 30.21 83.22 29.58 83.03 29.04C82.83 28.51 82.57 28.06 82.22 27.73C81.88 27.39 81.48 27.14 81.01 26.98C80.55 26.82 80.03 26.74 79.48 26.74C78.91 26.74 78.4 26.82 77.94 26.98C77.46 27.14 77.06 27.39 76.72 27.73C76.38 28.06 76.11 28.51 75.92 29.04C75.72 29.58 75.63 30.21 75.63 30.95L75.63 32.78C75.63 33.52 75.72 34.17 75.92 34.7C76.11 35.22 76.38 35.66 76.72 36C77.06 36.33 77.46 36.59 77.94 36.75C78.4 36.91 78.91 37 79.48 37C80.03 37 80.55 36.91 81.01 36.75C81.48 36.59 81.88 36.33 82.22 36C82.57 35.66 82.83 35.22 83.03 34.7ZM91.25 35.93C91.99 35.22 92.36 34.2 92.36 32.86L92.36 30.87C92.36 29.54 91.99 28.51 91.25 27.79C90.52 27.09 89.46 26.74 88.11 26.74C87.86 26.74 87.61 26.74 87.34 26.75C87.07 26.77 86.82 26.78 86.57 26.79C86.32 26.81 86.1 26.83 85.9 26.85C85.69 26.86 85.53 26.89 85.44 26.9C85.32 26.91 85.23 26.96 85.18 27.02C85.11 27.09 85.09 27.18 85.09 27.32L85.09 36.41C85.09 36.55 85.11 36.64 85.18 36.71C85.23 36.78 85.32 36.82 85.44 36.83C85.53 36.85 85.69 36.87 85.9 36.89C86.1 36.9 86.32 36.93 86.57 36.94C86.82 36.95 87.07 36.97 87.34 36.98C87.61 37 87.86 37 88.11 37C89.46 37 90.52 36.64 91.25 35.93ZM109.31 36.67C109.37 36.63 109.4 36.56 109.4 36.47L109.4 35.56C109.4 35.48 109.38 35.41 109.34 35.36C109.3 35.31 109.22 35.28 109.13 35.28L109.1 35.28C108.98 35.29 108.84 35.29 108.68 35.31C108.5 35.32 108.33 35.33 108.14 35.35C107.95 35.36 107.76 35.36 107.56 35.37C107.35 35.39 107.17 35.39 106.99 35.39C106.71 35.39 106.44 35.35 106.21 35.25C105.96 35.17 105.76 35.04 105.58 34.83C105.41 34.63 105.27 34.37 105.18 34.05C105.08 33.72 105.03 33.33 105.03 32.86L105.03 30.87C105.03 30.4 105.08 30 105.18 29.67C105.27 29.35 105.41 29.09 105.58 28.89C105.76 28.7 105.96 28.56 106.21 28.47C106.44 28.39 106.71 28.35 106.99 28.35C107.17 28.35 107.35 28.35 107.56 28.36C107.76 28.37 107.95 28.37 108.14 28.39C108.33 28.4 108.5 28.4 108.68 28.41C108.84 28.43 108.98 28.44 109.1 28.46L109.13 28.46C109.22 28.46 109.3 28.43 109.34 28.37C109.38 28.32 109.4 28.25 109.4 28.17L109.4 27.27C109.4 27.17 109.37 27.09 109.31 27.05C109.26 27.01 109.19 26.98 109.1 26.96C109.04 26.94 108.95 26.93 108.83 26.9C108.69 26.87 108.53 26.85 108.34 26.82C108.15 26.81 107.94 26.78 107.71 26.77C107.48 26.75 107.22 26.74 106.96 26.74C106.56 26.74 106.13 26.79 105.68 26.9C105.23 27.02 104.81 27.23 104.45 27.54C104.07 27.85 103.77 28.27 103.52 28.79C103.27 29.33 103.15 30.02 103.15 30.87L103.15 32.86C103.15 33.7 103.27 34.39 103.52 34.91C103.77 35.44 104.07 35.86 104.45 36.17C104.81 36.48 105.23 36.7 105.68 36.82C106.13 36.94 106.56 37 106.96 37C107.22 37 107.48 36.98 107.71 36.97C107.94 36.95 108.15 36.93 108.34 36.91C108.53 36.89 108.69 36.86 108.83 36.83C108.95 36.82 109.04 36.79 109.1 36.78C109.19 36.75 109.26 36.71 109.31 36.67ZM129.89 34.7C130.08 34.17 130.18 33.52 130.18 32.78L130.18 30.95C130.18 30.21 130.08 29.58 129.89 29.04C129.69 28.51 129.43 28.06 129.08 27.73C128.75 27.39 128.34 27.14 127.87 26.98C127.41 26.82 126.89 26.74 126.34 26.74C125.77 26.74 125.26 26.82 124.8 26.98C124.33 27.14 123.92 27.39 123.58 27.73C123.25 28.06 122.98 28.51 122.79 29.04C122.58 29.58 122.49 30.21 122.49 30.95L122.49 32.78C122.49 33.52 122.58 34.17 122.79 34.7C122.98 35.22 123.25 35.66 123.58 36C123.92 36.33 124.33 36.59 124.8 36.75C125.26 36.91 125.77 37 126.34 37C126.89 37 127.41 36.91 127.87 36.75C128.34 36.59 128.75 36.33 129.08 36C129.43 35.66 129.69 35.22 129.89 34.7ZM101.19 34.98C101.37 34.5 101.46 33.89 101.46 33.17L101.46 27.1C101.46 27.04 101.44 26.97 101.38 26.91C101.33 26.87 101.26 26.85 101.19 26.85L99.85 26.85C99.79 26.85 99.72 26.87 99.67 26.91C99.61 26.97 99.58 27.04 99.58 27.1L99.58 33.18C99.58 33.56 99.56 33.9 99.5 34.18C99.45 34.47 99.36 34.71 99.22 34.9C99.07 35.09 98.88 35.22 98.65 35.32C98.41 35.41 98.11 35.45 97.75 35.45C97.38 35.45 97.07 35.41 96.84 35.32C96.61 35.22 96.42 35.09 96.29 34.9C96.14 34.71 96.04 34.47 95.99 34.18C95.94 33.9 95.91 33.56 95.91 33.18L95.91 27.1C95.91 27.04 95.88 26.97 95.83 26.91C95.77 26.87 95.71 26.85 95.64 26.85L94.3 26.85C94.23 26.85 94.17 26.87 94.11 26.91C94.06 26.97 94.03 27.04 94.03 27.1L94.03 33.17C94.03 33.89 94.13 34.5 94.31 34.98C94.49 35.47 94.75 35.86 95.08 36.16C95.41 36.45 95.8 36.67 96.26 36.79C96.71 36.93 97.21 37 97.75 37C98.29 37 98.79 36.93 99.25 36.79C99.69 36.67 100.09 36.45 100.42 36.16C100.75 35.86 101 35.47 101.19 34.98ZM117.42 28.35C117.48 28.31 117.5 28.24 117.5 28.17L117.5 27.1C117.5 27.04 117.48 26.97 117.42 26.91C117.37 26.87 117.3 26.85 117.23 26.85L110.63 26.85C110.56 26.85 110.49 26.87 110.44 26.91C110.38 26.97 110.35 27.04 110.35 27.1L110.35 28.17C110.35 28.24 110.38 28.31 110.44 28.35C110.49 28.39 110.56 28.41 110.63 28.41L112.99 28.41L112.99 36.62C112.99 36.68 113.02 36.75 113.07 36.81C113.12 36.86 113.19 36.89 113.26 36.89L114.6 36.89C114.67 36.89 114.73 36.86 114.79 36.81C114.84 36.75 114.87 36.68 114.87 36.62L114.87 28.41L117.23 28.41C117.3 28.41 117.37 28.39 117.42 28.35ZM120.65 36.81C120.71 36.75 120.73 36.68 120.73 36.62L120.73 27.1C120.73 27.04 120.71 26.97 120.65 26.91C120.6 26.87 120.53 26.85 120.46 26.85L119.12 26.85C119.06 26.85 118.99 26.87 118.94 26.91C118.88 26.97 118.85 27.04 118.85 27.1L118.85 36.62C118.85 36.68 118.88 36.75 118.94 36.81C118.99 36.86 119.06 36.89 119.12 36.89L120.46 36.89C120.53 36.89 120.6 36.86 120.65 36.81ZM139.39 36.72C139.49 36.63 139.54 36.5 139.54 36.35L139.54 27.1C139.54 26.93 139.46 26.85 139.28 26.85L138.12 26.85C137.95 26.85 137.87 26.93 137.87 27.1L137.87 34.21C137.87 34.29 137.84 34.33 137.8 34.33C137.76 34.33 137.72 34.29 137.69 34.22L134.54 27.28C134.46 27.1 134.38 26.98 134.3 26.93C134.2 26.87 134.1 26.85 133.95 26.85L132.49 26.85C132.34 26.85 132.2 26.9 132.11 27C132 27.1 131.95 27.24 131.95 27.39L131.95 36.62C131.95 36.68 131.97 36.75 132.03 36.81C132.08 36.86 132.15 36.89 132.22 36.89L133.37 36.89C133.43 36.89 133.5 36.86 133.56 36.81C133.6 36.75 133.62 36.68 133.62 36.62L133.62 29.82C133.62 29.75 133.65 29.71 133.69 29.71C133.73 29.71 133.77 29.75 133.81 29.82L136.81 36.4C136.92 36.64 137.04 36.78 137.19 36.82C137.33 36.86 137.47 36.89 137.64 36.89L139 36.89C139.15 36.89 139.28 36.83 139.39 36.72ZM63.49 28.64C63.83 28.87 63.99 29.28 63.99 29.85L63.99 29.97C63.99 30.52 63.84 30.93 63.53 31.2C63.22 31.47 62.7 31.6 61.97 31.6C61.91 31.6 61.83 31.6 61.72 31.59L61.72 31.59C61.6 31.59 61.49 31.59 61.37 31.58L61.37 31.58C61.25 31.58 61.13 31.58 61.02 31.56L60.76 31.56L60.76 28.33C60.83 28.32 60.91 28.32 61.02 28.31L61.02 28.31C61.11 28.31 61.22 28.31 61.34 28.29L61.34 28.29C61.47 28.29 61.57 28.29 61.7 28.28L61.97 28.28C62.64 28.28 63.16 28.4 63.49 28.64ZM90.3 29.63C90.42 29.95 90.48 30.37 90.48 30.87L90.48 32.87C90.48 33.37 90.42 33.79 90.3 34.12C90.18 34.45 90 34.71 89.8 34.9C89.59 35.1 89.33 35.24 89.05 35.31C88.75 35.39 88.44 35.43 88.1 35.43C87.84 35.43 87.63 35.43 87.45 35.41C87.27 35.4 87.11 35.4 86.96 35.39L86.96 28.36C87.11 28.35 87.27 28.35 87.45 28.33C87.63 28.32 87.84 28.32 88.1 28.32L88.1 28.32C88.44 28.32 88.75 28.36 89.05 28.43C89.33 28.51 89.59 28.64 89.8 28.83C90 29.04 90.18 29.29 90.3 29.63ZM71.95 28.68C72.29 28.91 72.45 29.28 72.45 29.79L72.45 29.91C72.45 30.51 72.29 30.91 71.97 31.14C71.64 31.37 71.13 31.48 70.42 31.48C70.37 31.48 70.29 31.48 70.18 31.47L70.18 31.47C70.06 31.47 69.95 31.47 69.83 31.45C69.71 31.45 69.59 31.45 69.48 31.44L69.22 31.44L69.22 28.4C69.29 28.39 69.37 28.39 69.48 28.37L69.48 28.37C69.57 28.37 69.68 28.37 69.8 28.36C69.92 28.36 70.03 28.36 70.15 28.35L70.42 28.35C71.1 28.35 71.61 28.46 71.95 28.68ZM80.95 28.98C81.28 29.4 81.44 30.05 81.44 30.95L81.44 32.78C81.44 33.68 81.28 34.33 80.95 34.74C80.64 35.16 80.14 35.36 79.48 35.36C78.8 35.36 78.3 35.16 77.99 34.74C77.67 34.33 77.51 33.68 77.51 32.78L77.51 30.95C77.51 30.05 77.67 29.4 77.99 28.98C78.3 28.58 78.8 28.37 79.48 28.37C80.14 28.37 80.64 28.58 80.95 28.98ZM127.81 28.98C128.14 29.4 128.3 30.05 128.3 30.95L128.3 32.78C128.3 33.68 128.14 34.33 127.81 34.74C127.5 35.16 127 35.36 126.34 35.36C125.66 35.36 125.16 35.16 124.85 34.74C124.53 34.33 124.37 33.68 124.37 32.78L124.37 30.95C124.37 30.05 124.53 29.4 124.85 28.98C125.16 28.58 125.66 28.37 126.34 28.37C127 28.37 127.5 28.58 127.81 28.98Z" fill="#5C8EE6" fill-opacity="1.000000" fill-rule="evenodd"></path>
    </g>
  </symbol>
  <symbol fill="none" xmlns="http://www.w3.org/2000/svg" xmlns:xlink="http://www.w3.org/1999/xlink" viewBox="0 0 140 44" id="logo-light">
    <desc>Created with Pixso.</desc>
    <defs>
      <clipPath id="clip191_1609">
        <rect id="logo" rx="0.000000" width="139.000000" height="43.000000" transform="translate(0.500000 0.500000)" fill="white" fill-opacity="0"></rect>
      </clipPath>
    </defs>
    <rect id="logo" rx="0.000000" width="139.000000" height="43.000000" transform="translate(0.500000 0.500000)" fill="#FFFFFF" fill-opacity="0"></rect>
    <g clip-path="url(#clip191_1609)">
      <path id="Vector" d="M21.99 4.89C24.28 4.89 26.47 5.34 28.47 6.16L28.47 12.35L28.47 21.81C28.47 25.36 25.59 28.24 22.04 28.24C20.53 28.24 19.15 27.72 18.05 26.85L18.05 32.54C19.29 33 20.64 33.25 22.04 33.25C29.02 33.25 33.51 27.74 33.51 21.05L33.51 3.25C30.16 1.19 26.21 0 21.99 0C9.84 0 0 9.84 0 21.99C0 28.92 3.21 35.11 8.22 39.14L8.22 32.13C6.13 29.3 4.89 25.79 4.89 21.99C4.89 12.54 12.54 4.89 21.99 4.89Z" fill="#FFFFFF" fill-opacity="1.000000" fill-rule="evenodd"></path>
      <path id="Vector" d="M22.06 39.1C19.76 39.1 17.58 38.65 15.58 37.83L15.58 31.64L15.58 22.18C15.58 18.63 18.45 15.75 22 15.75C23.51 15.75 24.9 16.27 26 17.14L26 11.45C24.75 10.99 23.41 10.74 22 10.74C15.02 10.74 10.54 16.25 10.54 22.94L10.54 40.74C13.89 42.8 17.83 44 22.06 44C34.2 44 44.05 34.15 44.05 22C44.05 15.07 40.84 8.88 35.82 4.85L35.82 11.86C37.92 14.69 39.16 18.2 39.16 22C39.16 31.45 31.5 39.1 22.06 39.1Z" fill="#5C8EE6" fill-opacity="1.000000" fill-rule="evenodd"></path>
      <path id="Vector" d="M71.19 22.8C71.26 22.74 71.3 22.65 71.3 22.55L71.3 22.51C71.28 22.49 71.28 22.46 71.28 22.44L67.8 9.16C67.67 8.67 67.48 8.27 67.25 7.99C67.02 7.72 66.76 7.48 66.49 7.33C66.21 7.19 65.92 7.1 65.64 7.06C65.34 7.02 65.09 7 64.86 7C64.62 7 64.37 7.02 64.09 7.06C63.8 7.1 63.52 7.19 63.25 7.33C62.97 7.48 62.7 7.72 62.46 7.99C62.23 8.27 62.04 8.67 61.91 9.16L58.44 22.44L58.44 22.51C58.42 22.53 58.42 22.53 58.42 22.55C58.42 22.65 58.46 22.74 58.52 22.8C58.58 22.87 58.69 22.91 58.8 22.91L61.04 22.91C61.15 22.91 61.23 22.87 61.3 22.8C61.36 22.74 61.42 22.65 61.45 22.55L62.42 18.52L67.29 18.52L68.27 22.55C68.29 22.65 68.35 22.74 68.42 22.8C68.48 22.87 68.57 22.91 68.67 22.91L70.92 22.91C71.02 22.91 71.13 22.87 71.19 22.8ZM101.52 22.8C101.58 22.74 101.62 22.65 101.62 22.55L101.62 22.51C101.6 22.49 101.6 22.46 101.6 22.44L98.13 9.16C98 8.67 97.81 8.27 97.57 7.99C97.34 7.72 97.09 7.48 96.81 7.33C96.54 7.19 96.24 7.1 95.96 7.06C95.67 7.02 95.41 7 95.18 7C94.95 7 94.69 7.02 94.42 7.06C94.12 7.1 93.84 7.19 93.57 7.33C93.29 7.48 93.02 7.72 92.79 7.99C92.55 8.27 92.36 8.67 92.23 9.16L88.76 22.44L88.76 22.51C88.74 22.53 88.74 22.53 88.74 22.55C88.74 22.65 88.78 22.74 88.84 22.8C88.91 22.87 89.01 22.91 89.12 22.91L91.37 22.91C91.47 22.91 91.56 22.87 91.62 22.8C91.68 22.74 91.75 22.65 91.77 22.55L92.74 18.52L97.62 18.52L98.59 22.55C98.61 22.65 98.68 22.74 98.74 22.8C98.8 22.87 98.89 22.91 98.99 22.91L101.24 22.91C101.35 22.91 101.45 22.87 101.52 22.8ZM127.94 22.57C128.02 22.51 128.07 22.4 128.07 22.25L128.07 20.83C128.07 20.7 128.05 20.6 127.98 20.51C127.92 20.43 127.79 20.39 127.64 20.39L127.6 20.39C127.41 20.41 127.2 20.41 126.94 20.43C126.67 20.45 126.39 20.47 126.1 20.49C125.8 20.51 125.5 20.51 125.19 20.54C124.87 20.56 124.57 20.56 124.3 20.56C123.85 20.56 123.43 20.49 123.07 20.35C122.68 20.22 122.37 20.01 122.09 19.69C121.82 19.37 121.6 18.97 121.46 18.46C121.31 17.95 121.22 17.34 121.22 16.59L121.22 13.48C121.22 12.74 121.31 12.1 121.46 11.59C121.6 11.08 121.82 10.68 122.09 10.36C122.37 10.07 122.68 9.86 123.07 9.71C123.43 9.58 123.85 9.52 124.3 9.52C124.57 9.52 124.87 9.52 125.19 9.54C125.5 9.56 125.8 9.56 126.1 9.58C126.39 9.6 126.67 9.6 126.94 9.62C127.2 9.64 127.41 9.67 127.6 9.69L127.64 9.69C127.79 9.69 127.92 9.64 127.98 9.56C128.05 9.47 128.07 9.37 128.07 9.24L128.07 7.82C128.07 7.67 128.02 7.55 127.94 7.48C127.86 7.42 127.75 7.38 127.6 7.33C127.52 7.31 127.37 7.29 127.18 7.25C126.97 7.21 126.71 7.16 126.41 7.12C126.12 7.1 125.78 7.06 125.42 7.04C125.06 7.02 124.66 7 124.25 7C123.62 7 122.94 7.08 122.24 7.25C121.54 7.44 120.88 7.76 120.31 8.25C119.72 8.73 119.25 9.39 118.85 10.22C118.47 11.06 118.28 12.14 118.28 13.48L118.28 16.59C118.28 17.91 118.47 18.99 118.85 19.82C119.25 20.64 119.72 21.3 120.31 21.79C120.88 22.27 121.54 22.61 122.24 22.8C122.94 22.99 123.62 23.08 124.25 23.08C124.66 23.08 125.06 23.06 125.42 23.04C125.78 23.01 126.12 22.97 126.41 22.95C126.71 22.91 126.97 22.87 127.18 22.82C127.37 22.8 127.52 22.76 127.6 22.74C127.75 22.7 127.86 22.63 127.94 22.57ZM139.91 22.65C139.98 22.59 140 22.49 140 22.34L140 20.98C140 20.87 139.95 20.77 139.87 20.68C139.78 20.6 139.68 20.56 139.57 20.56L135.25 20.56C134.64 20.56 134.19 20.43 133.96 20.18C133.7 19.92 133.58 19.43 133.58 18.73L133.58 16L139.32 16C139.42 16 139.53 15.96 139.62 15.87C139.7 15.79 139.74 15.68 139.74 15.58L139.74 14.05C139.74 13.95 139.7 13.84 139.62 13.75C139.53 13.67 139.42 13.63 139.32 13.63L133.58 13.63L133.58 11.34C133.58 10.64 133.7 10.15 133.96 9.9C134.19 9.64 134.64 9.52 135.25 9.52L139.57 9.52C139.68 9.52 139.78 9.47 139.87 9.39C139.95 9.3 140 9.2 140 9.09L140 7.74C140 7.59 139.98 7.48 139.91 7.42C139.85 7.36 139.72 7.31 139.57 7.29C139.4 7.27 139.21 7.23 139.02 7.19C138.81 7.16 138.56 7.12 138.26 7.1C137.94 7.08 137.58 7.04 137.16 7.02C136.71 7 136.18 7 135.55 7L135.55 7C134.85 7 134.21 7.06 133.62 7.16C133.03 7.27 132.5 7.48 132.07 7.8C131.63 8.12 131.27 8.56 131.01 9.14C130.76 9.71 130.63 10.43 130.63 11.34L130.63 18.73C130.63 19.65 130.76 20.37 131.01 20.94C131.27 21.51 131.63 21.93 132.07 22.25C132.5 22.57 133.03 22.8 133.62 22.91C134.21 23.01 134.85 23.08 135.55 23.08L135.55 23.08C136.18 23.08 136.71 23.08 137.16 23.06C137.58 23.04 137.94 22.99 138.26 22.97C138.56 22.95 138.81 22.91 139.02 22.87C139.21 22.85 139.4 22.8 139.57 22.78C139.72 22.76 139.85 22.72 139.91 22.65ZM81.7 22.65C81.77 22.59 81.79 22.49 81.79 22.34L81.79 20.98C81.79 20.87 81.75 20.77 81.66 20.68C81.58 20.6 81.47 20.56 81.36 20.56L77.46 20.56C76.85 20.56 76.41 20.43 76.17 20.18C75.94 19.92 75.81 19.43 75.81 18.73L75.81 7.59C75.81 7.48 75.77 7.38 75.68 7.29C75.6 7.21 75.49 7.16 75.39 7.16L73.29 7.16C73.18 7.16 73.08 7.21 72.99 7.29C72.91 7.38 72.87 7.48 72.87 7.59L72.87 18.73C72.87 19.65 72.99 20.37 73.25 20.94C73.5 21.51 73.84 21.93 74.29 22.25C74.73 22.57 75.24 22.8 75.83 22.91C76.43 23.01 77.06 23.08 77.76 23.08L77.76 23.08C78.04 23.08 78.35 23.08 78.72 23.06C79.08 23.04 79.41 23.01 79.75 22.99C80.09 22.97 80.41 22.93 80.71 22.89C80.98 22.87 81.22 22.82 81.36 22.78C81.51 22.76 81.64 22.72 81.7 22.65ZM86.62 22.78C86.7 22.7 86.75 22.59 86.75 22.49L86.75 7.57C86.75 7.46 86.7 7.36 86.62 7.27C86.53 7.21 86.43 7.16 86.32 7.16L84.22 7.16C84.12 7.16 84.01 7.21 83.93 7.27C83.84 7.36 83.8 7.46 83.8 7.57L83.8 22.49C83.8 22.59 83.84 22.7 83.93 22.78C84.01 22.87 84.12 22.91 84.22 22.91L86.32 22.91C86.43 22.91 86.53 22.87 86.62 22.78ZM115.29 22.65C115.44 22.51 115.52 22.29 115.52 22.06L115.52 7.57C115.52 7.29 115.4 7.16 115.12 7.16L113.3 7.16C113.02 7.16 112.89 7.29 112.89 7.57L112.89 18.71C112.89 18.84 112.85 18.9 112.79 18.9C112.73 18.9 112.66 18.84 112.62 18.73L107.68 7.84C107.56 7.57 107.43 7.38 107.3 7.29C107.15 7.21 106.98 7.16 106.75 7.16L104.46 7.16C104.23 7.16 104.02 7.25 103.87 7.4C103.7 7.57 103.61 7.78 103.61 8.01L103.61 22.49C103.61 22.59 103.66 22.7 103.74 22.78C103.83 22.87 103.93 22.91 104.04 22.91L105.84 22.91C105.94 22.91 106.05 22.87 106.14 22.78C106.2 22.7 106.24 22.59 106.24 22.49L106.24 11.83C106.24 11.72 106.28 11.66 106.35 11.66C106.41 11.66 106.47 11.72 106.54 11.83L111.24 22.15C111.41 22.53 111.6 22.74 111.84 22.8C112.05 22.87 112.28 22.91 112.53 22.91L114.67 22.91C114.91 22.91 115.12 22.82 115.29 22.65ZM95.41 9.54C95.46 9.6 95.5 9.69 95.52 9.81L97.04 16.11L93.31 16.11L94.84 9.81C94.86 9.69 94.9 9.6 94.95 9.54C94.99 9.5 95.07 9.47 95.18 9.47C95.29 9.47 95.37 9.5 95.41 9.54ZM65.09 9.54C65.13 9.6 65.17 9.69 65.2 9.81L66.72 16.11L62.99 16.11L64.52 9.81C64.54 9.69 64.58 9.6 64.62 9.54C64.67 9.5 64.75 9.47 64.86 9.47C64.96 9.47 65.05 9.5 65.09 9.54Z" fill="#292D33" fill-opacity="1.000000" fill-rule="evenodd"></path>
      <path id="Vector" d="M65.56 31.48C65.76 31.08 65.87 30.58 65.87 29.98L65.87 29.86C65.87 29.27 65.76 28.77 65.56 28.36C65.34 27.97 65.06 27.64 64.7 27.4C64.34 27.16 63.93 26.98 63.47 26.89C62.99 26.79 62.49 26.74 61.98 26.74C61.48 26.74 60.99 26.75 60.53 26.78C60.07 26.82 59.67 26.86 59.32 26.91C59.18 26.93 59.07 26.97 59.01 27.02C58.93 27.09 58.89 27.18 58.89 27.32L58.89 36.62C58.89 36.68 58.91 36.75 58.97 36.81C59.02 36.86 59.09 36.89 59.16 36.89L60.51 36.89C60.57 36.89 60.64 36.86 60.7 36.81C60.74 36.75 60.76 36.68 60.76 36.62L60.76 33.09C60.91 33.1 61.11 33.1 61.34 33.12C61.59 33.13 61.79 33.14 61.97 33.14C62.49 33.14 62.99 33.09 63.47 32.98C63.93 32.89 64.34 32.71 64.7 32.45C65.06 32.21 65.34 31.89 65.56 31.48ZM74.48 36.89C74.59 36.89 74.64 36.83 74.64 36.72C74.64 36.68 74.63 36.64 74.61 36.62L72.49 32.67C73.06 32.45 73.51 32.12 73.83 31.67C74.17 31.23 74.33 30.63 74.33 29.91L74.33 29.79C74.33 29.21 74.22 28.73 74.02 28.33C73.8 27.94 73.52 27.63 73.15 27.4C72.8 27.17 72.38 27 71.92 26.89C71.45 26.79 70.95 26.74 70.44 26.74C69.94 26.74 69.45 26.75 68.99 26.78C68.53 26.82 68.13 26.86 67.78 26.91C67.64 26.93 67.53 26.97 67.47 27.02C67.38 27.09 67.34 27.18 67.34 27.32L67.34 36.62C67.34 36.68 67.37 36.75 67.43 36.81C67.48 36.86 67.55 36.89 67.61 36.89L68.97 36.89C69.03 36.89 69.1 36.86 69.15 36.81C69.19 36.75 69.22 36.68 69.22 36.62L69.22 32.97C69.37 32.98 69.57 32.98 69.8 33C70.03 33.01 70.25 33.02 70.42 33.02L70.61 33.02L72.56 36.62C72.6 36.68 72.63 36.75 72.67 36.81C72.71 36.86 72.76 36.89 72.83 36.89L74.48 36.89ZM83.03 34.7C83.22 34.17 83.32 33.52 83.32 32.78L83.32 30.95C83.32 30.21 83.22 29.58 83.03 29.04C82.83 28.51 82.57 28.06 82.22 27.73C81.88 27.39 81.48 27.14 81.01 26.98C80.55 26.82 80.03 26.74 79.48 26.74C78.91 26.74 78.4 26.82 77.94 26.98C77.46 27.14 77.06 27.39 76.72 27.73C76.38 28.06 76.11 28.51 75.92 29.04C75.72 29.58 75.63 30.21 75.63 30.95L75.63 32.78C75.63 33.52 75.72 34.17 75.92 34.7C76.11 35.22 76.38 35.66 76.72 36C77.06 36.33 77.46 36.59 77.94 36.75C78.4 36.91 78.91 37 79.48 37C80.03 37 80.55 36.91 81.01 36.75C81.48 36.59 81.88 36.33 82.22 36C82.57 35.66 82.83 35.22 83.03 34.7ZM91.25 35.93C91.99 35.22 92.36 34.2 92.36 32.86L92.36 30.87C92.36 29.54 91.99 28.51 91.25 27.79C90.52 27.09 89.46 26.74 88.11 26.74C87.86 26.74 87.61 26.74 87.34 26.75C87.07 26.77 86.82 26.78 86.57 26.79C86.32 26.81 86.1 26.83 85.9 26.85C85.69 26.86 85.53 26.89 85.44 26.9C85.32 26.91 85.23 26.96 85.18 27.02C85.11 27.09 85.09 27.18 85.09 27.32L85.09 36.41C85.09 36.55 85.11 36.64 85.18 36.71C85.23 36.78 85.32 36.82 85.44 36.83C85.53 36.85 85.69 36.87 85.9 36.89C86.1 36.9 86.32 36.93 86.57 36.94C86.82 36.95 87.07 36.97 87.34 36.98C87.61 37 87.86 37 88.11 37C89.46 37 90.52 36.64 91.25 35.93ZM109.31 36.67C109.37 36.63 109.4 36.56 109.4 36.47L109.4 35.56C109.4 35.48 109.38 35.41 109.34 35.36C109.3 35.31 109.22 35.28 109.13 35.28L109.1 35.28C108.98 35.29 108.84 35.29 108.68 35.31C108.5 35.32 108.33 35.33 108.14 35.35C107.95 35.36 107.76 35.36 107.56 35.37C107.35 35.39 107.17 35.39 106.99 35.39C106.71 35.39 106.44 35.35 106.21 35.25C105.96 35.17 105.76 35.04 105.58 34.83C105.41 34.63 105.27 34.37 105.18 34.05C105.08 33.72 105.03 33.33 105.03 32.86L105.03 30.87C105.03 30.4 105.08 30 105.18 29.67C105.27 29.35 105.41 29.09 105.58 28.89C105.76 28.7 105.96 28.56 106.21 28.47C106.44 28.39 106.71 28.35 106.99 28.35C107.17 28.35 107.35 28.35 107.56 28.36C107.76 28.37 107.95 28.37 108.14 28.39C108.33 28.4 108.5 28.4 108.68 28.41C108.84 28.43 108.98 28.44 109.1 28.46L109.13 28.46C109.22 28.46 109.3 28.43 109.34 28.37C109.38 28.32 109.4 28.25 109.4 28.17L109.4 27.27C109.4 27.17 109.37 27.09 109.31 27.05C109.26 27.01 109.19 26.98 109.1 26.96C109.04 26.94 108.95 26.93 108.83 26.9C108.69 26.87 108.53 26.85 108.34 26.82C108.15 26.81 107.94 26.78 107.71 26.77C107.48 26.75 107.22 26.74 106.96 26.74C106.56 26.74 106.13 26.79 105.68 26.9C105.23 27.02 104.81 27.23 104.45 27.54C104.07 27.85 103.77 28.27 103.52 28.79C103.27 29.33 103.15 30.02 103.15 30.87L103.15 32.86C103.15 33.7 103.27 34.39 103.52 34.91C103.77 35.44 104.07 35.86 104.45 36.17C104.81 36.48 105.23 36.7 105.68 36.82C106.13 36.94 106.56 37 106.96 37C107.22 37 107.48 36.98 107.71 36.97C107.94 36.95 108.15 36.93 108.34 36.91C108.53 36.89 108.69 36.86 108.83 36.83C108.95 36.82 109.04 36.79 109.1 36.78C109.19 36.75 109.26 36.71 109.31 36.67ZM129.89 34.7C130.08 34.17 130.18 33.52 130.18 32.78L130.18 30.95C130.18 30.21 130.08 29.58 129.89 29.04C129.69 28.51 129.43 28.06 129.08 27.73C128.75 27.39 128.34 27.14 127.87 26.98C127.41 26.82 126.89 26.74 126.34 26.74C125.77 26.74 125.26 26.82 124.8 26.98C124.33 27.14 123.92 27.39 123.58 27.73C123.25 28.06 122.98 28.51 122.79 29.04C122.58 29.58 122.49 30.21 122.49 30.95L122.49 32.78C122.49 33.52 122.58 34.17 122.79 34.7C122.98 35.22 123.25 35.66 123.58 36C123.92 36.33 124.33 36.59 124.8 36.75C125.26 36.91 125.77 37 126.34 37C126.89 37 127.41 36.91 127.87 36.75C128.34 36.59 128.75 36.33 129.08 36C129.43 35.66 129.69 35.22 129.89 34.7ZM101.19 34.98C101.37 34.5 101.46 33.89 101.46 33.17L101.46 27.1C101.46 27.04 101.44 26.97 101.38 26.91C101.33 26.87 101.26 26.85 101.19 26.85L99.85 26.85C99.79 26.85 99.72 26.87 99.67 26.91C99.61 26.97 99.58 27.04 99.58 27.1L99.58 33.18C99.58 33.56 99.56 33.9 99.5 34.18C99.45 34.47 99.36 34.71 99.22 34.9C99.07 35.09 98.88 35.22 98.65 35.32C98.41 35.41 98.11 35.45 97.75 35.45C97.38 35.45 97.07 35.41 96.84 35.32C96.61 35.22 96.42 35.09 96.29 34.9C96.14 34.71 96.04 34.47 95.99 34.18C95.94 33.9 95.91 33.56 95.91 33.18L95.91 27.1C95.91 27.04 95.88 26.97 95.83 26.91C95.77 26.87 95.71 26.85 95.64 26.85L94.3 26.85C94.23 26.85 94.17 26.87 94.11 26.91C94.06 26.97 94.03 27.04 94.03 27.1L94.03 33.17C94.03 33.89 94.13 34.5 94.31 34.98C94.49 35.47 94.75 35.86 95.08 36.16C95.41 36.45 95.8 36.67 96.26 36.79C96.71 36.93 97.21 37 97.75 37C98.29 37 98.79 36.93 99.25 36.79C99.69 36.67 100.09 36.45 100.42 36.16C100.75 35.86 101 35.47 101.19 34.98ZM117.42 28.35C117.48 28.31 117.5 28.24 117.5 28.17L117.5 27.1C117.5 27.04 117.48 26.97 117.42 26.91C117.37 26.87 117.3 26.85 117.23 26.85L110.63 26.85C110.56 26.85 110.49 26.87 110.44 26.91C110.38 26.97 110.35 27.04 110.35 27.1L110.35 28.17C110.35 28.24 110.38 28.31 110.44 28.35C110.49 28.39 110.56 28.41 110.63 28.41L112.99 28.41L112.99 36.62C112.99 36.68 113.02 36.75 113.07 36.81C113.12 36.86 113.19 36.89 113.26 36.89L114.6 36.89C114.67 36.89 114.73 36.86 114.79 36.81C114.84 36.75 114.87 36.68 114.87 36.62L114.87 28.41L117.23 28.41C117.3 28.41 117.37 28.39 117.42 28.35ZM120.65 36.81C120.71 36.75 120.73 36.68 120.73 36.62L120.73 27.1C120.73 27.04 120.71 26.97 120.65 26.91C120.6 26.87 120.53 26.85 120.46 26.85L119.12 26.85C119.06 26.85 118.99 26.87 118.94 26.91C118.88 26.97 118.85 27.04 118.85 27.1L118.85 36.62C118.85 36.68 118.88 36.75 118.94 36.81C118.99 36.86 119.06 36.89 119.12 36.89L120.46 36.89C120.53 36.89 120.6 36.86 120.65 36.81ZM139.39 36.72C139.49 36.63 139.54 36.5 139.54 36.35L139.54 27.1C139.54 26.93 139.46 26.85 139.28 26.85L138.12 26.85C137.95 26.85 137.87 26.93 137.87 27.1L137.87 34.21C137.87 34.29 137.84 34.33 137.8 34.33C137.76 34.33 137.72 34.29 137.69 34.22L134.54 27.28C134.46 27.1 134.38 26.98 134.3 26.93C134.2 26.87 134.1 26.85 133.95 26.85L132.49 26.85C132.34 26.85 132.2 26.9 132.11 27C132 27.1 131.95 27.24 131.95 27.39L131.95 36.62C131.95 36.68 131.97 36.75 132.03 36.81C132.08 36.86 132.15 36.89 132.22 36.89L133.37 36.89C133.43 36.89 133.5 36.86 133.56 36.81C133.6 36.75 133.62 36.68 133.62 36.62L133.62 29.82C133.62 29.75 133.65 29.71 133.69 29.71C133.73 29.71 133.77 29.75 133.81 29.82L136.81 36.4C136.92 36.64 137.04 36.78 137.19 36.82C137.33 36.86 137.47 36.89 137.64 36.89L139 36.89C139.15 36.89 139.28 36.83 139.39 36.72ZM63.49 28.64C63.83 28.87 63.99 29.28 63.99 29.85L63.99 29.97C63.99 30.52 63.84 30.93 63.53 31.2C63.22 31.47 62.7 31.6 61.97 31.6C61.91 31.6 61.83 31.6 61.72 31.59L61.72 31.59C61.6 31.59 61.49 31.59 61.37 31.58L61.37 31.58C61.25 31.58 61.13 31.58 61.02 31.56L60.76 31.56L60.76 28.33C60.83 28.32 60.91 28.32 61.02 28.31L61.02 28.31C61.11 28.31 61.22 28.31 61.34 28.29L61.34 28.29C61.47 28.29 61.57 28.29 61.7 28.28L61.97 28.28C62.64 28.28 63.16 28.4 63.49 28.64ZM90.3 29.63C90.42 29.95 90.48 30.37 90.48 30.87L90.48 32.87C90.48 33.37 90.42 33.79 90.3 34.12C90.18 34.45 90 34.71 89.8 34.9C89.59 35.1 89.33 35.24 89.05 35.31C88.75 35.39 88.44 35.43 88.1 35.43C87.84 35.43 87.63 35.43 87.45 35.41C87.27 35.4 87.11 35.4 86.96 35.39L86.96 28.36C87.11 28.35 87.27 28.35 87.45 28.33C87.63 28.32 87.84 28.32 88.1 28.32L88.1 28.32C88.44 28.32 88.75 28.36 89.05 28.43C89.33 28.51 89.59 28.64 89.8 28.83C90 29.04 90.18 29.29 90.3 29.63ZM71.95 28.68C72.29 28.91 72.45 29.28 72.45 29.79L72.45 29.91C72.45 30.51 72.29 30.91 71.97 31.14C71.64 31.37 71.13 31.48 70.42 31.48C70.37 31.48 70.29 31.48 70.18 31.47L70.18 31.47C70.06 31.47 69.95 31.47 69.83 31.45C69.71 31.45 69.59 31.45 69.48 31.44L69.22 31.44L69.22 28.4C69.29 28.39 69.37 28.39 69.48 28.37L69.48 28.37C69.57 28.37 69.68 28.37 69.8 28.36C69.92 28.36 70.03 28.36 70.15 28.35L70.42 28.35C71.1 28.35 71.61 28.46 71.95 28.68ZM80.95 28.98C81.28 29.4 81.44 30.05 81.44 30.95L81.44 32.78C81.44 33.68 81.28 34.33 80.95 34.74C80.64 35.16 80.14 35.36 79.48 35.36C78.8 35.36 78.3 35.16 77.99 34.74C77.67 34.33 77.51 33.68 77.51 32.78L77.51 30.95C77.51 30.05 77.67 29.4 77.99 28.98C78.3 28.58 78.8 28.37 79.48 28.37C80.14 28.37 80.64 28.58 80.95 28.98ZM127.81 28.98C128.14 29.4 128.3 30.05 128.3 30.95L128.3 32.78C128.3 33.68 128.14 34.33 127.81 34.74C127.5 35.16 127 35.36 126.34 35.36C125.66 35.36 125.16 35.16 124.85 34.74C124.53 34.33 124.37 33.68 124.37 32.78L124.37 30.95C124.37 30.05 124.53 29.4 124.85 28.98C125.16 28.58 125.66 28.37 126.34 28.37C127 28.37 127.5 28.58 127.81 28.98Z" fill="#5C8EE6" fill-opacity="1.000000" fill-rule="evenodd"></path>
    </g>
  </symbol>
  <symbol fill="none" xmlns="http://www.w3.org/2000/svg" xmlns:xlink="http://www.w3.org/1999/xlink" viewBox="0 0 24 24" id="phone">
    <desc>Created with Pixso.</desc>
    <defs></defs>
    <rect id="phone" rx="0.000000" width="23.000000" height="23.000000" transform="translate(0.500000 0.500000)" fill="#FFFFFF" fill-opacity="0"></rect>
    <path id="Vector" d="M19.96 16.08L19.21 19.23C19.12 19.7 18.75 20.01 18.28 20.01C10.4 19.98 4 13.58 4 5.7C4 5.23 4.28 4.86 4.75 4.76L7.9 4.01C8.34 3.92 8.81 4.17 9 4.58L10.46 7.98C10.62 8.39 10.53 8.86 10.18 9.11L8.5 10.48C9.56 12.64 11.31 14.39 13.5 15.45L14.87 13.76C15.12 13.45 15.59 13.33 16 13.48L19.4 14.95C19.81 15.17 20.06 15.64 19.96 16.08Z" fill="#000000" fill-opacity="1.000000" fill-rule="evenodd"></path>
  </symbol>
  <symbol fill="none" xmlns="http://www.w3.org/2000/svg" xmlns:xlink="http://www.w3.org/1999/xlink" viewBox="0 0 36 36" id="sertificate">
    <desc>Created with Pixso.</desc>
    <defs></defs>
    <rect id="Frame 34" rx="0.000000" width="35.000000" height="35.000000" transform="translate(0.500000 0.500000)" fill="#FFFFFF" fill-opacity="0"></rect>
    <path id="Vector" d="M27.22 9.35L22.68 4.82C22.19 4.32 21.47 4 20.82 4L9.66 4C8.19 4.05 7.04 5.2 7.04 6.67L7.04 13.07C6.71 13.07 6.38 13.02 5.67 12.8C5.62 12.8 5.51 12.8 5.4 12.8C5.12 12.8 4.85 12.91 4.69 13.07C3.7 14.11 3.76 14.06 2.39 14.44C2.01 14.55 1.73 14.82 1.62 15.21C1.29 16.57 1.29 16.52 0.31 17.5C0.04 17.78 -0.07 18.21 0.04 18.6C0.42 19.91 0.42 19.91 0.04 21.22C-0.07 21.6 0.04 22.04 0.31 22.32C1.29 23.3 1.29 23.3 1.62 24.61C1.73 25 2.01 25.27 2.39 25.38C2.5 25.43 2.55 25.43 2.66 25.43L2.66 31.12C2.66 31.45 2.77 31.72 3.04 31.89C3.32 32.05 3.65 32.05 3.92 31.94L7.04 30.35L10.1 31.94C10.26 32 10.37 32 10.54 32L25.41 32C26.83 32 28.04 30.85 28.04 29.42L28.04 11.21C28.04 10.56 27.71 9.85 27.22 9.35ZM21.04 5.8C21.15 5.85 21.31 5.91 21.42 6.02L26.01 10.61C26.12 10.72 26.18 10.89 26.23 11.05L21.04 11.05L21.04 5.8ZM1.84 21.33C2.12 20.13 2.12 19.69 1.84 18.49C2.66 17.61 2.88 17.23 3.21 16.03C4.41 15.7 4.74 15.48 5.62 14.6C6.16 14.77 6.54 14.82 7.04 14.82C7.47 14.82 7.86 14.77 8.4 14.6C9.22 15.48 9.61 15.7 10.81 16.03C11.14 17.23 11.3 17.56 12.18 18.49C11.85 19.69 11.85 20.13 12.18 21.33C11.36 22.21 11.14 22.59 10.81 23.79C9.99 24.01 9.5 24.17 8.73 24.83C8.19 24.61 7.64 24.5 7.04 24.5C6.38 24.5 5.83 24.61 5.29 24.89C4.52 24.23 4.03 24.01 3.21 23.79C2.88 22.59 2.72 22.26 1.84 21.33ZM7.42 28.6C7.15 28.5 6.87 28.5 6.6 28.6L4.41 29.75L4.41 26.42C4.41 26.47 4.41 26.47 4.41 26.47C4.63 26.69 4.9 26.75 5.12 26.75C5.34 26.75 5.51 26.69 5.72 26.64C6.11 26.36 6.54 26.25 7.04 26.25C7.47 26.25 7.91 26.36 8.29 26.58C8.51 26.75 8.68 26.75 8.9 26.75C9.17 26.75 9.39 26.69 9.61 26.47C9.61 26.47 9.61 26.47 9.66 26.42L9.66 29.75L7.42 28.6ZM26.29 29.42C26.29 29.86 25.85 30.3 25.41 30.3L11.41 30.3L11.41 25.43C11.47 25.43 11.52 25.43 11.63 25.38C12.01 25.27 12.29 25 12.4 24.61C12.72 23.25 12.72 23.3 13.71 22.32C13.98 22.04 14.09 21.6 13.98 21.22C13.6 19.91 13.6 19.91 13.98 18.6C14.09 18.21 13.98 17.78 13.71 17.5C12.72 16.52 12.72 16.52 12.4 15.21C12.29 14.82 12.01 14.55 11.63 14.44C10.32 14.06 10.32 14.11 9.33 13.07C9.17 12.91 8.95 12.85 8.79 12.8L8.79 6.67C8.79 6.18 9.17 5.75 9.66 5.75L19.29 5.75L19.29 11.49C19.29 12.2 19.83 12.75 20.6 12.75L26.29 12.75L26.29 29.42Z" fill="#5C8EE6" fill-opacity="1.000000" fill-rule="evenodd"></path>
  </symbol>
  <symbol fill="none" xmlns="http://www.w3.org/2000/svg" xmlns:xlink="http://www.w3.org/1999/xlink" viewBox="0 0 36 36" id="speed">
    <desc>Created with Pixso.</desc>
    <defs></defs>
    <rect id="Frame 37" rx="0.000000" width="35.000000" height="35.000000" transform="translate(0.500000 0.500000)" fill="#FFFFFF" fill-opacity="0"></rect>
    <path id="Vector" d="M11.62 13.87C10.64 13.87 9.87 14.69 9.87 15.62C9.87 16.6 10.64 17.37 11.62 17.37C12.55 17.37 13.37 16.6 13.37 15.62C13.37 14.69 12.55 13.87 11.62 13.87ZM17.75 6C9.05 6 2 13.05 2 21.75C2 24.64 2.76 27.38 4.13 29.67C4.4 30.22 5 30.55 5.6 30.55L29.83 30.55C30.43 30.55 31.03 30.22 31.36 29.67C32.67 27.38 33.5 24.64 33.5 21.75C33.5 13.05 26.44 6 17.75 6ZM17.75 27.87C16.49 27.87 15.56 26.94 15.56 25.68C15.56 24.48 16.49 23.5 17.75 23.5C18.95 23.5 19.93 24.48 19.93 25.68C19.93 26.94 18.95 27.87 17.75 27.87ZM29.34 27.87L22.01 27.87C22.34 27.21 22.56 26.5 22.56 25.68C22.56 25.35 22.5 25.03 22.39 24.7L27.42 22.57C28.08 22.24 28.41 21.47 28.14 20.82C27.81 20.16 27.04 19.83 26.39 20.1L21.19 22.35C20.32 21.47 19.06 20.87 17.75 20.87C15.07 20.87 12.93 23.06 12.93 25.68C12.93 26.5 13.1 27.21 13.48 27.87L6.1 27.87C5.11 26.01 4.62 23.93 4.62 21.75C4.62 14.53 10.47 8.62 17.75 8.62C24.96 8.62 30.87 14.53 30.87 21.75C30.87 23.93 30.32 26.01 29.34 27.87ZM9 20C8.01 20 7.25 20.82 7.25 21.75C7.25 22.73 8.01 23.5 9 23.5C9.92 23.5 10.75 22.73 10.75 21.75C10.75 20.82 9.92 20 9 20ZM17.75 11.25C16.76 11.25 16 12.07 16 13C16 13.98 16.76 14.75 17.75 14.75C18.67 14.75 19.5 13.98 19.5 13C19.5 12.07 18.67 11.25 17.75 11.25ZM23.87 13.87C22.89 13.87 22.12 14.69 22.12 15.62C22.12 16.6 22.89 17.37 23.87 17.37C24.8 17.37 25.62 16.6 25.62 15.62C25.62 14.69 24.8 13.87 23.87 13.87Z" fill="#5C8EE6" fill-opacity="1.000000" fill-rule="nonzero"></path>
  </symbol>
  <symbol fill="none" xmlns="http://www.w3.org/2000/svg" xmlns:xlink="http://www.w3.org/1999/xlink" viewBox="0 0 36 36" id="time">
    <desc>Created with Pixso.</desc>
    <defs></defs>
    <rect id="Frame 36" rx="0.000000" width="35.000000" height="35.000000" transform="translate(0.500000 0.500000)" fill="#FFFFFF" fill-opacity="0"></rect>
    <path id="Vector" d="M20.12 5.75L20.34 5.75C20.67 5.75 21 5.47 21 5.09L21 4.65C21 4.32 20.67 4 20.34 4L0.65 4C0.27 4 0 4.32 0 4.65L0 5.09C0 5.47 0.27 5.75 0.65 5.75L0.87 5.75C0.87 10.78 3.28 16.35 7.92 18C3.22 19.69 0.87 25.27 0.87 30.25L0.65 30.25C0.27 30.25 0 30.57 0 30.9L0 31.34C0 31.72 0.27 32 0.65 32L20.34 32C20.67 32 21 31.72 21 31.34L21 30.9C21 30.57 20.67 30.25 20.34 30.25L20.12 30.25C20.12 25.27 17.66 19.69 13.01 18C17.71 16.35 20.12 10.78 20.12 5.75ZM2.62 5.75L18.37 5.75C18.37 11.82 14.82 16.68 10.5 16.68C6.12 16.68 2.62 11.82 2.62 5.75ZM18.37 30.25L2.62 30.25C2.62 24.23 6.12 19.31 10.5 19.31C14.82 19.31 18.37 24.23 18.37 30.25ZM14.71 12.03C15.03 11.65 14.71 11 14.16 11L6.78 11C6.23 11 5.9 11.65 6.23 12.03C6.34 12.2 6.45 12.36 6.61 12.53C6.72 12.69 6.89 12.75 7.1 12.75L13.83 12.75C14.05 12.75 14.21 12.69 14.32 12.53C14.49 12.36 14.6 12.2 14.71 12.03ZM5.35 26.75C5.03 26.75 4.81 26.96 4.7 27.24C4.7 27.4 4.64 27.57 4.59 27.73C4.53 28.11 4.81 28.5 5.25 28.5L15.69 28.5C16.13 28.5 16.4 28.11 16.35 27.73C16.29 27.57 16.24 27.4 16.24 27.24C16.13 26.96 15.91 26.75 15.58 26.75L5.35 26.75Z" fill="#5C8EE6" fill-opacity="1.000000" fill-rule="nonzero"></path>
  </symbol>
</svg>

