<svg width="0" height="0" class="hidden">
  <symbol fill="none" xmlns="http://www.w3.org/2000/svg" xmlns:xlink="http://www.w3.org/1999/xlink" viewBox="0 0 36 36" id="control">
    <desc>Created with Pixso.</desc>
    <defs></defs>
    <rect id="Frame 33" rx="0.000000" width="35.000000" height="35.000000" transform="translate(0.500000 0.500000)" fill="#FFFFFF" fill-opacity="0"></rect>
    <path id="Vector" d="M17.11 23.25C15.53 23.25 14.82 24.12 12.25 24.12C9.62 24.12 8.91 23.25 7.32 23.25C3.28 23.25 0 26.58 0 30.63C0 31.39 0.6 32 1.36 32L23.07 32C23.84 32 24.5 31.39 24.5 30.63C24.5 26.58 21.16 23.25 17.11 23.25ZM1.75 30.25C1.91 27.35 4.37 25.05 7.32 25C8.42 25 9.46 25.87 12.25 25.87C15.03 25.87 16.02 25 17.11 25C20.07 25.05 22.53 27.35 22.69 30.25L1.75 30.25ZM4.81 12.75L5.46 12.75C5.3 13.35 5.25 13.89 5.25 14.5C5.25 18.38 8.36 21.5 12.25 21.5C16.07 21.5 19.25 18.38 19.25 14.5C19.19 13.89 19.14 13.35 18.97 12.75L19.68 12.75C19.9 12.75 20.12 12.58 20.12 12.31L20.12 11.43C20.12 11.21 19.9 11 19.68 11L19.25 11C19.25 8.21 17.33 5.85 14.71 5.14C14.49 4.49 13.83 4.05 13.12 4L11.37 4C10.6 4.05 9.95 4.49 9.73 5.14C7.16 5.85 5.25 8.21 5.25 11L4.81 11C4.53 11 4.37 11.21 4.37 11.43L4.37 12.31C4.37 12.58 4.53 12.75 4.81 12.75ZM14.87 7C16.4 7.71 17.44 9.25 17.5 11L14.87 11L14.87 7ZM11.37 5.75L13.12 5.75L13.12 11L11.37 11L11.37 5.75ZM7 11C7 9.25 8.03 7.71 9.62 7L9.62 11L7 11ZM7.32 12.75L17.17 12.75C17.33 13.29 17.44 13.89 17.5 14.5C17.5 17.39 15.09 19.75 12.25 19.75C9.35 19.75 7 17.39 7 14.5C7 13.89 7.1 13.29 7.32 12.75Z" fill="#5C8EE6" fill-opacity="1.000000" fill-rule="evenodd"></path>
  </symbol>
  <symbol fill="none" xmlns="http://www.w3.org/2000/svg" xmlns:xlink="http://www.w3.org/1999/xlink" viewBox="0 0 36 36" id="delivery">
    <desc>Created with Pixso.</desc>
    <defs></defs>
    <rect id="Frame 35" rx="0.000000" width="35.000000" height="35.000000" transform="translate(0.500000 0.500000)" fill="#FFFFFF" fill-opacity="0"></rect>
    <path id="Vector" d="M1.75 21.5L20.12 21.5C21.05 21.5 21.87 20.73 21.87 19.75L21.87 7.5C21.87 6.57 21.05 5.75 20.12 5.75L1.75 5.75C0.76 5.75 0 6.57 0 7.5L0 19.75C0 20.73 0.76 21.5 1.75 21.5ZM1.75 7.5L20.12 7.5L20.12 19.75L1.75 19.75L1.75 7.5ZM33.96 15.26L30.73 12.03C30.07 11.38 29.2 11.05 28.27 11.05L24.5 11.05C24 11.05 23.62 11.43 23.62 11.92L23.62 23.3L12.46 23.3C11.81 22.75 10.99 22.42 10.06 22.42C8.8 22.42 7.71 22.97 7 23.9C6.23 22.97 5.14 22.37 3.93 22.37C1.75 22.37 0 24.17 0 26.31C0 28.5 1.75 30.25 3.93 30.25C5.14 30.25 6.23 29.7 7 28.77C7.71 29.7 8.8 30.25 10.06 30.25C12.19 30.25 14 28.5 14 26.31C14 25.87 13.89 25.43 13.72 25L24.55 25C24.39 25.76 24.44 26.53 24.71 27.35C25.15 28.71 26.35 29.81 27.78 30.14C30.62 30.85 33.25 28.66 33.25 25.87C33.25 25.6 33.19 25.32 33.14 25L34.12 25C34.56 25 35 24.61 35 24.12L35 17.72C35 16.79 34.61 15.92 33.96 15.26ZM3.93 28.5C2.67 28.5 1.75 27.57 1.75 26.31C1.75 25.1 2.67 24.12 3.93 24.12C5.14 24.12 6.12 25.1 6.12 26.31C6.12 27.57 5.14 28.5 3.93 28.5ZM10.06 28.5C8.8 28.5 7.87 27.57 7.87 26.31C7.87 25.1 8.8 24.12 10.06 24.12C11.26 24.12 12.25 25.1 12.25 26.31C12.25 27.57 11.26 28.5 10.06 28.5ZM25.37 12.75L28.27 12.75C28.76 12.75 29.2 12.96 29.53 13.29L32.48 16.25L25.37 16.25L25.37 12.75ZM28.87 28.5C27.39 28.5 26.25 27.35 26.25 25.87C26.25 24.45 27.39 23.25 28.87 23.25C30.29 23.25 31.5 24.45 31.5 25.87C31.5 27.35 30.29 28.5 28.87 28.5ZM33.25 23.25L32.32 23.25C31.55 22.21 30.29 21.5 28.87 21.5C27.39 21.5 26.19 22.21 25.37 23.25L25.37 18L33.25 18L33.25 23.25ZM5.68 18L6.56 18C6.78 18 7 17.83 7 17.56L7 9.68C7 9.46 6.78 9.25 6.56 9.25L5.68 9.25C5.41 9.25 5.25 9.46 5.25 9.68L5.25 17.56C5.25 17.83 5.41 18 5.68 18ZM10.93 18L11.81 18C12.03 18 12.25 17.83 12.25 17.56L12.25 9.68C12.25 9.46 12.03 9.25 11.81 9.25L10.93 9.25C10.66 9.25 10.5 9.46 10.5 9.68L10.5 17.56C10.5 17.83 10.66 18 10.93 18ZM16.18 18L17.06 18C17.28 18 17.5 17.83 17.5 17.56L17.5 9.68C17.5 9.46 17.28 9.25 17.06 9.25L16.18 9.25C15.91 9.25 15.75 9.46 15.75 9.68L15.75 17.56C15.75 17.83 15.91 18 16.18 18Z" fill="#5C8EE6" fill-opacity="1.000000" fill-rule="evenodd"></path>
  </symbol>
  <symbol fill="none" xmlns="http://www.w3.org/2000/svg" xmlns:xlink="http://www.w3.org/1999/xlink" viewBox="0 0 140 44" id="logo">
    <desc>Created with Pixso.</desc>
    <defs>
      <clipPath id="clip191_1668">
        <rect id="logo" rx="0.000000" width="139.000000" height="43.000000" transform="translate(0.500000 0.500000)" fill="white" fill-opacity="0"></rect>
      </clipPath>
    </defs>
    <rect id="logo" rx="0.000000" width="139.000000" height="43.000000" transform="translate(0.500000 0.500000)" fill="#FFFFFF" fill-opacity="0"></rect>
    <g clip-path="url(#clip191_1668)">
      <path id="Vector" d="M21.99 4.89C24.28 4.89 26.47 5.34 28.47 6.16L28.47 12.35L28.47 21.81C28.47 25.36 25.59 28.24 22.04 28.24C20.53 28.24 19.15 27.72 18.05 26.85L18.05 32.54C19.29 33 20.64 33.25 22.04 33.25C29.02 33.25 33.51 27.74 33.51 21.05L33.51 3.25C30.16 1.19 26.21 0 21.99 0C9.84 0 0 9.84 0 21.99C0 28.92 3.21 35.11 8.22 39.14L8.22 32.13C6.13 29.3 4.89 25.79 4.89 21.99C4.89 12.54 12.54 4.89 21.99 4.89Z" fill="#292D33" fill-opacity="1.000000" fill-rule="evenodd"></path>
      <path id="Vector" d="M22.06 39.1C19.76 39.1 17.58 38.65 15.58 37.83L15.58 31.64L15.58 22.18C15.58 18.63 18.45 15.75 22 15.75C23.51 15.75 24.9 16.27 26 17.14L26 11.45C24.75 10.99 23.41 10.74 22 10.74C15.02 10.74 10.54 16.25 10.54 22.94L10.54 40.74C13.89 42.8 17.83 44 22.06 44C34.2 44 44.05 34.15 44.05 22C44.05 15.07 40.84 8.88 35.82 4.85L35.82 11.86C37.92 14.69 39.16 18.2 39.16 22C39.16 31.45 31.5 39.1 22.06 39.1Z" fill="#5C8EE6" fill-opacity="1.000000" fill-rule="evenodd"></path>
      <path id="Vector" d="M71.19 22.8C71.26 22.74 71.3 22.65 71.3 22.55L71.3 22.51C71.28 22.49 71.28 22.46 71.28 22.44L67.8 9.16C67.67 8.67 67.48 8.27 67.25 7.99C67.02 7.72 66.76 7.48 66.49 7.33C66.21 7.19 65.92 7.1 65.64 7.06C65.34 7.02 65.09 7 64.86 7C64.62 7 64.37 7.02 64.09 7.06C63.8 7.1 63.52 7.19 63.25 7.33C62.97 7.48 62.7 7.72 62.46 7.99C62.23 8.27 62.04 8.67 61.91 9.16L58.44 22.44L58.44 22.51C58.42 22.53 58.42 22.53 58.42 22.55C58.42 22.65 58.46 22.74 58.52 22.8C58.58 22.87 58.69 22.91 58.8 22.91L61.04 22.91C61.15 22.91 61.23 22.87 61.3 22.8C61.36 22.74 61.42 22.65 61.45 22.55L62.42 18.52L67.29 18.52L68.27 22.55C68.29 22.65 68.35 22.74 68.42 22.8C68.48 22.87 68.57 22.91 68.67 22.91L70.92 22.91C71.02 22.91 71.13 22.87 71.19 22.8ZM101.52 22.8C101.58 22.74 101.62 22.65 101.62 22.55L101.62 22.51C101.6 22.49 101.6 22.46 101.6 22.44L98.13 9.16C98 8.67 97.81 8.27 97.57 7.99C97.34 7.72 97.09 7.48 96.81 7.33C96.54 7.19 96.24 7.1 95.96 7.06C95.67 7.02 95.41 7 95.18 7C94.95 7 94.69 7.02 94.42 7.06C94.12 7.1 93.84 7.19 93.57 7.33C93.29 7.48 93.02 7.72 92.79 7.99C92.55 8.27 92.36 8.67 92.23 9.16L88.76 22.44L88.76 22.51C88.74 22.53 88.74 22.53 88.74 22.55C88.74 22.65 88.78 22.74 88.84 22.8C88.91 22.87 89.01 22.91 89.12 22.91L91.37 22.91C91.47 22.91 91.56 22.87 91.62 22.8C91.68 22.74 91.75 22.65 91.77 22.55L92.74 18.52L97.62 18.52L98.59 22.55C98.61 22.65 98.68 22.74 98.74 22.8C98.8 22.87 98.89 22.91 98.99 22.91L101.24 22.91C101.35 22.91 101.45 22.87 101.52 22.8ZM127.94 22.57C128.02 22.51 128.07 22.4 128.07 22.25L128.07 20.83C128.07 20.7 128.05 20.6 127.98 20.51C127.92 20.43 127.79 20.39 127.64 20.39L127.6 20.39C127.41 20.41 127.2 20.41 126.94 20.43C126.67 20.45 126.39 20.47 126.1 20.49C125.8 20.51 125.5 20.51 125.19 20.54C124.87 20.56 124.57 20.56 124.3 20.56C123.85 20.56 123.43 20.49 123.07 20.35C122.68 20.22 122.37 20.01 122.09 19.69C121.82 19.37 121.6 18.97 121.46 18.46C121.31 17.95 121.22 17.34 121.22 16.59L121.22 13.48C121.22 12.74 121.31 12.1 121.46 11.59C121.6 11.08 121.82 10.68 122.09 10.36C122.37 10.07 122.68 9.86 123.07 9.71C123.43 9.58 123.85 9.52 124.3 9.52C124.57 9.52 124.87 9.52 125.19 9.54C125.5 9.56 125.8 9.56 126.1 9.58C126.39 9.6 126.67 9.6 126.94 9.62C127.2 9.64 127.41 9.67 127.6 9.69L127.64 9.69C127.79 9.69 127.92 9.64 127.98 9.56C128.05 9.47 128.07 9.37 128.07 9.24L128.07 7.82C128.07 7.67 128.02 7.55 127.94 7.48C127.86 7.42 127.75 7.38 127.6 7.33C127.52 7.31 127.37 7.29 127.18 7.25C126.97 7.21 126.71 7.16 126.41 7.12C126.12 7.1 125.78 7.06 125.42 7.04C125.06 7.02 124.66 7 124.25 7C123.62 7 122.94 7.08 122.24 7.25C121.54 7.44 120.88 7.76 120.31 8.25C119.72 8.73 119.25 9.39 118.85 10.22C118.47 11.06 118.28 12.14 118.28 13.48L118.28 16.59C118.28 17.91 118.47 18.99 118.85 19.82C119.25 20.64 119.72 21.3 120.31 21.79C120.88 22.27 121.54 22.61 122.24 22.8C122.94 22.99 123.62 23.08 124.25 23.08C124.66 23.08 125.06 23.06 125.42 23.04C125.78 23.01 126.12 22.97 126.41 22.95C126.71 22.91 126.97 22.87 127.18 22.82C127.37 22.8 127.52 22.76 127.6 22.74C127.75 22.7 127.86 22.63 127.94 22.57ZM139.91 22.65C139.98 22.59 140 22.49 140 22.34L140 20.98C140 20.87 139.95 20.77 139.87 20.68C139.78 20.6 139.68 20.56 139.57 20.56L135.25 20.56C134.64 20.56 134.19 20.43 133.96 20.18C133.7 19.92 133.58 19.43 133.58 18.73L133.58 16L139.32 16C139.42 16 139.53 15.96 139.62 15.87C139.7 15.79 139.74 15.68 139.74 15.58L139.74 14.05C139.74 13.95 139.7 13.84 139.62 13.75C139.53 13.67 139.42 13.63 139.32 13.63L133.58 13.63L133.58 11.34C133.58 10.64 133.7 10.15 133.96 9.9C134.19 9.64 134.64 9.52 135.25 9.52L139.57 9.52C139.68 9.52 139.78 9.47 139.87 9.39C139.95 9.3 140 9.2 140 9.09L140 7.74C140 7.59 139.98 7.48 139.91 7.42C139.85 7.36 139.72 7.31 139.57 7.29C139.4 7.27 139.21 7.23 139.02 7.19C138.81 7.16 138.56 7.12 138.26 7.1C137.94 7.08 137.58 7.04 137.16 7.02C136.71 7 136.18 7 135.55 7L135.55 7C134.85 7 134.21 7.06 133.62 7.16C133.03 7.27 132.5 7.48 132.07 7.8C131.63 8.12 131.27 8.56 131.01 9.14C130.76 9.71 130.63 10.43 130.63 11.34L130.63 18.73C130.63 19.65 130.76 20.37 131.01 20.94C131.27 21.51 131.63 21.93 132.07 22.25C132.5 22.57 133.03 22.8 133.62 22.91C134.21 23.01 134.85 23.08 135.55 23.08L135.55 23.08C136.18 23.08 136.71 23.08 137.16 23.06C137.58 23.04 137.94 22.99 138.26 22.97C138.56 22.95 138.81 22.91 139.02 22.87C139.21 22.85 139.4 22.8 139.57 22.78C139.72 22.76 139.85 22.72 139.91 22.65ZM81.7 22.65C81.77 22.59 81.79 22.49 81.79 22.34L81.79 20.98C81.79 20.87 81.75 20.77 81.66 20.68C81.58 20.6 81.47 20.56 81.36 20.56L77.46 20.56C76.85 20.56 76.41 20.43 76.17 20.18C75.94 19.92 75.81 19.43 75.81 18.73L75.81 7.59C75.81 7.48 75.77 7.38 75.68 7.29C75.6 7.21 75.49 7.16 75.39 7.16L73.29 7.16C73.18 7.16 73.08 7.21 72.99 7.29C72.91 7.38 72.87 7.48 72.87 7.59L72.87 18.73C72.87 19.65 72.99 20.37 73.25 20.94C73.5 21.51 73.84 21.93 74.29 22.25C74.73 22.57 75.24 22.8 75.83 22.91C76.43 23.01 77.06 23.08 77.76 23.08L77.76 23.08C78.04 23.08 78.35 23.08 78.72 23.06C79.08 23.04 79.41 23.01 79.75 22.99C80.09 22.97 80.41 22.93 80.71 22.89C80.98 22.87 81.22 22.82 81.36 22.78C81.51 22.76 81.64 22.72 81.7 22.65ZM86.62 22.78C86.7 22.7 86.75 22.59 86.75 22.49L86.75 7.57C86.75 7.46 86.7 7.36 86.62 7.27C86.53 7.21 86.43 7.16 86.32 7.16L84.22 7.16C84.12 7.16 84.01 7.21 83.93 7.27C83.84 7.36 83.8 7.46 83.8 7.57L83.8 22.49C83.8 22.59 83.84 22.7 83.93 22.78C84.01 22.87 84.12 22.91 84.22 22.91L86.32 22.91C86.43 22.91 86.53 22.87 86.62 22.78ZM115.29 22.65C115.44 22.51 115.52 22.29 115.52 22.06L115.52 7.57C115.52 7.29 115.4 7.16 115.12 7.16L113.3 7.16C113.02 7.16 112.89 7.29 112.89 7.57L112.89 18.71C112.89 18.84 112.85 18.9 112.79 18.9C112.73 18.9 112.66 18.84 112.62 18.73L107.68 7.84C107.56 7.57 107.43 7.38 107.3 7.29C107.15 7.21 106.98 7.16 106.75 7.16L104.46 7.16C104.23 7.16 104.02 7.25 103.87 7.4C103.7 7.57 103.61 7.78 103.61 8.01L103.61 22.49C103.61 22.59 103.66 22.7 103.74 22.78C103.83 22.87 103.93 22.91 104.04 22.91L105.84 22.91C105.94 22.91 106.05 22.87 106.14 22.78C106.2 22.7 106.24 22.59 106.24 22.49L106.24 11.83C106.24 11.72 106.28 11.66 106.35 11.66C106.41 11.66 106.47 11.72 106.54 11.83L111.24 22.15C111.41 22.53 111.6 22.74 111.84 22.8C112.05 22.87 112.28 22.91 112.53 22.91L114.67 22.91C114.91 22.91 115.12 22.82 115.29 22.65ZM95.41 9.54C95.46 9.6 95.5 9.69 95.52 9.81L97.04 16.11L93.31 16.11L94.84 9.81C94.86 9.69 94.9 9.6 94.95 9.54C94.99 9.5 95.07 9.47 95.18 9.47C95.29 9.47 95.37 9.5 95.41 9.54ZM65.09 9.54C65.13 9.6 65.17 9.69 65.2 9.81L66.72 16.11L62.99 16.11L64.52 9.81C64.54 9.69 64.58 9.6 64.62 9.54C64.67 9.5 64.75 9.47 64.86 9.47C64.96 9.47 65.05 9.5 65.09 9.54Z" fill="#292D33" fill-opacity="1.000000" fill-rule="evenodd"></path>
      <path id="Vector" d="M65.56 31.48C65.76 31.08 65.87 30.58 65.87 29.98L65.87 29.86C65.87 29.27 65.76 28.77 65.56 28.36C65.34 27.97 65.06 27.64 64.7 27.4C64.34 27.16 63.93 26.98 63.47 26.89C62.99 26.79 62.49 26.74 61.98 26.74C61.48 26.74 60.99 26.75 60.53 26.78C60.07 26.82 59.67 26.86 59.32 26.91C59.18 26.93 59.07 26.97 59.01 27.02C58.93 27.09 58.89 27.18 58.89 27.32L58.89 36.62C58.89 36.68 58.91 36.75 58.97 36.81C59.02 36.86 59.09 36.89 59.16 36.89L60.51 36.89C60.57 36.89 60.64 36.86 60.7 36.81C60.74 36.75 60.76 36.68 60.76 36.62L60.76 33.09C60.91 33.1 61.11 33.1 61.34 33.12C61.59 33.13 61.79 33.14 61.97 33.14C62.49 33.14 62.99 33.09 63.47 32.98C63.93 32.89 64.34 32.71 64.7 32.45C65.06 32.21 65.34 31.89 65.56 31.48ZM74.48 36.89C74.59 36.89 74.64 36.83 74.64 36.72C74.64 36.68 74.63 36.64 74.61 36.62L72.49 32.67C73.06 32.45 73.51 32.12 73.83 31.67C74.17 31.23 74.33 30.63 74.33 29.91L74.33 29.79C74.33 29.21 74.22 28.73 74.02 28.33C73.8 27.94 73.52 27.63 73.15 27.4C72.8 27.17 72.38 27 71.92 26.89C71.45 26.79 70.95 26.74 70.44 26.74C69.94 26.74 69.45 26.75 68.99 26.78C68.53 26.82 68.13 26.86 67.78 26.91C67.64 26.93 67.53 26.97 67.47 27.02C67.38 27.09 67.34 27.18 67.34 27.32L67.34 36.62C67.34 36.68 67.37 36.75 67.43 36.81C67.48 36.86 67.55 36.89 67.61 36.89L68.97 36.89C69.03 36.89 69.1 36.86 69.15 36.81C69.19 36.75 69.22 36.68 69.22 36.62L69.22 32.97C69.37 32.98 69.57 32.98 69.8 33C70.03 33.01 70.25 33.02 70.42 33.02L70.61 33.02L72.56 36.62C72.6 36.68 72.63 36.75 72.67 36.81C72.71 36.86 72.76 36.89 72.83 36.89L74.48 36.89ZM83.03 34.7C83.22 34.17 83.32 33.52 83.32 32.78L83.32 30.95C83.32 30.21 83.22 29.58 83.03 29.04C82.83 28.51 82.57 28.06 82.22 27.73C81.88 27.39 81.48 27.14 81.01 26.98C80.55 26.82 80.03 26.74 79.48 26.74C78.91 26.74 78.4 26.82 77.94 26.98C77.46 27.14 77.06 27.39 76.72 27.73C76.38 28.06 76.11 28.51 75.92 29.04C75.72 29.58 75.63 30.21 75.63 30.95L75.63 32.78C75.63 33.52 75.72 34.17 75.92 34.7C76.11 35.22 76.38 35.66 76.72 36C77.06 36.33 77.46 36.59 77.94 36.75C78.4 36.91 78.91 37 79.48 37C80.03 37 80.55 36.91 81.01 36.75C81.48 36.59 81.88 36.33 82.22 36C82.57 35.66 82.83 35.22 83.03 34.7ZM91.25 35.93C91.99 35.22 92.36 34.2 92.36 32.86L92.36 30.87C92.36 29.54 91.99 28.51 91.25 27.79C90.52 27.09 89.46 26.74 88.11 26.74C87.86 26.74 87.61 26.74 87.34 26.75C87.07 26.77 86.82 26.78 86.57 26.79C86.32 26.81 86.1 26.83 85.9 26.85C85.69 26.86 85.53 26.89 85.44 26.9C85.32 26.91 85.23 26.96 85.18 27.02C85.11 27.09 85.09 27.18 85.09 27.32L85.09 36.41C85.09 36.55 85.11 36.64 85.18 36.71C85.23 36.78 85.32 36.82 85.44 36.83C85.53 36.85 85.69 36.87 85.9 36.89C86.1 36.9 86.32 36.93 86.57 36.94C86.82 36.95 87.07 36.97 87.34 36.98C87.61 37 87.86 37 88.11 37C89.46 37 90.52 36.64 91.25 35.93ZM109.31 36.67C109.37 36.63 109.4 36.56 109.4 36.47L109.4 35.56C109.4 35.48 109.38 35.41 109.34 35.36C109.3 35.31 109.22 35.28 109.13 35.28L109.1 35.28C108.98 35.29 108.84 35.29 108.68 35.31C108.5 35.32 108.33 35.33 108.14 35.35C107.95 35.36 107.76 35.36 107.56 35.37C107.35 35.39 107.17 35.39 106.99 35.39C106.71 35.39 106.44 35.35 106.21 35.25C105.96 35.17 105.76 35.04 105.58 34.83C105.41 34.63 105.27 34.37 105.18 34.05C105.08 33.72 105.03 33.33 105.03 32.86L105.03 30.87C105.03 30.4 105.08 30 105.18 29.67C105.27 29.35 105.41 29.09 105.58 28.89C105.76 28.7 105.96 28.56 106.21 28.47C106.44 28.39 106.71 28.35 106.99 28.35C107.17 28.35 107.35 28.35 107.56 28.36C107.76 28.37 107.95 28.37 108.14 28.39C108.33 28.4 108.5 28.4 108.68 28.41C108.84 28.43 108.98 28.44 109.1 28.46L109.13 28.46C109.22 28.46 109.3 28.43 109.34 28.37C109.38 28.32 109.4 28.25 109.4 28.17L109.4 27.27C109.4 27.17 109.37 27.09 109.31 27.05C109.26 27.01 109.19 26.98 109.1 26.96C109.04 26.94 108.95 26.93 108.83 26.9C108.69 26.87 108.53 26.85 108.34 26.82C108.15 26.81 107.94 26.78 107.71 26.77C107.48 26.75 107.22 26.74 106.96 26.74C106.56 26.74 106.13 26.79 105.68 26.9C105.23 27.02 104.81 27.23 104.45 27.54C104.07 27.85 103.77 28.27 103.52 28.79C103.27 29.33 103.15 30.02 103.15 30.87L103.15 32.86C103.15 33.7 103.27 34.39 103.52 34.91C103.77 35.44 104.07 35.86 104.45 36.17C104.81 36.48 105.23 36.7 105.68 36.82C106.13 36.94 106.56 37 106.96 37C107.22 37 107.48 36.98 107.71 36.97C107.94 36.95 108.15 36.93 108.34 36.91C108.53 36.89 108.69 36.86 108.83 36.83C108.95 36.82 109.04 36.79 109.1 36.78C109.19 36.75 109.26 36.71 109.31 36.67ZM129.89 34.7C130.08 34.17 130.18 33.52 130.18 32.78L130.18 30.95C130.18 30.21 130.08 29.58 129.89 29.04C129.69 28.51 129.43 28.06 129.08 27.73C128.75 27.39 128.34 27.14 127.87 26.98C127.41 26.82 126.89 26.74 126.34 26.74C125.77 26.74 125.26 26.82 124.8 26.98C124.33 27.14 123.92 27.39 123.58 27.73C123.25 28.06 122.98 28.51 122.79 29.04C122.58 29.58 122.49 30.21 122.49 30.95L122.49 32.78C122.49 33.52 122.58 34.17 122.79 34.7C122.98 35.22 123.25 35.66 123.58 36C123.92 36.33 124.33 36.59 124.8 36.75C125.26 36.91 125.77 37 126.34 37C126.89 37 127.41 36.91 127.87 36.75C128.34 36.59 128.75 36.33 129.08 36C129.43 35.66 129.69 35.22 129.89 34.7ZM101.19 34.98C101.37 34.5 101.46 33.89 101.46 33.17L101.46 27.1C101.46 27.04 101.44 26.97 101.38 26.91C101.33 26.87 101.26 26.85 101.19 26.85L99.85 26.85C99.79 26.85 99.72 26.87 99.67 26.91C99.61 26.97 99.58 27.04 99.58 27.1L99.58 33.18C99.58 33.56 99.56 33.9 99.5 34.18C99.45 34.47 99.36 34.71 99.22 34.9C99.07 35.09 98.88 35.22 98.65 35.32C98.41 35.41 98.11 35.45 97.75 35.45C97.38 35.45 97.07 35.41 96.84 35.32C96.61 35.22 96.42 35.09 96.29 34.9C96.14 34.71 96.04 34.47 95.99 34.18C95.94 33.9 95.91 33.56 95.91 33.18L95.91 27.1C95.91 27.04 95.88 26.97 95.83 26.91C95.77 26.87 95.71 26.85 95.64 26.85L94.3 26.85C94.23 26.85 94.17 26.87 94.11 26.91C94.06 26.97 94.03 27.04 94.03 27.1L94.03 33.17C94.03 33.89 94.13 34.5 94.31 34.98C94.49 35.47 94.75 35.86 95.08 36.16C95.41 36.45 95.8 36.67 96.26 36.79C96.71 36.93 97.21 37 97.75 37C98.29 37 98.79 36.93 99.25 36.79C99.69 36.67 100.09 36.45 100.42 36.16C100.75 35.86 101 35.47 101.19 34.98ZM117.42 28.35C117.48 28.31 117.5 28.24 117.5 28.17L117.5 27.1C117.5 27.04 117.48 26.97 117.42 26.91C117.37 26.87 117.3 26.85 117.23 26.85L110.63 26.85C110.56 26.85 110.49 26.87 110.44 26.91C110.38 26.97 110.35 27.04 110.35 27.1L110.35 28.17C110.35 28.24 110.38 28.31 110.44 28.35C110.49 28.39 110.56 28.41 110.63 28.41L112.99 28.41L112.99 36.62C112.99 36.68 113.02 36.75 113.07 36.81C113.12 36.86 113.19 36.89 113.26 36.89L114.6 36.89C114.67 36.89 114.73 36.86 114.79 36.81C114.84 36.75 114.87 36.68 114.87 36.62L114.87 28.41L117.23 28.41C117.3 28.41 117.37 28.39 117.42 28.35ZM120.65 36.81C120.71 36.75 120.73 36.68 120.73 36.62L120.73 27.1C120.73 27.04 120.71 26.97 120.65 26.91C120.6 26.87 120.53 26.85 120.46 26.85L119.12 26.85C119.06 26.85 118.99 26.87 118.94 26.91C118.88 26.97 118.85 27.04 118.85 27.1L118.85 36.62C118.85 36.68 118.88 36.75 118.94 36.81C118.99 36.86 119.06 36.89 119.12 36.89L120.46 36.89C120.53 36.89 120.6 36.86 120.65 36.81ZM139.39 36.72C139.49 36.63 139.54 36.5 139.54 36.35L139.54 27.1C139.54 26.93 139.46 26.85 139.28 26.85L138.12 26.85C137.95 26.85 137.87 26.93 137.87 27.1L137.87 34.21C137.87 34.29 137.84 34.33 137.8 34.33C137.76 34.33 137.72 34.29 137.69 34.22L134.54 27.28C134.46 27.1 134.38 26.98 134.3 26.93C134.2 26.87 134.1 26.85 133.95 26.85L132.49 26.85C132.34 26.85 132.2 26.9 132.11 27C132 27.1 131.95 27.24 131.95 27.39L131.95 36.62C131.95 36.68 131.97 36.75 132.03 36.81C132.08 36.86 132.15 36.89 132.22 36.89L133.37 36.89C133.43 36.89 133.5 36.86 133.56 36.81C133.6 36.75 133.62 36.68 133.62 36.62L133.62 29.82C133.62 29.75 133.65 29.71 133.69 29.71C133.73 29.71 133.77 29.75 133.81 29.82L136.81 36.4C136.92 36.64 137.04 36.78 137.19 36.82C137.33 36.86 137.47 36.89 137.64 36.89L139 36.89C139.15 36.89 139.28 36.83 139.39 36.72ZM63.49 28.64C63.83 28.87 63.99 29.28 63.99 29.85L63.99 29.97C63.99 30.52 63.84 30.93 63.53 31.2C63.22 31.47 62.7 31.6 61.97 31.6C61.91 31.6 61.83 31.6 61.72 31.59L61.72 31.59C61.6 31.59 61.49 31.59 61.37 31.58L61.37 31.58C61.25 31.58 61.13 31.58 61.02 31.56L60.76 31.56L60.76 28.33C60.83 28.32 60.91 28.32 61.02 28.31L61.02 28.31C61.11 28.31 61.22 28.31 61.34 28.29L61.34 28.29C61.47 28.29 61.57 28.29 61.7 28.28L61.97 28.28C62.64 28.28 63.16 28.4 63.49 28.64ZM90.3 29.63C90.42 29.95 90.48 30.37 90.48 30.87L90.48 32.87C90.48 33.37 90.42 33.79 90.3 34.12C90.18 34.45 90 34.71 89.8 34.9C89.59 35.1 89.33 35.24 89.05 35.31C88.75 35.39 88.44 35.43 88.1 35.43C87.84 35.43 87.63 35.43 87.45 35.41C87.27 35.4 87.11 35.4 86.96 35.39L86.96 28.36C87.11 28.35 87.27 28.35 87.45 28.33C87.63 28.32 87.84 28.32 88.1 28.32L88.1 28.32C88.44 28.32 88.75 28.36 89.05 28.43C89.33 28.51 89.59 28.64 89.8 28.83C90 29.04 90.18 29.29 90.3 29.63ZM71.95 28.68C72.29 28.91 72.45 29.28 72.45 29.79L72.45 29.91C72.45 30.51 72.29 30.91 71.97 31.14C71.64 31.37 71.13 31.48 70.42 31.48C70.37 31.48 70.29 31.48 70.18 31.47L70.18 31.47C70.06 31.47 69.95 31.47 69.83 31.45C69.71 31.45 69.59 31.45 69.48 31.44L69.22 31.44L69.22 28.4C69.29 28.39 69.37 28.39 69.48 28.37L69.48 28.37C69.57 28.37 69.68 28.37 69.8 28.36C69.92 28.36 70.03 28.36 70.15 28.35L70.42 28.35C71.1 28.35 71.61 28.46 71.95 28.68ZM80.95 28.98C81.28 29.4 81.44 30.05 81.44 30.95L81.44 32.78C81.44 33.68 81.28 34.33 80.95 34.74C80.64 35.16 80.14 35.36 79.48 35.36C78.8 35.36 78.3 35.16 77.99 34.74C77.67 34.33 77.51 33.68 77.51 32.78L77.51 30.95C77.51 30.05 77.67 29.4 77.99 28.98C78.3 28.58 78.8 28.37 79.48 28.37C80.14 28.37 80.64 28.58 80.95 28.98ZM127.81 28.98C128.14 29.4 128.3 30.05 128.3 30.95L128.3 32.78C128.3 33.68 128.14 34.33 127.81 34.74C127.5 35.16 127 35.36 126.34 35.36C125.66 35.36 125.16 35.16 124.85 34.74C124.53 34.33 124.37 33.68 124.37 32.78L124.37 30.95C124.37 30.05 124.53 29.4 124.85 28.98C125.16 28.58 125.66 28.37 126.34 28.37C127 28.37 127.5 28.58 127.81 28.98Z" fill="#5C8EE6" fill-opacity="1.000000" fill-rule="evenodd"></path>
    </g>
  </symbol>
  <symbol fill="none" xmlns="http://www.w3.org/2000/svg" xmlns:xlink="http://www.w3.org/1999/xlink" viewBox="0 0 140 44" id="logo-light">
    <desc>Created with Pixso.</desc>
    <defs>
      <clipPath id="clip191_1609">
        <rect id="logo" rx="0.000000" width="139.000000" height="43.000000" transform="translate(0.500000 0.500000)" fill="white" fill-opacity="0"></rect>
      </clipPath>
    </defs>
    <rect id="logo" rx="0.000000" width="139.000000" height="43.000000" transform="translate(0.500000 0.500000)" fill="#FFFFFF" fill-opacity="0"></rect>
    <g clip-path="url(#clip191_1609)">
      <path id="Vector" d="M21.99 4.89C24.28 4.89 26.47 5.34 28.47 6.16L28.47 12.35L28.47 21.81C28.47 25.36 25.59 28.24 22.04 28.24C20.53 28.24 19.15 27.72 18.05 26.85L18.05 32.54C19.29 33 20.64 33.25 22.04 33.25C29.02 33.25 33.51 27.74 33.51 21.05L33.51 3.25C30.16 1.19 26.21 0 21.99 0C9.84 0 0 9.84 0 21.99C0 28.92 3.21 35.11 8.22 39.14L8.22 32.13C6.13 29.3 4.89 25.79 4.89 21.99C4.89 12.54 12.54 4.89 21.99 4.89Z" fill="#FFFFFF" fill-opacity="1.000000" fill-rule="evenodd"></path>
      <path id="Vector" d="M22.06 39.1C19.76 39.1 17.58 38.65 15.58 37.83L15.58 31.64L15.58 22.18C15.58 18.63 18.45 15.75 22 15.75C23.51 15.75 24.9 16.27 26 17.14L26 11.45C24.75 10.99 23.41 10.74 22 10.74C15.02 10.74 10.54 16.25 10.54 22.94L10.54 40.74C13.89 42.8 17.83 44 22.06 44C34.2 44 44.05 34.15 44.05 22C44.05 15.07 40.84 8.88 35.82 4.85L35.82 11.86C37.92 14.69 39.16 18.2 39.16 22C39.16 31.45 31.5 39.1 22.06 39.1Z" fill="#5C8EE6" fill-opacity="1.000000" fill-rule="evenodd"></path>
      <path id="Vector" d="M71.19 22.8C71.26 22.74 71.3 22.65 71.3 22.55L71.3 22.51C71.28 22.49 71.28 22.46 71.28 22.44L67.8 9.16C67.67 8.67 67.48 8.27 67.25 7.99C67.02 7.72 66.76 7.48 66.49 7.33C66.21 7.19 65.92 7.1 65.64 7.06C65.34 7.02 65.09 7 64.86 7C64.62 7 64.37 7.02 64.09 7.06C63.8 7.1 63.52 7.19 63.25 7.33C62.97 7.48 62.7 7.72 62.46 7.99C62.23 8.27 62.04 8.67 61.91 9.16L58.44 22.44L58.44 22.51C58.42 22.53 58.42 22.53 58.42 22.55C58.42 22.65 58.46 22.74 58.52 22.8C58.58 22.87 58.69 22.91 58.8 22.91L61.04 22.91C61.15 22.91 61.23 22.87 61.3 22.8C61.36 22.74 61.42 22.65 61.45 22.55L62.42 18.52L67.29 18.52L68.27 22.55C68.29 22.65 68.35 22.74 68.42 22.8C68.48 22.87 68.57 22.91 68.67 22.91L70.92 22.91C71.02 22.91 71.13 22.87 71.19 22.8ZM101.52 22.8C101.58 22.74 101.62 22.65 101.62 22.55L101.62 22.51C101.6 22.49 101.6 22.46 101.6 22.44L98.13 9.16C98 8.67 97.81 8.27 97.57 7.99C97.34 7.72 97.09 7.48 96.81 7.33C96.54 7.19 96.24 7.1 95.96 7.06C95.67 7.02 95.41 7 95.18 7C94.95 7 94.69 7.02 94.42 7.06C94.12 7.1 93.84 7.19 93.57 7.33C93.29 7.48 93.02 7.72 92.79 7.99C92.55 8.27 92.36 8.67 92.23 9.16L88.76 22.44L88.76 22.51C88.74 22.53 88.74 22.53 88.74 22.55C88.74 22.65 88.78 22.74 88.84 22.8C88.91 22.87 89.01 22.91 89.12 22.91L91.37 22.91C91.47 22.91 91.56 22.87 91.62 22.8C91.68 22.74 91.75 22.65 91.77 22.55L92.74 18.52L97.62 18.52L98.59 22.55C98.61 22.65 98.68 22.74 98.74 22.8C98.8 22.87 98.89 22.91 98.99 22.91L101.24 22.91C101.35 22.91 101.45 22.87 101.52 22.8ZM127.94 22.57C128.02 22.51 128.07 22.4 128.07 22.25L128.07 20.83C128.07 20.7 128.05 20.6 127.98 20.51C127.92 20.43 127.79 20.39 127.64 20.39L127.6 20.39C127.41 20.41 127.2 20.41 126.94 20.43C126.67 20.45 126.39 20.47 126.1 20.49C125.8 20.51 125.5 20.51 125.19 20.54C124.87 20.56 124.57 20.56 124.3 20.56C123.85 20.56 123.43 20.49 123.07 20.35C122.68 20.22 122.37 20.01 122.09 19.69C121.82 19.37 121.6 18.97 121.46 18.46C121.31 17.95 121.22 17.34 121.22 16.59L121.22 13.48C121.22 12.74 121.31 12.1 121.46 11.59C121.6 11.08 121.82 10.68 122.09 10.36C122.37 10.07 122.68 9.86 123.07 9.71C123.43 9.58 123.85 9.52 124.3 9.52C124.57 9.52 124.87 9.52 125.19 9.54C125.5 9.56 125.8 9.56 126.1 9.58C126.39 9.6 126.67 9.6 126.94 9.62C127.2 9.64 127.41 9.67 127.6 9.69L127.64 9.69C127.79 9.69 127.92 9.64 127.98 9.56C128.05 9.47 128.07 9.37 128.07 9.24L128.07 7.82C128.07 7.67 128.02 7.55 127.94 7.48C127.86 7.42 127.75 7.38 127.6 7.33C127.52 7.31 127.37 7.29 127.18 7.25C126.97 7.21 126.71 7.16 126.41 7.12C126.12 7.1 125.78 7.06 125.42 7.04C125.06 7.02 124.66 7 124.25 7C123.62 7 122.94 7.08 122.24 7.25C121.54 7.44 120.88 7.76 120.31 8.25C119.72 8.73 119.25 9.39 118.85 10.22C118.47 11.06 118.28 12.14 118.28 13.48L118.28 16.59C118.28 17.91 118.47 18.99 118.85 19.82C119.25 20.64 119.72 21.3 120.31 21.79C120.88 22.27 121.54 22.61 122.24 22.8C122.94 22.99 123.62 23.08 124.25 23.08C124.66 23.08 125.06 23.06 125.42 23.04C125.78 23.01 126.12 22.97 126.41 22.95C126.71 22.91 126.97 22.87 127.18 22.82C127.37 22.8 127.52 22.76 127.6 22.74C127.75 22.7 127.86 22.63 127.94 22.57ZM139.91 22.65C139.98 22.59 140 22.49 140 22.34L140 20.98C140 20.87 139.95 20.77 139.87 20.68C139.78 20.6 139.68 20.56 139.57 20.56L135.25 20.56C134.64 20.56 134.19 20.43 133.96 20.18C133.7 19.92 133.58 19.43 133.58 18.73L133.58 16L139.32 16C139.42 16 139.53 15.96 139.62 15.87C139.7 15.79 139.74 15.68 139.74 15.58L139.74 14.05C139.74 13.95 139.7 13.84 139.62 13.75C139.53 13.67 139.42 13.63 139.32 13.63L133.58 13.63L133.58 11.34C133.58 10.64 133.7 10.15 133.96 9.9C134.19 9.64 134.64 9.52 135.25 9.52L139.57 9.52C139.68 9.52 139.78 9.47 139.87 9.39C139.95 9.3 140 9.2 140 9.09L140 7.74C140 7.59 139.98 7.48 139.91 7.42C139.85 7.36 139.72 7.31 139.57 7.29C139.4 7.27 139.21 7.23 139.02 7.19C138.81 7.16 138.56 7.12 138.26 7.1C137.94 7.08 137.58 7.04 137.16 7.02C136.71 7 136.18 7 135.55 7L135.55 7C134.85 7 134.21 7.06 133.62 7.16C133.03 7.27 132.5 7.48 132.07 7.8C131.63 8.12 131.27 8.56 131.01 9.14C130.76 9.71 130.63 10.43 130.63 11.34L130.63 18.73C130.63 19.65 130.76 20.37 131.01 20.94C131.27 21.51 131.63 21.93 132.07 22.25C132.5 22.57 133.03 22.8 133.62 22.91C134.21 23.01 134.85 23.08 135.55 23.08L135.55 23.08C136.18 23.08 136.71 23.08 137.16 23.06C137.58 23.04 137.94 22.99 138.26 22.97C138.56 22.95 138.81 22.91 139.02 22.87C139.21 22.85 139.4 22.8 139.57 22.78C139.72 22.76 139.85 22.72 139.91 22.65ZM81.7 22.65C81.77 22.59 81.79 22.49 81.79 22.34L81.79 20.98C81.79 20.87 81.75 20.77 81.66 20.68C81.58 20.6 81.47 20.56 81.36 20.56L77.46 20.56C76.85 20.56 76.41 20.43 76.17 20.18C75.94 19.92 75.81 19.43 75.81 18.73L75.81 7.59C75.81 7.48 75.77 7.38 75.68 7.29C75.6 7.21 75.49 7.16 75.39 7.16L73.29 7.16C73.18 7.16 73.08 7.21 72.99 7.29C72.91 7.38 72.87 7.48 72.87 7.59L72.87 18.73C72.87 19.65 72.99 20.37 73.25 20.94C73.5 21.51 73.84 21.93 74.29 22.25C74.73 22.57 75.24 22.8 75.83 22.91C76.43 23.01 77.06 23.08 77.76 23.08L77.76 23.08C78.04 23.08 78.35 23.08 78.72 23.06C79.08 23.04 79.41 23.01 79.75 22.99C80.09 22.97 80.41 22.93 80.71 22.89C80.98 22.87 81.22 22.82 81.36 22.78C81.51 22.76 81.64 22.72 81.7 22.65ZM86.62 22.78C86.7 22.7 86.75 22.59 86.75 22.49L86.75 7.57C86.75 7.46 86.7 7.36 86.62 7.27C86.53 7.21 86.43 7.16 86.32 7.16L84.22 7.16C84.12 7.16 84.01 7.21 83.93 7.27C83.84 7.36 83.8 7.46 83.8 7.57L83.8 22.49C83.8 22.59 83.84 22.7 83.93 22.78C84.01 22.87 84.12 22.91 84.22 22.91L86.32 22.91C86.43 22.91 86.53 22.87 86.62 22.78ZM115.29 22.65C115.44 22.51 115.52 22.29 115.52 22.06L115.52 7.57C115.52 7.29 115.4 7.16 115.12 7.16L113.3 7.16C113.02 7.16 112.89 7.29 112.89 7.57L112.89 18.71C112.89 18.84 112.85 18.9 112.79 18.9C112.73 18.9 112.66 18.84 112.62 18.73L107.68 7.84C107.56 7.57 107.43 7.38 107.3 7.29C107.15 7.21 106.98 7.16 106.75 7.16L104.46 7.16C104.23 7.16 104.02 7.25 103.87 7.4C103.7 7.57 103.61 7.78 103.61 8.01L103.61 22.49C103.61 22.59 103.66 22.7 103.74 22.78C103.83 22.87 103.93 22.91 104.04 22.91L105.84 22.91C105.94 22.91 106.05 22.87 106.14 22.78C106.2 22.7 106.24 22.59 106.24 22.49L106.24 11.83C106.24 11.72 106.28 11.66 106.35 11.66C106.41 11.66 106.47 11.72 106.54 11.83L111.24 22.15C111.41 22.53 111.6 22.74 111.84 22.8C112.05 22.87 112.28 22.91 112.53 22.91L114.67 22.91C114.91 22.91 115.12 22.82 115.29 22.65ZM95.41 9.54C95.46 9.6 95.5 9.69 95.52 9.81L97.04 16.11L93.31 16.11L94.84 9.81C94.86 9.69 94.9 9.6 94.95 9.54C94.99 9.5 95.07 9.47 95.18 9.47C95.29 9.47 95.37 9.5 95.41 9.54ZM65.09 9.54C65.13 9.6 65.17 9.69 65.2 9.81L66.72 16.11L62.99 16.11L64.52 9.81C64.54 9.69 64.58 9.6 64.62 9.54C64.67 9.5 64.75 9.47 64.86 9.47C64.96 9.47 65.05 9.5 65.09 9.54Z" fill="#292D33" fill-opacity="1.000000" fill-rule="evenodd"></path>
      <path id="Vector" d="M65.56 31.48C65.76 31.08 65.87 30.58 65.87 29.98L65.87 29.86C65.87 29.27 65.76 28.77 65.56 28.36C65.34 27.97 65.06 27.64 64.7 27.4C64.34 27.16 63.93 26.98 63.47 26.89C62.99 26.79 62.49 26.74 61.98 26.74C61.48 26.74 60.99 26.75 60.53 26.78C60.07 26.82 59.67 26.86 59.32 26.91C59.18 26.93 59.07 26.97 59.01 27.02C58.93 27.09 58.89 27.18 58.89 27.32L58.89 36.62C58.89 36.68 58.91 36.75 58.97 36.81C59.02 36.86 59.09 36.89 59.16 36.89L60.51 36.89C60.57 36.89 60.64 36.86 60.7 36.81C60.74 36.75 60.76 36.68 60.76 36.62L60.76 33.09C60.91 33.1 61.11 33.1 61.34 33.12C61.59 33.13 61.79 33.14 61.97 33.14C62.49 33.14 62.99 33.09 63.47 32.98C63.93 32.89 64.34 32.71 64.7 32.45C65.06 32.21 65.34 31.89 65.56 31.48ZM74.48 36.89C74.59 36.89 74.64 36.83 74.64 36.72C74.64 36.68 74.63 36.64 74.61 36.62L72.49 32.67C73.06 32.45 73.51 32.12 73.83 31.67C74.17 31.23 74.33 30.63 74.33 29.91L74.33 29.79C74.33 29.21 74.22 28.73 74.02 28.33C73.8 27.94 73.52 27.63 73.15 27.4C72.8 27.17 72.38 27 71.92 26.89C71.45 26.79 70.95 26.74 70.44 26.74C69.94 26.74 69.45 26.75 68.99 26.78C68.53 26.82 68.13 26.86 67.78 26.91C67.64 26.93 67.53 26.97 67.47 27.02C67.38 27.09 67.34 27.18 67.34 27.32L67.34 36.62C67.34 36.68 67.37 36.75 67.43 36.81C67.48 36.86 67.55 36.89 67.61 36.89L68.97 36.89C69.03 36.89 69.1 36.86 69.15 36.81C69.19 36.75 69.22 36.68 69.22 36.62L69.22 32.97C69.37 32.98 69.57 32.98 69.8 33C70.03 33.01 70.25 33.02 70.42 33.02L70.61 33.02L72.56 36.62C72.6 36.68 72.63 36.75 72.67 36.81C72.71 36.86 72.76 36.89 72.83 36.89L74.48 36.89ZM83.03 34.7C83.22 34.17 83.32 33.52 83.32 32.78L83.32 30.95C83.32 30.21 83.22 29.58 83.03 29.04C82.83 28.51 82.57 28.06 82.22 27.73C81.88 27.39 81.48 27.14 81.01 26.98C80.55 26.82 80.03 26.74 79.48 26.74C78.91 26.74 78.4 26.82 77.94 26.98C77.46 27.14 77.06 27.39 76.72 27.73C76.38 28.06 76.11 28.51 75.92 29.04C75.72 29.58 75.63 30.21 75.63 30.95L75.63 32.78C75.63 33.52 75.72 34.17 75.92 34.7C76.11 35.22 76.38 35.66 76.72 36C77.06 36.33 77.46 36.59 77.94 36.75C78.4 36.91 78.91 37 79.48 37C80.03 37 80.55 36.91 81.01 36.75C81.48 36.59 81.88 36.33 82.22 36C82.57 35.66 82.83 35.22 83.03 34.7ZM91.25 35.93C91.99 35.22 92.36 34.2 92.36 32.86L92.36 30.87C92.36 29.54 91.99 28.51 91.25 27.79C90.52 27.09 89.46 26.74 88.11 26.74C87.86 26.74 87.61 26.74 87.34 26.75C87.07 26.77 86.82 26.78 86.57 26.79C86.32 26.81 86.1 26.83 85.9 26.85C85.69 26.86 85.53 26.89 85.44 26.9C85.32 26.91 85.23 26.96 85.18 27.02C85.11 27.09 85.09 27.18 85.09 27.32L85.09 36.41C85.09 36.55 85.11 36.64 85.18 36.71C85.23 36.78 85.32 36.82 85.44 36.83C85.53 36.85 85.69 36.87 85.9 36.89C86.1 36.9 86.32 36.93 86.57 36.94C86.82 36.95 87.07 36.97 87.34 36.98C87.61 37 87.86 37 88.11 37C89.46 37 90.52 36.64 91.25 35.93ZM109.31 36.67C109.37 36.63 109.4 36.56 109.4 36.47L109.4 35.56C109.4 35.48 109.38 35.41 109.34 35.36C109.3 35.31 109.22 35.28 109.13 35.28L109.1 35.28C108.98 35.29 108.84 35.29 108.68 35.31C108.5 35.32 108.33 35.33 108.14 35.35C107.95 35.36 107.76 35.36 107.56 35.37C107.35 35.39 107.17 35.39 106.99 35.39C106.71 35.39 106.44 35.35 106.21 35.25C105.96 35.17 105.76 35.04 105.58 34.83C105.41 34.63 105.27 34.37 105.18 34.05C105.08 33.72 105.03 33.33 105.03 32.86L105.03 30.87C105.03 30.4 105.08 30 105.18 29.67C105.27 29.35 105.41 29.09 105.58 28.89C105.76 28.7 105.96 28.56 106.21 28.47C106.44 28.39 106.71 28.35 106.99 28.35C107.17 28.35 107.35 28.35 107.56 28.36C107.76 28.37 107.95 28.37 108.14 28.39C108.33 28.4 108.5 28.4 108.68 28.41C108.84 28.43 108.98 28.44 109.1 28.46L109.13 28.46C109.22 28.46 109.3 28.43 109.34 28.37C109.38 28.32 109.4 28.25 109.4 28.17L109.4 27.27C109.4 27.17 109.37 27.09 109.31 27.05C109.26 27.01 109.19 26.98 109.1 26.96C109.04 26.94 108.95 26.93 108.83 26.9C108.69 26.87 108.53 26.85 108.34 26.82C108.15 26.81 107.94 26.78 107.71 26.77C107.48 26.75 107.22 26.74 106.96 26.74C106.56 26.74 106.13 26.79 105.68 26.9C105.23 27.02 104.81 27.23 104.45 27.54C104.07 27.85 103.77 28.27 103.52 28.79C103.27 29.33 103.15 30.02 103.15 30.87L103.15 32.86C103.15 33.7 103.27 34.39 103.52 34.91C103.77 35.44 104.07 35.86 104.45 36.17C104.81 36.48 105.23 36.7 105.68 36.82C106.13 36.94 106.56 37 106.96 37C107.22 37 107.48 36.98 107.71 36.97C107.94 36.95 108.15 36.93 108.34 36.91C108.53 36.89 108.69 36.86 108.83 36.83C108.95 36.82 109.04 36.79 109.1 36.78C109.19 36.75 109.26 36.71 109.31 36.67ZM129.89 34.7C130.08 34.17 130.18 33.52 130.18 32.78L130.18 30.95C130.18 30.21 130.08 29.58 129.89 29.04C129.69 28.51 129.43 28.06 129.08 27.73C128.75 27.39 128.34 27.14 127.87 26.98C127.41 26.82 126.89 26.74 126.34 26.74C125.77 26.74 125.26 26.82 124.8 26.98C124.33 27.14 123.92 27.39 123.58 27.73C123.25 28.06 122.98 28.51 122.79 29.04C122.58 29.58 122.49 30.21 122.49 30.95L122.49 32.78C122.49 33.52 122.58 34.17 122.79 34.7C122.98 35.22 123.25 35.66 123.58 36C123.92 36.33 124.33 36.59 124.8 36.75C125.26 36.91 125.77 37 126.34 37C126.89 37 127.41 36.91 127.87 36.75C128.34 36.59 128.75 36.33 129.08 36C129.43 35.66 129.69 35.22 129.89 34.7ZM101.19 34.98C101.37 34.5 101.46 33.89 101.46 33.17L101.46 27.1C101.46 27.04 101.44 26.97 101.38 26.91C101.33 26.87 101.26 26.85 101.19 26.85L99.85 26.85C99.79 26.85 99.72 26.87 99.67 26.91C99.61 26.97 99.58 27.04 99.58 27.1L99.58 33.18C99.58 33.56 99.56 33.9 99.5 34.18C99.45 34.47 99.36 34.71 99.22 34.9C99.07 35.09 98.88 35.22 98.65 35.32C98.41 35.41 98.11 35.45 97.75 35.45C97.38 35.45 97.07 35.41 96.84 35.32C96.61 35.22 96.42 35.09 96.29 34.9C96.14 34.71 96.04 34.47 95.99 34.18C95.94 33.9 95.91 33.56 95.91 33.18L95.91 27.1C95.91 27.04 95.88 26.97 95.83 26.91C95.77 26.87 95.71 26.85 95.64 26.85L94.3 26.85C94.23 26.85 94.17 26.87 94.11 26.91C94.06 26.97 94.03 27.04 94.03 27.1L94.03 33.17C94.03 33.89 94.13 34.5 94.31 34.98C94.49 35.47 94.75 35.86 95.08 36.16C95.41 36.45 95.8 36.67 96.26 36.79C96.71 36.93 97.21 37 97.75 37C98.29 37 98.79 36.93 99.25 36.79C99.69 36.67 100.09 36.45 100.42 36.16C100.75 35.86 101 35.47 101.19 34.98ZM117.42 28.35C117.48 28.31 117.5 28.24 117.5 28.17L117.5 27.1C117.5 27.04 117.48 26.97 117.42 26.91C117.37 26.87 117.3 26.85 117.23 26.85L110.63 26.85C110.56 26.85 110.49 26.87 110.44 26.91C110.38 26.97 110.35 27.04 110.35 27.1L110.35 28.17C110.35 28.24 110.38 28.31 110.44 28.35C110.49 28.39 110.56 28.41 110.63 28.41L112.99 28.41L112.99 36.62C112.99 36.68 113.02 36.75 113.07 36.81C113.12 36.86 113.19 36.89 113.26 36.89L114.6 36.89C114.67 36.89 114.73 36.86 114.79 36.81C114.84 36.75 114.87 36.68 114.87 36.62L114.87 28.41L117.23 28.41C117.3 28.41 117.37 28.39 117.42 28.35ZM120.65 36.81C120.71 36.75 120.73 36.68 120.73 36.62L120.73 27.1C120.73 27.04 120.71 26.97 120.65 26.91C120.6 26.87 120.53 26.85 120.46 26.85L119.12 26.85C119.06 26.85 118.99 26.87 118.94 26.91C118.88 26.97 118.85 27.04 118.85 27.1L118.85 36.62C118.85 36.68 118.88 36.75 118.94 36.81C118.99 36.86 119.06 36.89 119.12 36.89L120.46 36.89C120.53 36.89 120.6 36.86 120.65 36.81ZM139.39 36.72C139.49 36.63 139.54 36.5 139.54 36.35L139.54 27.1C139.54 26.93 139.46 26.85 139.28 26.85L138.12 26.85C137.95 26.85 137.87 26.93 137.87 27.1L137.87 34.21C137.87 34.29 137.84 34.33 137.8 34.33C137.76 34.33 137.72 34.29 137.69 34.22L134.54 27.28C134.46 27.1 134.38 26.98 134.3 26.93C134.2 26.87 134.1 26.85 133.95 26.85L132.49 26.85C132.34 26.85 132.2 26.9 132.11 27C132 27.1 131.95 27.24 131.95 27.39L131.95 36.62C131.95 36.68 131.97 36.75 132.03 36.81C132.08 36.86 132.15 36.89 132.22 36.89L133.37 36.89C133.43 36.89 133.5 36.86 133.56 36.81C133.6 36.75 133.62 36.68 133.62 36.62L133.62 29.82C133.62 29.75 133.65 29.71 133.69 29.71C133.73 29.71 133.77 29.75 133.81 29.82L136.81 36.4C136.92 36.64 137.04 36.78 137.19 36.82C137.33 36.86 137.47 36.89 137.64 36.89L139 36.89C139.15 36.89 139.28 36.83 139.39 36.72ZM63.49 28.64C63.83 28.87 63.99 29.28 63.99 29.85L63.99 29.97C63.99 30.52 63.84 30.93 63.53 31.2C63.22 31.47 62.7 31.6 61.97 31.6C61.91 31.6 61.83 31.6 61.72 31.59L61.72 31.59C61.6 31.59 61.49 31.59 61.37 31.58L61.37 31.58C61.25 31.58 61.13 31.58 61.02 31.56L60.76 31.56L60.76 28.33C60.83 28.32 60.91 28.32 61.02 28.31L61.02 28.31C61.11 28.31 61.22 28.31 61.34 28.29L61.34 28.29C61.47 28.29 61.57 28.29 61.7 28.28L61.97 28.28C62.64 28.28 63.16 28.4 63.49 28.64ZM90.3 29.63C90.42 29.95 90.48 30.37 90.48 30.87L90.48 32.87C90.48 33.37 90.42 33.79 90.3 34.12C90.18 34.45 90 34.71 89.8 34.9C89.59 35.1 89.33 35.24 89.05 35.31C88.75 35.39 88.44 35.43 88.1 35.43C87.84 35.43 87.63 35.43 87.45 35.41C87.27 35.4 87.11 35.4 86.96 35.39L86.96 28.36C87.11 28.35 87.27 28.35 87.45 28.33C87.63 28.32 87.84 28.32 88.1 28.32L88.1 28.32C88.44 28.32 88.75 28.36 89.05 28.43C89.33 28.51 89.59 28.64 89.8 28.83C90 29.04 90.18 29.29 90.3 29.63ZM71.95 28.68C72.29 28.91 72.45 29.28 72.45 29.79L72.45 29.91C72.45 30.51 72.29 30.91 71.97 31.14C71.64 31.37 71.13 31.48 70.42 31.48C70.37 31.48 70.29 31.48 70.18 31.47L70.18 31.47C70.06 31.47 69.95 31.47 69.83 31.45C69.71 31.45 69.59 31.45 69.48 31.44L69.22 31.44L69.22 28.4C69.29 28.39 69.37 28.39 69.48 28.37L69.48 28.37C69.57 28.37 69.68 28.37 69.8 28.36C69.92 28.36 70.03 28.36 70.15 28.35L70.42 28.35C71.1 28.35 71.61 28.46 71.95 28.68ZM80.95 28.98C81.28 29.4 81.44 30.05 81.44 30.95L81.44 32.78C81.44 33.68 81.28 34.33 80.95 34.74C80.64 35.16 80.14 35.36 79.48 35.36C78.8 35.36 78.3 35.16 77.99 34.74C77.67 34.33 77.51 33.68 77.51 32.78L77.51 30.95C77.51 30.05 77.67 29.4 77.99 28.98C78.3 28.58 78.8 28.37 79.48 28.37C80.14 28.37 80.64 28.58 80.95 28.98ZM127.81 28.98C128.14 29.4 128.3 30.05 128.3 30.95L128.3 32.78C128.3 33.68 128.14 34.33 127.81 34.74C127.5 35.16 127 35.36 126.34 35.36C125.66 35.36 125.16 35.16 124.85 34.74C124.53 34.33 124.37 33.68 124.37 32.78L124.37 30.95C124.37 30.05 124.53 29.4 124.85 28.98C125.16 28.58 125.66 28.37 126.34 28.37C127 28.37 127.5 28.58 127.81 28.98Z" fill="#5C8EE6" fill-opacity="1.000000" fill-rule="evenodd"></path>
    </g>
  </symbol>
  <symbol  xmlns="http://www.w3.org/2000/svg" xmlns:xlink="http://www.w3.org/1999/xlink" viewBox="0 0 24 24" id="phone">
    <desc>Created with Pixso.</desc>
    <defs></defs>
    <rect id="phone" rx="0.000000" width="23.000000" height="23.000000" transform="translate(0.500000 0.500000)" fill="#FFFFFF" fill-opacity="0"></rect>
    <path id="Vector" d="M19.96 16.08L19.21 19.23C19.12 19.7 18.75 20.01 18.28 20.01C10.4 19.98 4 13.58 4 5.7C4 5.23 4.28 4.86 4.75 4.76L7.9 4.01C8.34 3.92 8.81 4.17 9 4.58L10.46 7.98C10.62 8.39 10.53 8.86 10.18 9.11L8.5 10.48C9.56 12.64 11.31 14.39 13.5 15.45L14.87 13.76C15.12 13.45 15.59 13.33 16 13.48L19.4 14.95C19.81 15.17 20.06 15.64 19.96 16.08Z" fill-opacity="1.000000" fill-rule="evenodd"></path>
  </symbol>
  <symbol fill="none" xmlns="http://www.w3.org/2000/svg" xmlns:xlink="http://www.w3.org/1999/xlink" viewBox="0 0 36 36" id="sertificate">
    <desc>Created with Pixso.</desc>
    <defs></defs>
    <rect id="Frame 34" rx="0.000000" width="35.000000" height="35.000000" transform="translate(0.500000 0.500000)" fill="#FFFFFF" fill-opacity="0"></rect>
    <path id="Vector" d="M27.22 9.35L22.68 4.82C22.19 4.32 21.47 4 20.82 4L9.66 4C8.19 4.05 7.04 5.2 7.04 6.67L7.04 13.07C6.71 13.07 6.38 13.02 5.67 12.8C5.62 12.8 5.51 12.8 5.4 12.8C5.12 12.8 4.85 12.91 4.69 13.07C3.7 14.11 3.76 14.06 2.39 14.44C2.01 14.55 1.73 14.82 1.62 15.21C1.29 16.57 1.29 16.52 0.31 17.5C0.04 17.78 -0.07 18.21 0.04 18.6C0.42 19.91 0.42 19.91 0.04 21.22C-0.07 21.6 0.04 22.04 0.31 22.32C1.29 23.3 1.29 23.3 1.62 24.61C1.73 25 2.01 25.27 2.39 25.38C2.5 25.43 2.55 25.43 2.66 25.43L2.66 31.12C2.66 31.45 2.77 31.72 3.04 31.89C3.32 32.05 3.65 32.05 3.92 31.94L7.04 30.35L10.1 31.94C10.26 32 10.37 32 10.54 32L25.41 32C26.83 32 28.04 30.85 28.04 29.42L28.04 11.21C28.04 10.56 27.71 9.85 27.22 9.35ZM21.04 5.8C21.15 5.85 21.31 5.91 21.42 6.02L26.01 10.61C26.12 10.72 26.18 10.89 26.23 11.05L21.04 11.05L21.04 5.8ZM1.84 21.33C2.12 20.13 2.12 19.69 1.84 18.49C2.66 17.61 2.88 17.23 3.21 16.03C4.41 15.7 4.74 15.48 5.62 14.6C6.16 14.77 6.54 14.82 7.04 14.82C7.47 14.82 7.86 14.77 8.4 14.6C9.22 15.48 9.61 15.7 10.81 16.03C11.14 17.23 11.3 17.56 12.18 18.49C11.85 19.69 11.85 20.13 12.18 21.33C11.36 22.21 11.14 22.59 10.81 23.79C9.99 24.01 9.5 24.17 8.73 24.83C8.19 24.61 7.64 24.5 7.04 24.5C6.38 24.5 5.83 24.61 5.29 24.89C4.52 24.23 4.03 24.01 3.21 23.79C2.88 22.59 2.72 22.26 1.84 21.33ZM7.42 28.6C7.15 28.5 6.87 28.5 6.6 28.6L4.41 29.75L4.41 26.42C4.41 26.47 4.41 26.47 4.41 26.47C4.63 26.69 4.9 26.75 5.12 26.75C5.34 26.75 5.51 26.69 5.72 26.64C6.11 26.36 6.54 26.25 7.04 26.25C7.47 26.25 7.91 26.36 8.29 26.58C8.51 26.75 8.68 26.75 8.9 26.75C9.17 26.75 9.39 26.69 9.61 26.47C9.61 26.47 9.61 26.47 9.66 26.42L9.66 29.75L7.42 28.6ZM26.29 29.42C26.29 29.86 25.85 30.3 25.41 30.3L11.41 30.3L11.41 25.43C11.47 25.43 11.52 25.43 11.63 25.38C12.01 25.27 12.29 25 12.4 24.61C12.72 23.25 12.72 23.3 13.71 22.32C13.98 22.04 14.09 21.6 13.98 21.22C13.6 19.91 13.6 19.91 13.98 18.6C14.09 18.21 13.98 17.78 13.71 17.5C12.72 16.52 12.72 16.52 12.4 15.21C12.29 14.82 12.01 14.55 11.63 14.44C10.32 14.06 10.32 14.11 9.33 13.07C9.17 12.91 8.95 12.85 8.79 12.8L8.79 6.67C8.79 6.18 9.17 5.75 9.66 5.75L19.29 5.75L19.29 11.49C19.29 12.2 19.83 12.75 20.6 12.75L26.29 12.75L26.29 29.42Z" fill="#5C8EE6" fill-opacity="1.000000" fill-rule="evenodd"></path>
  </symbol>
  <symbol fill="none" xmlns="http://www.w3.org/2000/svg" xmlns:xlink="http://www.w3.org/1999/xlink" viewBox="0 0 36 36" id="speed">
    <desc>Created with Pixso.</desc>
    <defs></defs>
    <rect id="Frame 37" rx="0.000000" width="35.000000" height="35.000000" transform="translate(0.500000 0.500000)" fill="#FFFFFF" fill-opacity="0"></rect>
    <path id="Vector" d="M11.62 13.87C10.64 13.87 9.87 14.69 9.87 15.62C9.87 16.6 10.64 17.37 11.62 17.37C12.55 17.37 13.37 16.6 13.37 15.62C13.37 14.69 12.55 13.87 11.62 13.87ZM17.75 6C9.05 6 2 13.05 2 21.75C2 24.64 2.76 27.38 4.13 29.67C4.4 30.22 5 30.55 5.6 30.55L29.83 30.55C30.43 30.55 31.03 30.22 31.36 29.67C32.67 27.38 33.5 24.64 33.5 21.75C33.5 13.05 26.44 6 17.75 6ZM17.75 27.87C16.49 27.87 15.56 26.94 15.56 25.68C15.56 24.48 16.49 23.5 17.75 23.5C18.95 23.5 19.93 24.48 19.93 25.68C19.93 26.94 18.95 27.87 17.75 27.87ZM29.34 27.87L22.01 27.87C22.34 27.21 22.56 26.5 22.56 25.68C22.56 25.35 22.5 25.03 22.39 24.7L27.42 22.57C28.08 22.24 28.41 21.47 28.14 20.82C27.81 20.16 27.04 19.83 26.39 20.1L21.19 22.35C20.32 21.47 19.06 20.87 17.75 20.87C15.07 20.87 12.93 23.06 12.93 25.68C12.93 26.5 13.1 27.21 13.48 27.87L6.1 27.87C5.11 26.01 4.62 23.93 4.62 21.75C4.62 14.53 10.47 8.62 17.75 8.62C24.96 8.62 30.87 14.53 30.87 21.75C30.87 23.93 30.32 26.01 29.34 27.87ZM9 20C8.01 20 7.25 20.82 7.25 21.75C7.25 22.73 8.01 23.5 9 23.5C9.92 23.5 10.75 22.73 10.75 21.75C10.75 20.82 9.92 20 9 20ZM17.75 11.25C16.76 11.25 16 12.07 16 13C16 13.98 16.76 14.75 17.75 14.75C18.67 14.75 19.5 13.98 19.5 13C19.5 12.07 18.67 11.25 17.75 11.25ZM23.87 13.87C22.89 13.87 22.12 14.69 22.12 15.62C22.12 16.6 22.89 17.37 23.87 17.37C24.8 17.37 25.62 16.6 25.62 15.62C25.62 14.69 24.8 13.87 23.87 13.87Z" fill="#5C8EE6" fill-opacity="1.000000" fill-rule="nonzero"></path>
  </symbol>
  <symbol fill="none" xmlns="http://www.w3.org/2000/svg" xmlns:xlink="http://www.w3.org/1999/xlink" viewBox="0 0 36 36" id="time">
    <desc>Created with Pixso.</desc>
    <defs></defs>
    <rect id="Frame 36" rx="0.000000" width="35.000000" height="35.000000" transform="translate(0.500000 0.500000)" fill="#FFFFFF" fill-opacity="0"></rect>
    <path id="Vector" d="M20.12 5.75L20.34 5.75C20.67 5.75 21 5.47 21 5.09L21 4.65C21 4.32 20.67 4 20.34 4L0.65 4C0.27 4 0 4.32 0 4.65L0 5.09C0 5.47 0.27 5.75 0.65 5.75L0.87 5.75C0.87 10.78 3.28 16.35 7.92 18C3.22 19.69 0.87 25.27 0.87 30.25L0.65 30.25C0.27 30.25 0 30.57 0 30.9L0 31.34C0 31.72 0.27 32 0.65 32L20.34 32C20.67 32 21 31.72 21 31.34L21 30.9C21 30.57 20.67 30.25 20.34 30.25L20.12 30.25C20.12 25.27 17.66 19.69 13.01 18C17.71 16.35 20.12 10.78 20.12 5.75ZM2.62 5.75L18.37 5.75C18.37 11.82 14.82 16.68 10.5 16.68C6.12 16.68 2.62 11.82 2.62 5.75ZM18.37 30.25L2.62 30.25C2.62 24.23 6.12 19.31 10.5 19.31C14.82 19.31 18.37 24.23 18.37 30.25ZM14.71 12.03C15.03 11.65 14.71 11 14.16 11L6.78 11C6.23 11 5.9 11.65 6.23 12.03C6.34 12.2 6.45 12.36 6.61 12.53C6.72 12.69 6.89 12.75 7.1 12.75L13.83 12.75C14.05 12.75 14.21 12.69 14.32 12.53C14.49 12.36 14.6 12.2 14.71 12.03ZM5.35 26.75C5.03 26.75 4.81 26.96 4.7 27.24C4.7 27.4 4.64 27.57 4.59 27.73C4.53 28.11 4.81 28.5 5.25 28.5L15.69 28.5C16.13 28.5 16.4 28.11 16.35 27.73C16.29 27.57 16.24 27.4 16.24 27.24C16.13 26.96 15.91 26.75 15.58 26.75L5.35 26.75Z" fill="#5C8EE6" fill-opacity="1.000000" fill-rule="nonzero"></path>
  </symbol>
    <symbol viewBox="0 0 36 24" fill="none" xmlns="http://www.w3.org/2000/svg" xmlns:xlink="http://www.w3.org/1999/xlink" id="arrow-next">
    <desc>
        Created with Pixso.
    </desc>
    <defs/>
    <rect id="arrow-next" rx="0.000000" width="35.000000" height="23.000000" transform="matrix(-1 5.34378e-24 5.34378e-24 1 36.5 0.5)" fill="#FFFFFF" fill-opacity="0"/>
    <path id="Vector" d="M25.83 4.68L25.13 5.39L31.58 11.84L3 11.84L3 12.84L31.57 12.84L25.13 19.29L25.83 20L32.99 12.84L33 12.84L33 12.83L33.49 12.34L25.83 4.68Z" fill="#FFFFFF" fill-opacity="1.000000" fill-rule="evenodd"/>
  </symbol>
  <symbol viewBox="0 0 36 24" fill="none" xmlns="http://www.w3.org/2000/svg" xmlns:xlink="http://www.w3.org/1999/xlink" id="arrow-prew">
    <desc>
        Created with Pixso.
    </desc>
    <defs/>
    <rect id="arrow-prew" rx="0.000000" width="35.000000" height="23.000000" transform="translate(0.500000 0.500000)" fill="#FFFFFF" fill-opacity="0"/>
    <path id="Vector" d="M10.16 4.68L10.86 5.39L4.41 11.84L33 11.84L32.99 12.84L4.42 12.84L10.86 19.29L10.16 20L3 12.84L2.99 12.84L2.99 12.83L2.5 12.34L10.16 4.68Z" fill="#FFFFFF" fill-opacity="1.000000" fill-rule="evenodd"/>
  </symbol>
    <symbol fill="none" xmlns="http://www.w3.org/2000/svg" xmlns:xlink="http://www.w3.org/1999/xlink" id="AGTECH">
    <desc>
        Created with Pixso.
    </desc>
    <defs/>
    <path id="Vector" d="M98.02 26.41L84.45 26.41L81 20.87L74.32 10.52L58.48 35.12L51.19 46.55L45.25 55.83L37.95 67.19L31.95 76.47L24.66 87.9L11.14 87.9L18.44 76.47L24.37 67.19L31.67 55.83L37.61 46.55L67.53 0L81.11 0L87.73 10.35L94.52 20.87L98.02 26.41ZM137.51 87.9L37.22 87.9L45.3 76.47L51.24 67.19L58.54 55.83L64.54 46.55L71.83 35.12L103.68 35.12L110.98 46.55L78.06 46.55L72.12 55.83L64.82 67.19L58.88 76.47L116.63 76.47L110.69 67.19L76.58 67.19L84.16 55.83L116.92 55.83L124.27 67.19L130.21 76.47L137.51 87.9ZM19.85 120.08L18.21 117.14L9.22 117.14L11.42 113.01L16.06 113.01L12.78 106.85L5.71 120.08L0 120.08L9.84 102.27C10.35 101.3 11.14 100.85 12.16 100.85L13.34 100.85C14.31 100.85 15.1 101.3 15.61 102.27L25.45 120.08L19.85 120.08ZM34.9 120.08C33.43 120.08 32.07 119.86 30.82 119.41C29.58 118.95 28.5 118.27 27.6 117.43C26.69 116.63 25.96 115.62 25.45 114.43C24.94 113.24 24.71 111.94 24.71 110.47C24.71 109.05 24.94 107.7 25.45 106.57C25.96 105.38 26.69 104.36 27.6 103.51C28.5 102.66 29.58 101.98 30.82 101.53C32.07 101.08 33.43 100.85 34.9 100.85L45.19 100.85L45.19 105.77L34.56 105.77C33.88 105.77 33.26 105.89 32.69 106.11C32.07 106.34 31.62 106.68 31.16 107.07C30.77 107.53 30.43 107.98 30.2 108.6C29.97 109.17 29.86 109.79 29.86 110.47C29.86 111.15 29.97 111.77 30.2 112.39C30.43 112.96 30.77 113.41 31.16 113.81C31.62 114.26 32.07 114.54 32.69 114.77C33.26 114.99 33.88 115.11 34.56 115.11L40.27 115.11L40.27 112.5L34.05 112.5L34.05 108.38L45.19 108.38L45.19 120.08L34.9 120.08ZM62.5 120.08L62.5 105.77L55.37 105.77L55.37 100.85L74.72 100.85L74.72 105.77L67.65 105.77L67.65 120.08L62.5 120.08ZM76.98 120.08L76.98 100.85L95.42 100.85L95.42 105.77L82.13 105.77L82.13 115.11L95.48 115.11L95.48 120.08L76.98 120.08ZM108.09 120.08C106.57 120.08 105.21 119.86 103.96 119.41C102.72 118.95 101.64 118.27 100.8 117.43C99.89 116.63 99.15 115.62 98.65 114.43C98.14 113.24 97.85 111.94 97.85 110.47C97.85 109.05 98.14 107.7 98.65 106.57C99.15 105.38 99.89 104.36 100.8 103.51C101.64 102.66 102.72 101.98 103.96 101.53C105.21 101.08 106.57 100.85 108.09 100.85L117.48 100.85L117.48 105.77L107.7 105.77C107.02 105.77 106.4 105.89 105.83 106.11C105.26 106.34 104.76 106.68 104.36 107.07C103.96 107.53 103.62 107.98 103.4 108.6C103.17 109.17 103.06 109.79 103.06 110.47C103.06 111.15 103.17 111.77 103.4 112.39C103.62 112.96 103.96 113.41 104.36 113.81C104.76 114.26 105.26 114.54 105.83 114.77C106.4 114.99 107.02 115.11 107.7 115.11L117.48 115.11L117.48 120.08L108.09 120.08ZM120.37 120.08L120.37 100.85L125.57 100.85L125.57 120.08L120.37 120.08ZM134.85 120.08L134.85 112.62L127.32 112.62L127.32 107.92L134.85 107.92L134.85 100.85L140 100.85L140 120.08L134.85 120.08ZM83.88 112.5L83.88 108.38L95.25 108.38L95.25 112.5L83.88 112.5Z" fill="#828A99" fill-opacity="1.000000" fill-rule="evenodd"/>
  </symbol>
    <symbol fill="none" xmlns="http://www.w3.org/2000/svg" xmlns:xlink="http://www.w3.org/1999/xlink" id="AP"> 
    <desc>
        Created with Pixso.
    </desc>
    <defs/>
    <path id="Vector" d="M64.01 12.43C59.98 10.78 55.57 9.87 50.94 9.87C31.89 9.87 16.44 25.31 16.44 44.37C16.44 52.03 18.94 59.11 23.16 64.84L23.16 78.98C13.04 70.84 6.57 58.36 6.57 44.37C6.57 19.86 26.43 0 50.94 0C59.46 0 67.42 2.4 74.18 6.57L74.18 42.49C74.18 55.97 65.13 67.09 51.05 67.09C48.21 67.09 45.5 66.58 42.99 65.65L42.99 54.17C45.21 55.92 48 56.97 51.05 56.97C58.21 56.97 64.01 51.17 64.01 44.01L64.01 12.43ZM38.01 76.33C42.04 77.98 46.45 78.89 51.08 78.89C70.13 78.89 85.57 63.45 85.57 44.4C85.57 36.73 83.07 29.65 78.84 23.93L78.84 9.79C88.97 17.92 95.45 30.4 95.45 44.4C95.45 68.9 75.58 88.77 51.08 88.77C42.56 88.77 34.59 86.36 27.83 82.2L27.83 46.28C27.83 32.78 36.89 21.67 50.97 21.67C53.8 21.67 56.52 22.18 59.03 23.12L59.03 34.6C56.81 32.83 54.02 31.78 50.97 31.78C43.81 31.78 38.01 37.59 38.01 44.74L38.01 76.33ZM16.11 121.92C16.11 122.07 16.06 122.17 15.97 122.25C15.89 122.34 15.77 122.38 15.63 122.38L12.82 122.38C12.7 122.38 12.59 122.33 12.51 122.24C12.42 122.16 12.35 122.05 12.32 121.92L11.1 116.89L5.01 116.89L3.78 121.92C3.75 122.05 3.69 122.16 3.6 122.24C3.51 122.33 3.41 122.38 3.28 122.38L0.48 122.38C0.33 122.38 0.22 122.34 0.13 122.25C0.04 122.17 0 122.07 0 121.92C0 121.91 0 121.89 0 121.88C0.01 121.86 0.02 121.83 0.02 121.79L4.37 105.17C4.52 104.56 4.76 104.08 5.05 103.72C5.35 103.37 5.68 103.1 6.03 102.91C6.37 102.73 6.72 102.61 7.09 102.55C7.45 102.5 7.77 102.48 8.05 102.48C8.33 102.48 8.66 102.5 9.02 102.55C9.38 102.61 9.74 102.73 10.08 102.91C10.42 103.1 10.74 103.37 11.05 103.72C11.35 104.08 11.58 104.56 11.73 105.17L16.08 121.79C16.08 121.83 16.09 121.86 16.09 121.88C16.1 121.89 16.11 121.91 16.11 121.92ZM54.03 121.92C54.03 122.07 53.99 122.17 53.9 122.25C53.81 122.34 53.7 122.38 53.55 122.38L50.74 122.38C50.62 122.38 50.52 122.33 50.43 122.24C50.33 122.16 50.28 122.05 50.24 121.92L49.02 116.89L42.92 116.89L41.71 121.92C41.67 122.05 41.61 122.16 41.52 122.24C41.43 122.33 41.32 122.38 41.21 122.38L38.39 122.38C38.26 122.38 38.14 122.34 38.05 122.25C37.96 122.17 37.92 122.07 37.92 121.92C37.92 121.91 37.92 121.89 37.93 121.88C37.94 121.86 37.94 121.83 37.94 121.79L42.29 105.17C42.45 104.56 42.68 104.08 42.98 103.72C43.28 103.37 43.6 103.1 43.94 102.91C44.29 102.73 44.65 102.61 45 102.55C45.37 102.5 45.69 102.48 45.98 102.48C46.26 102.48 46.58 102.5 46.94 102.55C47.31 102.61 47.65 102.73 48 102.91C48.35 103.1 48.67 103.37 48.97 103.72C49.26 104.08 49.5 104.56 49.66 105.17L54.01 121.79C54.01 121.83 54.01 121.86 54.02 121.88C54.03 121.89 54.03 121.91 54.03 121.92ZM87.1 121.56C87.1 121.75 87.04 121.89 86.94 121.96C86.83 122.05 86.7 122.11 86.51 122.17C86.41 122.2 86.23 122.24 85.97 122.28C85.71 122.33 85.41 122.37 85.03 122.42C84.66 122.46 84.25 122.5 83.79 122.53C83.33 122.57 82.84 122.59 82.33 122.59C81.54 122.59 80.69 122.47 79.82 122.24C78.93 122.01 78.13 121.6 77.4 120.99C76.66 120.37 76.07 119.55 75.58 118.5C75.1 117.46 74.86 116.12 74.86 114.48L74.86 110.58C74.86 108.92 75.1 107.56 75.58 106.51C76.07 105.46 76.66 104.63 77.4 104.04C78.13 103.44 78.93 103.02 79.82 102.8C80.69 102.58 81.54 102.48 82.33 102.48C82.84 102.48 83.33 102.49 83.79 102.52C84.25 102.56 84.66 102.6 85.03 102.65C85.41 102.69 85.71 102.74 85.97 102.79C86.23 102.84 86.41 102.88 86.51 102.9C86.7 102.95 86.83 103.02 86.94 103.1C87.04 103.18 87.1 103.31 87.1 103.51L87.1 105.28C87.1 105.44 87.06 105.58 86.99 105.68C86.9 105.79 86.76 105.84 86.57 105.84L86.51 105.84C86.29 105.82 86.01 105.8 85.69 105.77C85.36 105.75 85.01 105.72 84.63 105.7C84.27 105.69 83.88 105.67 83.5 105.66C83.11 105.64 82.74 105.63 82.38 105.63C81.82 105.63 81.3 105.71 80.84 105.88C80.37 106.05 79.96 106.32 79.63 106.71C79.3 107.08 79.03 107.59 78.83 108.23C78.64 108.87 78.54 109.65 78.54 110.58L78.54 114.48C78.54 115.4 78.64 116.17 78.83 116.81C79.03 117.44 79.3 117.96 79.63 118.35C79.96 118.73 80.37 119.01 80.84 119.19C81.3 119.35 81.82 119.44 82.38 119.44C82.74 119.44 83.11 119.43 83.5 119.41C83.88 119.39 84.27 119.37 84.63 119.35C85.01 119.34 85.36 119.31 85.69 119.29C86.01 119.26 86.29 119.25 86.51 119.23L86.57 119.23C86.76 119.23 86.9 119.27 86.99 119.38C87.06 119.49 87.1 119.62 87.1 119.78L87.1 121.56ZM102.02 121.66C102.02 121.86 101.98 121.99 101.91 122.06C101.82 122.13 101.68 122.18 101.49 122.21C101.28 122.25 101.05 122.29 100.79 122.34C100.53 122.38 100.21 122.42 99.83 122.45C99.46 122.49 99 122.52 98.46 122.55C97.92 122.58 97.25 122.59 96.45 122.59C95.59 122.59 94.78 122.52 94.04 122.38C93.3 122.23 92.64 121.96 92.09 121.57C91.55 121.17 91.11 120.61 90.79 119.91C90.47 119.21 90.31 118.29 90.31 117.15L90.31 107.91C90.31 106.77 90.47 105.86 90.79 105.15C91.11 104.44 91.55 103.89 92.09 103.5C92.64 103.1 93.3 102.83 94.04 102.69C94.78 102.54 95.59 102.48 96.45 102.48C97.25 102.48 97.92 102.48 98.46 102.51C99 102.54 99.46 102.57 99.83 102.61C100.21 102.64 100.53 102.69 100.79 102.73C101.05 102.77 101.28 102.81 101.49 102.84C101.68 102.88 101.82 102.94 101.91 103.01C101.98 103.07 102.02 103.21 102.02 103.4L102.02 105.1C102.02 105.24 101.96 105.37 101.86 105.47C101.75 105.58 101.64 105.63 101.49 105.63L96.08 105.63C95.3 105.63 94.76 105.79 94.46 106.11C94.15 106.43 93.99 107.02 93.99 107.91L93.99 110.77L101.17 110.77C101.32 110.77 101.43 110.82 101.54 110.93C101.65 111.03 101.7 111.16 101.7 111.3L101.7 113.21C101.7 113.35 101.65 113.47 101.54 113.58C101.43 113.68 101.32 113.74 101.17 113.74L93.99 113.74L93.99 117.15C93.99 118.04 94.15 118.64 94.46 118.96C94.76 119.27 95.3 119.44 96.08 119.44L101.49 119.44C101.64 119.44 101.75 119.49 101.86 119.59C101.96 119.7 102.02 119.82 102.02 119.97L102.02 121.66ZM29.23 121.66C29.23 121.86 29.19 121.99 29.11 122.06C29.02 122.13 28.89 122.18 28.7 122.21C28.5 122.27 28.22 122.32 27.86 122.36C27.5 122.41 27.11 122.44 26.68 122.48C26.26 122.52 25.82 122.54 25.38 122.56C24.94 122.58 24.54 122.59 24.19 122.59C23.33 122.59 22.52 122.52 21.78 122.38C21.03 122.23 20.39 121.96 19.85 121.57C19.3 121.17 18.87 120.61 18.55 119.91C18.23 119.21 18.07 118.29 18.07 117.15L18.07 103.22C18.07 103.07 18.12 102.95 18.23 102.84C18.34 102.74 18.46 102.69 18.6 102.69L21.22 102.69C21.36 102.69 21.49 102.74 21.59 102.84C21.7 102.95 21.76 103.07 21.76 103.22L21.76 117.15C21.76 118.04 21.9 118.64 22.2 118.96C22.5 119.27 23.04 119.44 23.82 119.44L28.7 119.44C28.84 119.44 28.96 119.49 29.06 119.59C29.17 119.7 29.23 119.82 29.23 119.97L29.23 121.66ZM35.42 121.85C35.42 121.99 35.38 122.11 35.27 122.21C35.16 122.32 35.04 122.38 34.89 122.38L32.27 122.38C32.13 122.38 32.01 122.32 31.91 122.21C31.8 122.11 31.74 121.99 31.74 121.85L31.74 103.19C31.74 103.05 31.8 102.93 31.91 102.83C32.01 102.74 32.13 102.69 32.27 102.69L34.89 102.69C35.04 102.69 35.16 102.74 35.27 102.83C35.38 102.93 35.42 103.05 35.42 103.19L35.42 121.85ZM71.41 121.32C71.41 121.62 71.32 121.87 71.11 122.07C70.9 122.27 70.65 122.38 70.35 122.38L67.67 122.38C67.36 122.38 67.07 122.34 66.79 122.25C66.52 122.17 66.27 121.9 66.06 121.42L60.17 108.52C60.11 108.37 60.03 108.31 59.94 108.31C59.85 108.31 59.81 108.37 59.81 108.52L59.81 121.85C59.81 121.99 59.76 122.11 59.66 122.21C59.57 122.32 59.44 122.38 59.31 122.38L57.05 122.38C56.91 122.38 56.78 122.32 56.68 122.21C56.57 122.11 56.52 121.99 56.52 121.85L56.52 103.75C56.52 103.45 56.62 103.2 56.83 103C57.03 102.79 57.28 102.69 57.58 102.69L60.44 102.69C60.72 102.69 60.95 102.74 61.12 102.84C61.28 102.95 61.45 103.18 61.61 103.54L67.78 117.15C67.84 117.3 67.9 117.37 67.99 117.37C68.09 117.37 68.13 117.29 68.13 117.12L68.13 103.19C68.13 102.85 68.3 102.69 68.63 102.69L70.91 102.69C71.25 102.69 71.41 102.85 71.41 103.19L71.41 121.32ZM8.48 106C8.44 105.84 8.4 105.73 8.34 105.67C8.29 105.61 8.2 105.58 8.05 105.58C7.91 105.58 7.81 105.61 7.76 105.67C7.71 105.73 7.67 105.84 7.63 106L5.72 113.87L10.38 113.87L8.48 106ZM46.4 106C46.36 105.84 46.31 105.73 46.27 105.67C46.21 105.61 46.11 105.58 45.98 105.58C45.83 105.58 45.74 105.61 45.68 105.67C45.63 105.73 45.58 105.84 45.55 106L43.65 113.87L48.31 113.87L46.4 106ZM9.84 131.22C9.84 131.97 9.71 132.59 9.45 133.09C9.18 133.61 8.82 134.01 8.38 134.33C7.93 134.64 7.42 134.85 6.83 134.98C6.24 135.11 5.62 135.18 4.97 135.18C4.74 135.18 4.48 135.17 4.19 135.15C3.89 135.14 3.65 135.12 3.45 135.11L3.45 139.52C3.45 139.61 3.43 139.69 3.37 139.75C3.3 139.82 3.22 139.86 3.14 139.86L1.45 139.86C1.35 139.86 1.28 139.82 1.21 139.75C1.14 139.69 1.1 139.61 1.1 139.52L1.1 127.89C1.1 127.73 1.15 127.6 1.25 127.53C1.34 127.46 1.48 127.41 1.65 127.39C2.09 127.32 2.6 127.26 3.18 127.23C3.75 127.19 4.35 127.17 4.97 127.17C5.62 127.17 6.24 127.23 6.83 127.35C7.42 127.48 7.94 127.69 8.38 128C8.82 128.3 9.18 128.7 9.45 129.2C9.71 129.7 9.84 130.33 9.84 131.07L9.84 131.22ZM20.81 139.66C20.81 139.79 20.75 139.86 20.61 139.86L18.55 139.86C18.46 139.86 18.38 139.82 18.35 139.75C18.3 139.69 18.25 139.61 18.21 139.52L15.77 135.02L15.54 135.02C15.31 135.02 15.06 135.01 14.76 135C14.47 134.98 14.23 134.96 14.04 134.95L14.04 139.52C14.04 139.61 14 139.69 13.94 139.75C13.88 139.82 13.81 139.86 13.71 139.86L12.02 139.86C11.94 139.86 11.86 139.82 11.79 139.75C11.72 139.69 11.69 139.61 11.69 139.52L11.69 127.89C11.69 127.73 11.73 127.6 11.83 127.53C11.93 127.46 12.06 127.41 12.23 127.39C12.67 127.32 13.18 127.26 13.75 127.23C14.33 127.19 14.92 127.17 15.55 127.17C16.2 127.17 16.82 127.24 17.41 127.36C18 127.5 18.51 127.71 18.95 128C19.41 128.28 19.76 128.68 20.02 129.17C20.29 129.66 20.42 130.26 20.42 130.98L20.42 131.14C20.42 132.04 20.22 132.77 19.8 133.34C19.39 133.89 18.83 134.32 18.12 134.59L20.77 139.52C20.8 139.55 20.81 139.6 20.81 139.66ZM31.66 134.72C31.66 135.66 31.54 136.46 31.3 137.12C31.05 137.79 30.72 138.33 30.3 138.75C29.86 139.18 29.36 139.48 28.77 139.69C28.19 139.89 27.55 140 26.85 140C26.15 140 25.52 139.89 24.93 139.69C24.34 139.48 23.84 139.18 23.41 138.75C22.98 138.33 22.65 137.79 22.4 137.12C22.16 136.46 22.05 135.66 22.05 134.72L22.05 132.44C22.05 131.51 22.16 130.71 22.4 130.05C22.65 129.37 22.98 128.83 23.41 128.41C23.84 127.99 24.34 127.68 24.93 127.48C25.52 127.27 26.15 127.17 26.85 127.17C27.55 127.17 28.19 127.27 28.77 127.48C29.36 127.68 29.86 127.99 30.3 128.41C30.72 128.83 31.05 129.37 31.3 130.05C31.54 130.71 31.66 131.51 31.66 132.44L31.66 134.72ZM42.96 134.82C42.96 136.5 42.51 137.78 41.58 138.67Q41.52 138.72 41.46 138.78Q40.1 140 37.65 140C37.34 140 37.02 139.99 36.69 139.98C36.36 139.97 36.03 139.95 35.72 139.93C35.41 139.9 35.13 139.88 34.88 139.86C34.62 139.83 34.43 139.81 34.32 139.79C34.16 139.76 34.06 139.72 33.98 139.64C33.91 139.56 33.87 139.44 33.87 139.26L33.87 127.89C33.87 127.73 33.91 127.6 33.98 127.52C34.06 127.45 34.16 127.39 34.32 127.37C34.43 127.35 34.62 127.32 34.88 127.3C35.13 127.28 35.41 127.25 35.72 127.24C36.03 127.22 36.36 127.2 36.69 127.19C37.02 127.18 37.34 127.17 37.65 127.17C39.36 127.17 40.67 127.61 41.58 128.5C42.51 129.37 42.96 130.66 42.96 132.34L42.96 134.82ZM64.27 139.33C64.27 139.46 64.24 139.54 64.17 139.6C64.11 139.65 64.01 139.69 63.89 139.73C63.83 139.75 63.71 139.77 63.56 139.8C63.39 139.83 63.19 139.85 62.95 139.88C62.72 139.91 62.45 139.94 62.16 139.96C61.87 139.99 61.55 140 61.22 140C60.72 140 60.18 139.92 59.62 139.77C59.06 139.63 58.55 139.36 58.08 138.97C57.62 138.58 57.23 138.06 56.93 137.39Q56.46 136.39 56.46 134.82L56.46 132.34C56.46 131.28 56.62 130.42 56.93 129.74C57.23 129.08 57.62 128.55 58.08 128.16C58.55 127.78 59.06 127.52 59.62 127.38C60.18 127.24 60.72 127.17 61.22 127.17C61.55 127.17 61.87 127.18 62.16 127.21C62.45 127.23 62.72 127.25 62.95 127.27C63.19 127.3 63.39 127.34 63.56 127.37C63.71 127.41 63.83 127.43 63.89 127.44C64.01 127.48 64.11 127.51 64.17 127.56C64.24 127.61 64.27 127.71 64.27 127.82L64.27 128.96C64.27 129.06 64.24 129.14 64.19 129.21C64.14 129.28 64.06 129.32 63.93 129.32L63.89 129.32C63.75 129.31 63.58 129.29 63.36 129.27C63.16 129.26 62.94 129.24 62.7 129.23C62.46 129.22 62.22 129.21 61.98 129.19C61.73 129.18 61.48 129.18 61.26 129.18C60.91 129.18 60.57 129.23 60.27 129.34C59.97 129.44 59.72 129.63 59.51 129.87C59.29 130.11 59.12 130.42 59 130.83C58.87 131.24 58.82 131.75 58.82 132.34L58.82 134.82C58.82 135.41 58.87 135.9 59 136.31C59.12 136.72 59.29 137.05 59.51 137.29C59.72 137.54 59.97 137.71 60.27 137.82C60.57 137.93 60.91 137.98 61.26 137.98C61.48 137.98 61.73 137.97 61.98 137.96L62.7 137.93C62.94 137.92 63.16 137.9 63.36 137.88C63.58 137.88 63.75 137.86 63.89 137.85L63.93 137.85C64.06 137.85 64.14 137.88 64.19 137.95C64.24 138.02 64.27 138.1 64.27 138.2L64.27 139.33ZM90.25 134.72C90.25 135.66 90.14 136.46 89.9 137.12C89.66 137.79 89.32 138.33 88.89 138.75C88.46 139.18 87.96 139.48 87.37 139.69C86.78 139.89 86.15 140 85.45 140C84.75 140 84.11 139.89 83.53 139.69C82.95 139.48 82.44 139.18 82.01 138.75C81.58 138.33 81.25 137.79 81.01 137.12C80.77 136.46 80.64 135.66 80.64 134.72L80.64 132.44C80.64 131.51 80.77 130.71 81.01 130.05C81.25 129.37 81.58 128.83 82.01 128.41C82.44 127.99 82.95 127.68 83.53 127.48C84.11 127.27 84.75 127.17 85.45 127.17C86.15 127.17 86.78 127.27 87.37 127.48C87.96 127.68 88.46 127.99 88.89 128.41C89.32 128.83 89.66 129.37 89.9 130.05C90.14 130.71 90.25 131.51 90.25 132.44L90.25 134.72ZM54.35 135.22C54.35 136.11 54.24 136.86 54.01 137.47C53.77 138.09 53.46 138.57 53.04 138.94C52.63 139.32 52.14 139.58 51.57 139.75C51 139.91 50.38 140 49.71 140C49.03 140 48.41 139.91 47.84 139.75C47.27 139.58 46.78 139.32 46.36 138.94C45.96 138.57 45.64 138.09 45.41 137.47C45.18 136.86 45.06 136.11 45.06 135.22L45.06 127.62C45.06 127.53 45.09 127.46 45.16 127.4C45.23 127.33 45.3 127.3 45.4 127.3L47.07 127.3C47.16 127.3 47.24 127.33 47.31 127.4C47.37 127.46 47.4 127.53 47.4 127.62L47.4 135.22C47.4 135.71 47.44 136.13 47.51 136.49C47.58 136.83 47.69 137.13 47.88 137.37C48.05 137.61 48.28 137.79 48.57 137.89C48.87 138.01 49.24 138.07 49.71 138.07C50.15 138.07 50.53 138.01 50.83 137.89C51.12 137.79 51.37 137.61 51.54 137.37C51.71 137.13 51.84 136.83 51.9 136.49C51.97 136.13 52 135.71 52 135.22L52 127.62C52 127.53 52.04 127.46 52.11 127.4C52.17 127.33 52.25 127.3 52.34 127.3L54.02 127.3C54.1 127.3 54.18 127.33 54.25 127.4C54.31 127.46 54.35 127.53 54.35 127.62L54.35 135.22ZM74.41 128.96C74.41 129.05 74.37 129.12 74.3 129.18C74.24 129.24 74.16 129.26 74.07 129.26L71.11 129.26L71.11 139.52C71.11 139.61 71.08 139.69 71.02 139.75C70.95 139.82 70.86 139.86 70.78 139.86L69.1 139.86C69.01 139.86 68.93 139.82 68.87 139.75C68.8 139.69 68.76 139.61 68.76 139.52L68.76 129.26L65.81 129.26C65.72 129.26 65.64 129.24 65.57 129.18C65.5 129.12 65.47 129.05 65.47 128.96L65.47 127.62C65.47 127.53 65.5 127.46 65.57 127.4C65.64 127.33 65.72 127.3 65.81 127.3L74.07 127.3C74.16 127.3 74.24 127.33 74.3 127.4C74.37 127.46 74.41 127.53 74.41 127.62L74.41 128.96ZM78.45 139.52C78.45 139.61 78.41 139.69 78.34 139.75C78.27 139.82 78.2 139.86 78.11 139.86L76.43 139.86C76.35 139.86 76.27 139.82 76.2 139.75C76.13 139.69 76.1 139.61 76.1 139.52L76.1 127.62C76.1 127.53 76.13 127.46 76.2 127.4C76.27 127.33 76.35 127.3 76.43 127.3L78.11 127.3C78.2 127.3 78.27 127.33 78.34 127.4C78.41 127.46 78.45 127.53 78.45 127.62L78.45 139.52ZM101.96 139.19C101.96 139.37 101.91 139.53 101.77 139.67C101.65 139.79 101.48 139.86 101.29 139.86L99.58 139.86C99.38 139.86 99.2 139.83 99.02 139.78C98.84 139.74 98.69 139.55 98.55 139.25L94.8 131.02C94.75 130.93 94.71 130.89 94.65 130.89C94.59 130.89 94.57 130.93 94.57 131.02L94.57 139.52C94.57 139.61 94.53 139.69 94.48 139.75C94.41 139.82 94.34 139.86 94.24 139.86L92.81 139.86C92.72 139.86 92.64 139.82 92.58 139.75C92.51 139.69 92.47 139.61 92.47 139.52L92.47 127.98C92.47 127.78 92.54 127.63 92.66 127.5C92.8 127.37 92.95 127.3 93.15 127.3L94.98 127.3C95.15 127.3 95.29 127.34 95.4 127.41C95.51 127.48 95.61 127.62 95.72 127.84L99.65 136.53C99.69 136.62 99.73 136.66 99.79 136.66C99.84 136.66 99.87 136.61 99.87 136.52L99.87 127.62C99.87 127.41 99.98 127.3 100.19 127.3L101.65 127.3C101.86 127.3 101.96 127.41 101.96 127.62L101.96 139.19ZM7.49 131.06C7.49 130.35 7.28 129.85 6.86 129.55C6.44 129.24 5.81 129.1 4.96 129.1C4.87 129.1 4.76 129.1 4.61 129.1C4.48 129.1 4.33 129.11 4.19 129.12C4.03 129.12 3.9 129.13 3.77 129.13C3.64 129.14 3.53 129.15 3.45 129.16L3.45 133.2C3.52 133.2 3.63 133.2 3.77 133.21C3.91 133.21 4.05 133.22 4.21 133.23C4.36 133.23 4.51 133.24 4.65 133.24C4.79 133.25 4.89 133.25 4.96 133.25C5.87 133.25 6.52 133.09 6.92 132.74C7.3 132.4 7.49 131.89 7.49 131.22L7.49 131.06ZM40.62 132.34C40.62 131.72 40.54 131.19 40.39 130.78C40.23 130.37 40.02 130.04 39.76 129.8C39.49 129.56 39.18 129.38 38.82 129.29C38.45 129.19 38.06 129.14 37.64 129.14C37.32 129.14 37.05 129.15 36.83 129.16C36.6 129.17 36.4 129.18 36.22 129.19L36.22 137.98C36.4 137.99 36.6 138 36.83 138.02C37.05 138.03 37.32 138.03 37.64 138.03C38.06 138.03 38.45 137.98 38.82 137.88C39.18 137.8 39.49 137.62 39.76 137.38C40.02 137.13 40.23 136.82 40.39 136.4C40.54 135.99 40.62 135.47 40.62 134.83L40.62 132.34ZM18.08 130.98C18.08 130.35 17.86 129.89 17.44 129.61C17.02 129.32 16.38 129.18 15.54 129.18C15.44 129.18 15.33 129.18 15.19 129.19C15.05 129.19 14.9 129.2 14.76 129.2C14.62 129.21 14.48 129.21 14.35 129.22C14.22 129.23 14.11 129.24 14.04 129.25L14.04 133.05C14.1 133.05 14.21 133.05 14.35 133.06C14.49 133.07 14.63 133.07 14.79 133.08C14.94 133.08 15.09 133.09 15.22 133.09L15.54 133.09C16.42 133.09 17.06 132.96 17.47 132.68C17.87 132.39 18.08 131.88 18.08 131.14L18.08 130.98ZM29.31 132.44C29.31 131.31 29.11 130.49 28.71 129.98C28.31 129.47 27.68 129.21 26.85 129.21C26.02 129.21 25.39 129.47 25 129.98C24.59 130.49 24.39 131.31 24.39 132.44L24.39 134.72C24.39 135.85 24.59 136.67 25 137.18C25.39 137.69 26.02 137.95 26.85 137.95C27.68 137.95 28.31 137.69 28.71 137.18C29.11 136.67 29.31 135.85 29.31 134.72L29.31 132.44ZM87.91 132.44C87.91 131.31 87.71 130.49 87.3 129.98C86.91 129.47 86.28 129.21 85.45 129.21C84.62 129.21 84 129.47 83.59 129.98C83.19 130.49 83 131.31 83 132.44L83 134.72C83 135.85 83.19 136.67 83.59 137.18C84 137.69 84.62 137.95 85.45 137.95C86.28 137.95 86.91 137.69 87.3 137.18C87.71 136.67 87.91 135.85 87.91 134.72L87.91 132.44Z" fill="#5C8EE6" fill-opacity="1.000000" fill-rule="evenodd"/>
  </symbol>



</svg>

