<svg width="24.000000" height="24.000000" viewBox="0 0 24 24" fill="none" xmlns="http://www.w3.org/2000/svg" xmlns:xlink="http://www.w3.org/1999/xlink">
	<desc>
			Created with Pixso.
	</desc>
	<defs/>
	<rect id="vk" rx="0.000000" width="23.000000" height="23.000000" transform="translate(0.500000 0.500000)" fill="#FFFFFF" fill-opacity="0"/>
	<path id="Vector" d="M21.44 16.75C20.64 15.31 18.58 13.59 17.73 12.84C17.5 12.63 17.48 12.28 17.69 12.05C19.31 10.31 20.61 8.31 21.05 7.1C21.25 6.56 20.84 6 20.27 6L18.6 6C18.05 6 17.73 6.2 17.57 6.51C16.23 9.27 15.07 10.46 14.26 11.16C13.81 11.55 13.11 11.23 13.11 10.63C13.11 9.49 13.11 8.01 13.11 6.96C13.11 6.45 12.69 6.03 12.17 6.03L9.13 6C8.75 6 8.53 6.43 8.76 6.74L9.26 7.46C9.45 7.71 9.55 8.01 9.55 8.33L9.55 11.58C9.55 12.14 8.86 12.42 8.46 12.02C7.08 10.68 5.88 7.94 5.45 6.63C5.33 6.26 4.97 6 4.57 6L2.93 6C2.31 6 1.86 6.58 2.03 7.17C3.53 12.44 6.61 17.45 12.1 17.99C12.64 18.04 13.11 17.61 13.11 17.07L13.11 15.36C13.11 14.87 13.49 14.45 13.98 14.44C14 14.44 14.02 14.44 14.04 14.44C15.49 14.44 17.11 16.55 17.68 17.54C17.85 17.82 18.15 18 18.48 18L20.69 18C21.34 18 21.75 17.31 21.44 16.75Z" fill="#5C8EE6" fill-opacity="1.000000" fill-rule="nonzero"/>
</svg>
